<svg width="1920" height="1080" viewBox="0 0 1920 1080" fill="none" xmlns="http://www.w3.org/2000/svg">
<g clip-path="url(#clip0_1046_404)">
<rect width="1920" height="1080" fill="white"/>
<rect width="1920" height="1080" fill="white"/>
<path d="M455.118 656.202C459.737 532.643 356.964 452.436 305 427.777C514.588 427.777 562.895 490.326 560.85 521.601L455.118 656.202Z" fill="#0D4974"/>
<path d="M689.316 485.875C529.455 402.155 537.394 613.981 332.786 671.357C757.158 645.376 544.611 517.27 689.316 485.875Z" fill="#2092E3"/>
<path d="M406.401 387C445.013 432.95 509.463 552.779 455.478 658.728C579.614 658.728 766.901 545.779 406.401 387Z" fill="#66B2E8"/>
<path d="M766.933 538.395H808.595C830.623 538.395 845.948 534.883 854.567 527.859C863.347 520.676 867.736 512.216 867.736 502.479C867.736 495.136 865.262 488.352 860.314 482.126C855.525 475.901 848.741 471.91 839.962 470.154C851.455 463.131 857.201 453.394 857.201 440.943C857.201 432.323 853.849 424.501 847.145 417.478C840.6 410.295 828.788 406.703 811.708 406.703H766.933V538.395ZM807.398 427.055C817.454 427.055 824.478 428.492 828.468 431.365C832.459 434.238 834.454 438.469 834.454 444.055C834.454 449.802 832.299 454.032 827.99 456.746C823.839 459.459 816.975 460.816 807.398 460.816H790.398V427.055H807.398ZM805.722 480.45C819.29 480.45 829.107 482.126 835.173 485.478C841.398 488.671 844.511 493.46 844.511 499.845C844.511 506.709 841.318 511.418 834.933 513.972C828.708 516.526 818.971 517.803 805.722 517.803H790.398V480.69L805.722 480.45ZM882.82 538.395H969.019V517.084H906.285V406.703H882.82V538.395ZM1033.46 540.549C1049.42 540.549 1061.31 537.756 1069.13 532.169C1077.11 526.582 1082.14 520.277 1084.22 513.253C1086.45 506.23 1087.57 498.727 1087.57 490.746V406.703H1064.11V489.549C1064.11 493.699 1063.87 497.45 1063.39 500.803C1061.79 506.549 1058.44 511.019 1053.33 514.211C1048.22 517.244 1041.6 518.761 1033.46 518.761C1025.64 518.761 1019.17 517.244 1014.06 514.211C1008.95 511.019 1005.68 506.549 1004.25 500.803C1003.45 497.131 1003.05 493.38 1003.05 489.549V406.703H979.823V490.746C979.823 498.727 980.86 506.23 982.935 513.253C985.17 520.277 990.198 526.582 998.02 532.169C1006 537.756 1017.81 540.549 1033.46 540.549ZM1195.05 538.395V517.084H1132.08V482.126H1187.86V460.816H1132.08V427.774H1195.05V406.703H1108.61V538.395H1195.05ZM1213.09 538.395H1254.75C1276.78 538.395 1292.1 534.883 1300.72 527.859C1309.5 520.676 1313.89 512.216 1313.89 502.479C1313.89 495.136 1311.42 488.352 1306.47 482.126C1301.68 475.901 1294.9 471.91 1286.12 470.154C1297.61 463.131 1303.36 453.394 1303.36 440.943C1303.36 432.323 1300 424.501 1293.3 417.478C1286.75 410.295 1274.94 406.703 1257.86 406.703H1213.09V538.395ZM1253.55 427.055C1263.61 427.055 1270.63 428.492 1274.62 431.365C1278.61 434.238 1280.61 438.469 1280.61 444.055C1280.61 449.802 1278.45 454.032 1274.14 456.746C1269.99 459.459 1263.13 460.816 1253.55 460.816H1236.55V427.055H1253.55ZM1251.88 480.45C1265.44 480.45 1275.26 482.126 1281.33 485.478C1287.55 488.671 1290.67 493.46 1290.67 499.845C1290.67 506.709 1287.47 511.418 1281.09 513.972C1274.86 516.526 1265.13 517.803 1251.88 517.803H1236.55V480.69L1251.88 480.45ZM1328.98 538.395H1352.44V406.703H1328.98V538.395ZM1375.28 538.395H1398.74V486.915C1403.53 487.234 1407.04 487.394 1409.28 487.394C1413.75 487.394 1417.18 487.314 1419.57 487.155L1449.74 538.395H1476.32L1443.28 483.324C1462.75 476.779 1472.49 464.168 1472.49 445.492C1472.49 419.633 1454.45 406.703 1418.38 406.703H1375.28V538.395ZM1415.98 427.774C1426.2 427.774 1434.18 429.051 1439.92 431.605C1445.83 433.999 1448.78 438.788 1448.78 445.971C1448.78 454.272 1445.35 459.779 1438.49 462.492C1431.78 465.046 1422.37 466.323 1410.23 466.323C1406.56 466.323 1402.73 466.084 1398.74 465.605V427.774H1415.98ZM1489.85 538.395H1522.66C1530.48 538.395 1536.86 538.235 1541.81 537.916C1546.92 537.596 1552.03 536.878 1557.14 535.761C1574.06 530.972 1586.19 522.512 1593.53 510.38C1601.03 498.249 1604.79 484.281 1604.79 468.478C1604.79 458.103 1602.63 448.286 1598.32 439.027C1594.01 429.769 1586.59 422.107 1576.05 416.041C1565.68 409.816 1551.79 406.703 1534.39 406.703H1489.85V538.395ZM1534.87 427.774C1549.87 427.774 1561.29 431.525 1569.11 439.027C1576.93 446.37 1580.84 457.225 1580.84 471.591C1580.84 477.178 1580.28 482.126 1579.17 486.436C1578.05 490.586 1576.69 493.859 1575.09 496.253C1570.63 505.033 1564.32 510.699 1556.18 513.253C1548.04 515.807 1538.86 517.084 1528.64 517.084H1513.32V427.774H1534.87Z" fill="#0E4063"/>
<path d="M800.474 576.318C804.661 576.318 808.668 576.796 812.496 577.753C816.443 578.591 820.69 579.906 825.235 581.701L830.977 565.731L829.003 565.014C824.817 563.578 820.51 562.382 816.084 561.425C811.658 560.348 806.275 559.81 799.936 559.81C792.519 559.81 786 561.006 780.378 563.399C774.755 565.791 770.449 569.081 767.458 573.267C764.468 577.454 762.973 582.239 762.973 587.622C762.973 593.723 764.528 598.747 767.638 602.694C770.748 606.522 774.516 609.453 778.942 611.486C783.368 613.52 788.99 615.613 795.809 617.766C802.986 619.92 808.189 621.953 811.419 623.867C814.649 625.661 816.204 628.353 816.084 631.942C816.084 635.65 814.111 638.64 810.163 640.913C806.216 643.066 801.012 644.143 794.553 644.143C787.495 644.143 778.523 642.109 767.638 638.042L764.946 636.966L759.025 652.935L761.358 654.012C767.578 656.404 773.021 658.198 777.686 659.395C782.351 660.471 787.495 661.009 793.117 661.009C802.687 661.009 810.522 659.634 816.623 656.882C822.843 654.012 827.329 650.423 830.08 646.117C832.831 641.691 834.207 636.966 834.207 631.942C834.207 625.841 832.592 620.817 829.362 616.869C826.133 612.922 822.245 609.931 817.699 607.898C813.273 605.864 807.591 603.771 800.653 601.618C793.835 599.464 788.811 597.491 785.581 595.696C782.471 593.902 780.916 591.45 780.916 588.34C780.916 584.631 782.65 581.701 786.119 579.547C789.588 577.394 794.373 576.318 800.474 576.318ZM910.117 659.395V643.425H862.926V617.228H904.734V601.259H862.926V576.497H910.117V560.707H845.342V659.395H910.117ZM963.053 604.309V619.92H988.891V640.913C986.499 642.229 984.047 643.186 981.535 643.784C979.142 644.382 976.032 644.681 972.204 644.681C965.147 644.681 958.807 643.186 953.185 640.195C947.682 637.085 943.316 632.839 940.086 627.456C936.976 622.073 935.421 616.032 935.421 609.333C935.421 602.634 937.036 596.773 940.265 591.749C943.495 586.605 947.742 582.717 953.005 580.086C958.268 577.334 963.891 575.959 969.872 575.959C974.417 575.959 978.843 576.617 983.15 577.933C987.576 579.129 991.463 580.624 994.813 582.418L997.325 583.495L1004.68 570.038L1002.17 568.602C992.002 562.741 981.056 559.81 969.333 559.81C958.687 559.81 949.417 562.143 941.522 566.808C933.746 571.473 927.825 577.634 923.758 585.289C919.691 592.945 917.657 601.199 917.657 610.051C917.657 618.544 919.571 626.678 923.399 634.454C927.227 642.229 933.028 648.629 940.804 653.653C948.579 658.557 958.089 661.009 969.333 661.009C985.123 660.651 997.385 656.703 1006.12 649.167V604.309H963.053ZM1057.07 661.009C1069.03 661.009 1077.94 658.916 1083.8 654.729C1089.79 650.543 1093.55 645.818 1095.11 640.554C1096.78 635.291 1097.62 629.669 1097.62 623.688V560.707H1080.04V622.79C1080.04 625.901 1079.86 628.712 1079.5 631.224C1078.3 635.53 1075.79 638.88 1071.96 641.272C1068.13 643.545 1063.17 644.681 1057.07 644.681C1051.21 644.681 1046.36 643.545 1042.53 641.272C1038.71 638.88 1036.25 635.53 1035.18 631.224C1034.58 628.472 1034.28 625.661 1034.28 622.79V560.707H1016.88V623.688C1016.88 629.669 1017.65 635.291 1019.21 640.554C1020.88 645.818 1024.65 650.543 1030.51 654.729C1036.49 658.916 1045.35 661.009 1057.07 661.009ZM1111.54 659.395H1129.12V620.817C1132.71 621.056 1135.34 621.176 1137.02 621.176C1140.36 621.176 1142.94 621.116 1144.73 620.996L1167.34 659.395H1187.26L1162.49 618.125C1177.09 613.221 1184.39 603.771 1184.39 589.775C1184.39 570.396 1170.87 560.707 1143.83 560.707H1111.54V659.395ZM1142.04 576.497C1149.7 576.497 1155.68 577.454 1159.98 579.368C1164.41 581.162 1166.62 584.751 1166.62 590.134C1166.62 596.354 1164.05 600.481 1158.91 602.515C1153.88 604.429 1146.82 605.386 1137.73 605.386C1134.98 605.386 1132.11 605.206 1129.12 604.847V576.497H1142.04ZM1240.23 559.451C1231.14 559.451 1222.88 561.604 1215.47 565.911C1208.05 570.097 1202.19 576.019 1197.88 583.674C1193.57 591.33 1191.42 600.122 1191.42 610.051C1191.42 620.697 1193.69 629.848 1198.24 637.504C1202.79 645.16 1208.71 650.961 1216 654.909C1223.42 658.737 1231.31 660.651 1239.69 660.651C1249.02 660.651 1257.39 658.497 1264.81 654.191C1272.34 649.765 1278.21 643.664 1282.39 635.889C1286.7 627.994 1288.85 619.082 1288.85 609.154C1288.85 599.225 1286.7 590.493 1282.39 582.957C1278.09 575.421 1272.23 569.619 1264.81 565.552C1257.51 561.485 1249.32 559.451 1240.23 559.451ZM1239.51 575.779C1244.65 575.779 1249.62 576.976 1254.4 579.368C1259.19 581.76 1263.13 585.529 1266.24 590.672C1269.35 595.816 1270.91 602.275 1270.91 610.051C1270.91 617.707 1269.47 624.106 1266.6 629.25C1263.73 634.394 1259.96 638.162 1255.3 640.554C1250.75 642.947 1245.91 644.143 1240.76 644.143C1234.9 644.143 1229.58 642.707 1224.8 639.836C1220.01 636.966 1216.24 632.898 1213.49 627.635C1210.74 622.252 1209.36 616.032 1209.36 608.974C1209.36 601.438 1210.8 595.218 1213.67 590.313C1216.54 585.289 1220.25 581.641 1224.8 579.368C1229.34 576.976 1234.25 575.779 1239.51 575.779ZM1337.21 576.318C1341.39 576.318 1345.4 576.796 1349.23 577.753C1353.18 578.591 1357.42 579.906 1361.97 581.701L1367.71 565.731L1365.74 565.014C1361.55 563.578 1357.24 562.382 1352.82 561.425C1348.39 560.348 1343.01 559.81 1336.67 559.81C1329.25 559.81 1322.73 561.006 1317.11 563.399C1311.49 565.791 1307.18 569.081 1304.19 573.267C1301.2 577.454 1299.71 582.239 1299.71 587.622C1299.71 593.723 1301.26 598.747 1304.37 602.694C1307.48 606.522 1311.25 609.453 1315.68 611.486C1320.1 613.52 1325.72 615.613 1332.54 617.766C1339.72 619.92 1344.92 621.953 1348.15 623.867C1351.38 625.661 1352.94 628.353 1352.82 631.942C1352.82 635.65 1350.85 638.64 1346.9 640.913C1342.95 643.066 1337.75 644.143 1331.29 644.143C1324.23 644.143 1315.26 642.109 1304.37 638.042L1301.68 636.966L1295.76 652.935L1298.09 654.012C1304.31 656.404 1309.76 658.198 1314.42 659.395C1319.09 660.471 1324.23 661.009 1329.85 661.009C1339.42 661.009 1347.26 659.634 1353.36 656.882C1359.58 654.012 1364.06 650.423 1366.81 646.117C1369.57 641.691 1370.94 636.966 1370.94 631.942C1370.94 625.841 1369.33 620.817 1366.1 616.869C1362.87 612.922 1358.98 609.931 1354.43 607.898C1350.01 605.864 1344.33 603.771 1337.39 601.618C1330.57 599.464 1325.55 597.491 1322.32 595.696C1319.21 593.902 1317.65 591.45 1317.65 588.34C1317.65 584.631 1319.38 581.701 1322.85 579.547C1326.32 577.394 1331.11 576.318 1337.21 576.318Z" fill="#2092E3"/>
<rect width="1920" height="1080" fill="url(#paint0_linear_1046_404)"/>
</g>
<defs>
<linearGradient id="paint0_linear_1046_404" x1="960" y1="0" x2="960" y2="1080" gradientUnits="userSpaceOnUse">
<stop stop-opacity="0.69"/>
<stop offset="1" stop-opacity="0.91"/>
</linearGradient>
<clipPath id="clip0_1046_404">
<rect width="1920" height="1080" fill="white"/>
</clipPath>
</defs>
</svg>
