<svg width="1920" height="35" viewBox="0 0 1920 35" fill="none" xmlns="http://www.w3.org/2000/svg">
<g clip-path="url(#clip0_997_185)">
<path d="M178.586 40.2949L178.516 19.3072L176.253 40.1726L178.377 19.2926L173.945 39.8071L178.24 19.2634L171.687 39.2022L178.106 19.2201L169.506 38.3648L177.978 19.163L167.424 37.3039L177.857 19.0929L165.464 36.0312L177.743 19.0105L163.648 34.5605L177.639 18.9167L161.995 32.9081L177.545 18.8125L160.525 31.0921L177.463 18.6991L159.252 29.1322L177.393 18.5777L158.191 27.0501L177.336 18.4496L157.354 24.8685L177.292 18.3162L156.749 22.6112L177.263 18.1791L156.383 20.3032L177.249 18.0396L156.261 17.9695L177.249 17.8994L156.383 15.6359L177.263 17.76L156.749 13.3278L177.292 17.6228L157.354 11.0706L177.336 17.4895L158.191 8.88897L177.393 17.3614L159.252 6.80682L177.463 17.24L160.525 4.84698L177.545 17.1265L161.995 3.03092L177.639 17.0223L163.648 1.37852L177.743 16.9285L165.464 -0.0921021L177.857 16.8461L167.424 -1.36484L177.978 16.776L169.506 -2.42574L178.106 16.719L171.687 -3.26319L178.24 16.6756L173.945 -3.86801L178.377 16.6465L176.253 -4.23357L178.516 16.6318L178.586 -4.35587L178.656 16.6318L180.92 -4.23357L178.796 16.6465L183.228 -3.86801L178.933 16.6756L185.485 -3.26319L179.066 16.719L187.667 -2.42574L179.194 16.776L189.749 -1.36484L179.316 16.8461L191.709 -0.0921021L179.429 16.9285L193.525 1.37852L179.533 17.0223L195.177 3.03092L179.627 17.1265L196.648 4.84698L179.71 17.24L197.921 6.80682L179.78 17.3614L198.981 8.88897L179.837 17.4895L199.819 11.0706L179.88 17.6228L200.424 13.3278L179.909 17.76L200.789 15.6359L179.924 17.8994L200.912 17.9695L179.924 18.0396L200.789 20.3032L179.909 18.1791L200.424 22.6112L179.88 18.3162L199.819 24.8685L179.837 18.4496L198.981 27.0501L179.78 18.5777L197.921 29.1322L179.71 18.6991L196.648 31.0921L179.627 18.8125L195.177 32.9081L179.533 18.9167L193.525 34.5605L179.429 19.0105L191.709 36.0312L179.316 19.0929L189.749 37.3039L179.194 19.163L187.667 38.3648L179.066 19.2201L185.485 39.2022L178.933 19.2634L183.228 39.8071L178.796 19.2926L180.92 40.1726L178.656 19.3072L178.586 40.2949Z" fill="white"/>
<path d="M177.44 40.2674L178.448 19.3038L175.116 40.0254L178.31 19.282L172.83 39.5418L178.174 19.2458L170.607 38.8218L178.043 19.1957L168.471 37.8734L177.918 19.1322L166.446 36.707L177.801 19.0559L164.554 35.3353L177.692 18.9678L162.816 33.7733L177.592 18.8688L161.251 32.0382L177.504 18.7599L159.875 30.149L177.428 18.6424L158.705 28.1264L177.364 18.5175L157.752 25.9925L177.314 18.3866L157.028 23.7708L177.277 18.2513L156.54 21.4855L177.255 18.1128L156.293 19.1616L177.248 17.9728L156.291 16.8248L177.255 17.8328L156.533 14.5005L177.277 17.6942L157.017 12.2143L177.313 17.5588L157.737 9.99111L177.363 17.4278L158.685 7.85537L177.426 17.3028L159.852 5.83046L177.503 17.1852L161.223 3.93858L177.591 17.0761L162.785 2.20045L177.69 16.9769L164.52 0.635099L177.799 16.8885L166.41 -0.740308L177.916 16.8121L168.432 -1.9107L178.041 16.7483L170.566 -2.86327L178.172 16.6979L172.788 -3.58756L178.307 16.6615L175.073 -4.07565L178.446 16.6394L177.397 -4.32218L178.586 16.6319L179.734 -4.32446L178.726 16.6391L182.058 -4.08246L178.864 16.6609L184.344 -3.59884L179 16.6971L186.567 -2.87888L179.131 16.7472L188.703 -1.93049L179.256 16.8108L190.728 -0.764042L179.373 16.887L192.62 0.607674L179.482 16.9751L194.358 2.16963L179.582 17.0742L195.923 3.90472L179.67 17.1831L197.299 5.79392L179.746 17.3006L198.469 7.81654L179.81 17.4254L199.422 9.95043L179.861 17.5563L200.146 12.1722L179.897 17.6917L200.634 14.4575L179.919 17.8302L200.881 16.7813L179.927 17.9702L200.883 19.1181L179.919 18.1102L200.641 21.4424L179.898 18.2487L200.157 23.7287L179.861 18.3842L199.437 25.9518L179.811 18.5151L198.489 28.0876L179.748 18.6401L197.323 30.1125L179.672 18.7578L195.951 32.0044L179.583 18.8668L194.389 33.7425L179.484 18.9661L192.654 35.3078L179.375 19.0544L190.765 36.6832L179.258 19.1309L188.742 37.8536L179.133 19.1947L186.608 38.8062L179.002 19.245L184.386 39.5305L178.867 19.2814L182.101 40.0186L178.728 19.3035L179.777 40.2651L178.588 19.311L177.44 40.2674Z" fill="white"/>
<path d="M176.843 40.2278L178.412 19.2987L174.526 39.9237L178.274 19.2732L172.254 39.3791L178.14 19.2334L170.051 38.5999L178.01 19.1798L167.941 37.5947L177.887 19.113L165.948 36.3745L177.771 19.0336L164.094 34.9527L177.664 18.9426L162.398 33.3447L177.568 18.8409L160.88 31.5684L177.483 18.7297L159.555 29.6431L177.409 18.6102L158.439 27.5899L177.349 18.4837L157.544 25.4312L177.302 18.3515L156.88 23.1909L177.269 18.2152L156.453 20.8934L177.251 18.0762L156.269 18.5638L177.247 17.936L156.329 16.2277L177.258 17.7963L156.633 13.9108L177.284 17.6584L157.178 11.6383L177.323 17.5239L157.957 9.43515L177.377 17.3944L158.962 7.32555L177.444 17.2711L160.182 5.33259L177.523 17.1555L161.604 3.47809L177.614 17.0489L163.212 1.78237L177.716 16.9523L164.988 0.26401L177.827 16.8669L166.914 -1.06035L177.947 16.7936L168.967 -2.17621L178.073 16.7332L171.126 -3.07133L178.205 16.6864L173.366 -3.73591L178.342 16.6536L175.663 -4.16267L178.481 16.6352L177.993 -4.34694L178.621 16.6315L180.329 -4.28668L178.761 16.6424L182.646 -3.98258L178.898 16.6679L184.919 -3.43795L179.033 16.7077L187.122 -2.65876L179.162 16.7613L189.231 -1.65356L179.286 16.8282L191.224 -0.433346L179.401 16.9075L193.079 0.988503L179.508 16.9986L194.774 2.59641L179.604 17.1002L196.293 4.37276L179.69 17.2114L197.617 6.29809L179.763 17.331L198.733 8.35131L179.824 17.4575L199.628 10.5099L179.87 17.5896L200.293 12.7503L179.903 17.726L200.719 15.0478L179.922 17.865L200.904 17.3774L179.925 18.0051L200.843 19.7134L179.914 18.1449L200.539 22.0304L179.889 18.2828L199.995 24.3029L179.849 18.4172L199.216 26.506L179.795 18.5468L198.21 28.6156L179.729 18.67L196.99 30.6086L179.649 18.7856L195.568 32.4631L179.558 18.8923L193.96 34.1588L179.457 18.9888L192.184 35.6772L179.345 19.0742L190.259 37.0015L179.226 19.1475L188.205 38.1174L179.099 19.2079L186.047 39.0125L178.967 19.2548L183.806 39.6771L178.831 19.2876L181.509 40.1038L178.692 19.3059L179.179 40.2881L178.552 19.3097L176.843 40.2278Z" fill="white"/>
<g filter="url(#filter0_b_997_185)">
<rect x="179.211" y="16.0488" width="3.94002" height="33.3387" transform="rotate(90 179.211 16.0488)" fill="white" fill-opacity="0.1"/>
</g>
<path d="M427.586 40.2949L427.516 19.3072L425.253 40.1726L427.377 19.2926L422.945 39.8071L427.24 19.2634L420.687 39.2022L427.106 19.2201L418.506 38.3648L426.978 19.163L416.424 37.3039L426.857 19.0929L414.464 36.0312L426.743 19.0105L412.648 34.5605L426.639 18.9167L410.995 32.9081L426.545 18.8125L409.525 31.0921L426.463 18.6991L408.252 29.1322L426.393 18.5777L407.191 27.0501L426.336 18.4496L406.354 24.8685L426.292 18.3162L405.749 22.6112L426.263 18.1791L405.383 20.3032L426.249 18.0396L405.261 17.9695L426.249 17.8994L405.383 15.6359L426.263 17.76L405.749 13.3278L426.292 17.6228L406.354 11.0706L426.336 17.4895L407.191 8.88897L426.393 17.3614L408.252 6.80682L426.463 17.24L409.525 4.84698L426.545 17.1265L410.995 3.03092L426.639 17.0223L412.648 1.37852L426.743 16.9285L414.464 -0.0921021L426.857 16.8461L416.424 -1.36484L426.978 16.776L418.506 -2.42574L427.106 16.719L420.687 -3.26319L427.24 16.6756L422.945 -3.86801L427.377 16.6465L425.253 -4.23357L427.516 16.6318L427.586 -4.35587L427.656 16.6318L429.92 -4.23357L427.796 16.6465L432.228 -3.86801L427.933 16.6756L434.485 -3.26319L428.066 16.719L436.667 -2.42574L428.194 16.776L438.749 -1.36484L428.316 16.8461L440.709 -0.0921021L428.429 16.9285L442.525 1.37852L428.533 17.0223L444.177 3.03092L428.627 17.1265L445.648 4.84698L428.71 17.24L446.921 6.80682L428.78 17.3614L447.981 8.88897L428.837 17.4895L448.819 11.0706L428.88 17.6228L449.424 13.3278L428.909 17.76L449.789 15.6359L428.924 17.8994L449.912 17.9695L428.924 18.0396L449.789 20.3032L428.909 18.1791L449.424 22.6112L428.88 18.3162L448.819 24.8685L428.837 18.4496L447.981 27.0501L428.78 18.5777L446.921 29.1322L428.71 18.6991L445.648 31.0921L428.627 18.8125L444.177 32.9081L428.533 18.9167L442.525 34.5605L428.429 19.0105L440.709 36.0312L428.316 19.0929L438.749 37.3039L428.194 19.163L436.667 38.3648L428.066 19.2201L434.485 39.2022L427.933 19.2634L432.228 39.8071L427.796 19.2926L429.92 40.1726L427.656 19.3072L427.586 40.2949Z" fill="white"/>
<path d="M426.44 40.2674L427.448 19.3038L424.116 40.0254L427.31 19.282L421.83 39.5418L427.174 19.2458L419.607 38.8218L427.043 19.1957L417.471 37.8734L426.918 19.1322L415.446 36.707L426.801 19.0559L413.554 35.3353L426.692 18.9678L411.816 33.7733L426.592 18.8688L410.251 32.0382L426.504 18.7599L408.875 30.149L426.428 18.6424L407.705 28.1264L426.364 18.5175L406.752 25.9925L426.314 18.3866L406.028 23.7708L426.277 18.2513L405.54 21.4855L426.255 18.1128L405.293 19.1616L426.248 17.9728L405.291 16.8248L426.255 17.8328L405.533 14.5005L426.277 17.6942L406.017 12.2143L426.313 17.5588L406.737 9.99111L426.363 17.4278L407.685 7.85537L426.426 17.3028L408.852 5.83046L426.503 17.1852L410.223 3.93858L426.591 17.0761L411.785 2.20045L426.69 16.9769L413.52 0.635099L426.799 16.8885L415.41 -0.740308L426.916 16.8121L417.432 -1.9107L427.041 16.7483L419.566 -2.86327L427.172 16.6979L421.788 -3.58756L427.307 16.6615L424.073 -4.07565L427.446 16.6394L426.397 -4.32218L427.586 16.6319L428.734 -4.32446L427.726 16.6391L431.058 -4.08246L427.864 16.6609L433.344 -3.59884L428 16.6971L435.567 -2.87888L428.131 16.7472L437.703 -1.93049L428.256 16.8108L439.728 -0.764042L428.373 16.887L441.62 0.607674L428.482 16.9751L443.358 2.16963L428.582 17.0742L444.923 3.90472L428.67 17.1831L446.299 5.79392L428.746 17.3006L447.469 7.81654L428.81 17.4254L448.422 9.95043L428.861 17.5563L449.146 12.1722L428.897 17.6917L449.634 14.4575L428.919 17.8302L449.881 16.7813L428.927 17.9702L449.883 19.1181L428.919 18.1102L449.641 21.4424L428.898 18.2487L449.157 23.7287L428.861 18.3842L448.437 25.9518L428.811 18.5151L447.489 28.0876L428.748 18.6401L446.323 30.1125L428.672 18.7578L444.951 32.0044L428.583 18.8668L443.389 33.7425L428.484 18.9661L441.654 35.3078L428.375 19.0544L439.765 36.6832L428.258 19.1309L437.742 37.8536L428.133 19.1947L435.608 38.8062L428.002 19.245L433.386 39.5305L427.867 19.2814L431.101 40.0186L427.728 19.3035L428.777 40.2651L427.588 19.311L426.44 40.2674Z" fill="white"/>
<path d="M425.843 40.2278L427.412 19.2987L423.526 39.9237L427.274 19.2732L421.254 39.3791L427.14 19.2334L419.051 38.5999L427.01 19.1798L416.941 37.5947L426.887 19.113L414.948 36.3745L426.771 19.0336L413.094 34.9527L426.664 18.9426L411.398 33.3447L426.568 18.8409L409.88 31.5684L426.483 18.7297L408.555 29.6431L426.409 18.6102L407.439 27.5899L426.349 18.4837L406.544 25.4312L426.302 18.3515L405.88 23.1909L426.269 18.2152L405.453 20.8934L426.251 18.0762L405.269 18.5638L426.247 17.936L405.329 16.2277L426.258 17.7963L405.633 13.9108L426.284 17.6584L406.178 11.6383L426.323 17.5239L406.957 9.43515L426.377 17.3944L407.962 7.32555L426.444 17.2711L409.182 5.33259L426.523 17.1555L410.604 3.47809L426.614 17.0489L412.212 1.78237L426.716 16.9523L413.988 0.26401L426.827 16.8669L415.914 -1.06035L426.947 16.7936L417.967 -2.17621L427.073 16.7332L420.126 -3.07133L427.205 16.6864L422.366 -3.73591L427.342 16.6536L424.663 -4.16267L427.481 16.6352L426.993 -4.34694L427.621 16.6315L429.329 -4.28668L427.761 16.6424L431.646 -3.98258L427.898 16.6679L433.919 -3.43795L428.033 16.7077L436.122 -2.65876L428.162 16.7613L438.231 -1.65356L428.286 16.8282L440.224 -0.433346L428.401 16.9075L442.079 0.988503L428.508 16.9986L443.774 2.59641L428.604 17.1002L445.293 4.37276L428.69 17.2114L446.617 6.29809L428.763 17.331L447.733 8.35131L428.824 17.4575L448.628 10.5099L428.87 17.5896L449.293 12.7503L428.903 17.726L449.719 15.0478L428.922 17.865L449.904 17.3774L428.925 18.0051L449.843 19.7134L428.914 18.1449L449.539 22.0304L428.889 18.2828L448.995 24.3029L428.849 18.4172L448.216 26.506L428.795 18.5468L447.21 28.6156L428.729 18.67L445.99 30.6086L428.649 18.7856L444.568 32.4631L428.558 18.8923L442.96 34.1588L428.457 18.9888L441.184 35.6772L428.345 19.0742L439.259 37.0015L428.226 19.1475L437.205 38.1174L428.099 19.2079L435.047 39.0125L427.967 19.2548L432.806 39.6771L427.831 19.2876L430.509 40.1038L427.692 19.3059L428.179 40.2881L427.552 19.3097L425.843 40.2278Z" fill="white"/>
<g filter="url(#filter1_b_997_185)">
<rect x="428.211" y="16.0488" width="3.94002" height="33.3387" transform="rotate(90 428.211 16.0488)" fill="white" fill-opacity="0.1"/>
</g>
<path d="M676.586 40.2949L676.516 19.3072L674.253 40.1726L676.377 19.2926L671.945 39.8071L676.24 19.2634L669.687 39.2022L676.106 19.2201L667.506 38.3648L675.978 19.163L665.424 37.3039L675.857 19.0929L663.464 36.0312L675.743 19.0105L661.648 34.5605L675.639 18.9167L659.995 32.9081L675.545 18.8125L658.525 31.0921L675.463 18.6991L657.252 29.1322L675.393 18.5777L656.191 27.0501L675.336 18.4496L655.354 24.8685L675.292 18.3162L654.749 22.6112L675.263 18.1791L654.383 20.3032L675.249 18.0396L654.261 17.9695L675.249 17.8994L654.383 15.6359L675.263 17.76L654.749 13.3278L675.292 17.6228L655.354 11.0706L675.336 17.4895L656.191 8.88897L675.393 17.3614L657.252 6.80682L675.463 17.24L658.525 4.84698L675.545 17.1265L659.995 3.03092L675.639 17.0223L661.648 1.37852L675.743 16.9285L663.464 -0.0921021L675.857 16.8461L665.424 -1.36484L675.978 16.776L667.506 -2.42574L676.106 16.719L669.687 -3.26319L676.24 16.6756L671.945 -3.86801L676.377 16.6465L674.253 -4.23357L676.516 16.6318L676.586 -4.35587L676.656 16.6318L678.92 -4.23357L676.796 16.6465L681.228 -3.86801L676.933 16.6756L683.485 -3.26319L677.066 16.719L685.667 -2.42574L677.194 16.776L687.749 -1.36484L677.316 16.8461L689.709 -0.0921021L677.429 16.9285L691.525 1.37852L677.533 17.0223L693.177 3.03092L677.627 17.1265L694.648 4.84698L677.71 17.24L695.921 6.80682L677.78 17.3614L696.981 8.88897L677.837 17.4895L697.819 11.0706L677.88 17.6228L698.424 13.3278L677.909 17.76L698.789 15.6359L677.924 17.8994L698.912 17.9695L677.924 18.0396L698.789 20.3032L677.909 18.1791L698.424 22.6112L677.88 18.3162L697.819 24.8685L677.837 18.4496L696.981 27.0501L677.78 18.5777L695.921 29.1322L677.71 18.6991L694.648 31.0921L677.627 18.8125L693.177 32.9081L677.533 18.9167L691.525 34.5605L677.429 19.0105L689.709 36.0312L677.316 19.0929L687.749 37.3039L677.194 19.163L685.667 38.3648L677.066 19.2201L683.485 39.2022L676.933 19.2634L681.228 39.8071L676.796 19.2926L678.92 40.1726L676.656 19.3072L676.586 40.2949Z" fill="white"/>
<path d="M675.44 40.2674L676.448 19.3038L673.116 40.0254L676.31 19.282L670.83 39.5418L676.174 19.2458L668.607 38.8218L676.043 19.1957L666.471 37.8734L675.918 19.1322L664.446 36.707L675.801 19.0559L662.554 35.3353L675.692 18.9678L660.816 33.7733L675.592 18.8688L659.251 32.0382L675.504 18.7599L657.875 30.149L675.428 18.6424L656.705 28.1264L675.364 18.5175L655.752 25.9925L675.314 18.3866L655.028 23.7708L675.277 18.2513L654.54 21.4855L675.255 18.1128L654.293 19.1616L675.248 17.9728L654.291 16.8248L675.255 17.8328L654.533 14.5005L675.277 17.6942L655.017 12.2143L675.313 17.5588L655.737 9.99111L675.363 17.4278L656.685 7.85537L675.426 17.3028L657.852 5.83046L675.503 17.1852L659.223 3.93858L675.591 17.0761L660.785 2.20045L675.69 16.9769L662.52 0.635099L675.799 16.8885L664.41 -0.740308L675.916 16.8121L666.432 -1.9107L676.041 16.7483L668.566 -2.86327L676.172 16.6979L670.788 -3.58756L676.307 16.6615L673.073 -4.07565L676.446 16.6394L675.397 -4.32218L676.586 16.6319L677.734 -4.32446L676.726 16.6391L680.058 -4.08246L676.864 16.6609L682.344 -3.59884L677 16.6971L684.567 -2.87888L677.131 16.7472L686.703 -1.93049L677.256 16.8108L688.728 -0.764042L677.373 16.887L690.62 0.607674L677.482 16.9751L692.358 2.16963L677.582 17.0742L693.923 3.90472L677.67 17.1831L695.299 5.79392L677.746 17.3006L696.469 7.81654L677.81 17.4254L697.422 9.95043L677.861 17.5563L698.146 12.1722L677.897 17.6917L698.634 14.4575L677.919 17.8302L698.881 16.7813L677.927 17.9702L698.883 19.1181L677.919 18.1102L698.641 21.4424L677.898 18.2487L698.157 23.7287L677.861 18.3842L697.437 25.9518L677.811 18.5151L696.489 28.0876L677.748 18.6401L695.323 30.1125L677.672 18.7578L693.951 32.0044L677.583 18.8668L692.389 33.7425L677.484 18.9661L690.654 35.3078L677.375 19.0544L688.765 36.6832L677.258 19.1309L686.742 37.8536L677.133 19.1947L684.608 38.8062L677.002 19.245L682.386 39.5305L676.867 19.2814L680.101 40.0186L676.728 19.3035L677.777 40.2651L676.588 19.311L675.44 40.2674Z" fill="white"/>
<path d="M674.843 40.2278L676.412 19.2987L672.526 39.9237L676.274 19.2732L670.254 39.3791L676.14 19.2334L668.051 38.5999L676.01 19.1798L665.941 37.5947L675.887 19.113L663.948 36.3745L675.771 19.0336L662.094 34.9527L675.664 18.9426L660.398 33.3447L675.568 18.8409L658.88 31.5684L675.483 18.7297L657.555 29.6431L675.409 18.6102L656.439 27.5899L675.349 18.4837L655.544 25.4312L675.302 18.3515L654.88 23.1909L675.269 18.2152L654.453 20.8934L675.251 18.0762L654.269 18.5638L675.247 17.936L654.329 16.2277L675.258 17.7963L654.633 13.9108L675.284 17.6584L655.178 11.6383L675.323 17.5239L655.957 9.43515L675.377 17.3944L656.962 7.32555L675.444 17.2711L658.182 5.33259L675.523 17.1555L659.604 3.47809L675.614 17.0489L661.212 1.78237L675.716 16.9523L662.988 0.26401L675.827 16.8669L664.914 -1.06035L675.947 16.7936L666.967 -2.17621L676.073 16.7332L669.126 -3.07133L676.205 16.6864L671.366 -3.73591L676.342 16.6536L673.663 -4.16267L676.481 16.6352L675.993 -4.34694L676.621 16.6315L678.329 -4.28668L676.761 16.6424L680.646 -3.98258L676.898 16.6679L682.919 -3.43795L677.033 16.7077L685.122 -2.65876L677.162 16.7613L687.231 -1.65356L677.286 16.8282L689.224 -0.433346L677.401 16.9075L691.079 0.988503L677.508 16.9986L692.774 2.59641L677.604 17.1002L694.293 4.37276L677.69 17.2114L695.617 6.29809L677.763 17.331L696.733 8.35131L677.824 17.4575L697.628 10.5099L677.87 17.5896L698.293 12.7503L677.903 17.726L698.719 15.0478L677.922 17.865L698.904 17.3774L677.925 18.0051L698.843 19.7134L677.914 18.1449L698.539 22.0304L677.889 18.2828L697.995 24.3029L677.849 18.4172L697.216 26.506L677.795 18.5468L696.21 28.6156L677.729 18.67L694.99 30.6086L677.649 18.7856L693.568 32.4631L677.558 18.8923L691.96 34.1588L677.457 18.9888L690.184 35.6772L677.345 19.0742L688.259 37.0015L677.226 19.1475L686.205 38.1174L677.099 19.2079L684.047 39.0125L676.967 19.2548L681.806 39.6771L676.831 19.2876L679.509 40.1038L676.692 19.3059L677.179 40.2881L676.552 19.3097L674.843 40.2278Z" fill="white"/>
<g filter="url(#filter2_b_997_185)">
<rect x="677.211" y="16.0488" width="3.94002" height="33.3387" transform="rotate(90 677.211 16.0488)" fill="white" fill-opacity="0.1"/>
</g>
<path d="M925.586 40.2949L925.516 19.3072L923.253 40.1726L925.377 19.2926L920.945 39.8071L925.24 19.2634L918.687 39.2022L925.106 19.2201L916.506 38.3648L924.978 19.163L914.424 37.3039L924.857 19.0929L912.464 36.0312L924.743 19.0105L910.648 34.5605L924.639 18.9167L908.995 32.9081L924.545 18.8125L907.525 31.0921L924.463 18.6991L906.252 29.1322L924.393 18.5777L905.191 27.0501L924.336 18.4496L904.354 24.8685L924.292 18.3162L903.749 22.6112L924.263 18.1791L903.383 20.3032L924.249 18.0396L903.261 17.9695L924.249 17.8994L903.383 15.6359L924.263 17.76L903.749 13.3278L924.292 17.6228L904.354 11.0706L924.336 17.4895L905.191 8.88897L924.393 17.3614L906.252 6.80682L924.463 17.24L907.525 4.84698L924.545 17.1265L908.995 3.03092L924.639 17.0223L910.648 1.37852L924.743 16.9285L912.464 -0.0921021L924.857 16.8461L914.424 -1.36484L924.978 16.776L916.506 -2.42574L925.106 16.719L918.687 -3.26319L925.24 16.6756L920.945 -3.86801L925.377 16.6465L923.253 -4.23357L925.516 16.6318L925.586 -4.35587L925.656 16.6318L927.92 -4.23357L925.796 16.6465L930.228 -3.86801L925.933 16.6756L932.485 -3.26319L926.066 16.719L934.667 -2.42574L926.194 16.776L936.749 -1.36484L926.316 16.8461L938.709 -0.0921021L926.429 16.9285L940.525 1.37852L926.533 17.0223L942.177 3.03092L926.627 17.1265L943.648 4.84698L926.71 17.24L944.921 6.80682L926.78 17.3614L945.981 8.88897L926.837 17.4895L946.819 11.0706L926.88 17.6228L947.424 13.3278L926.909 17.76L947.789 15.6359L926.924 17.8994L947.912 17.9695L926.924 18.0396L947.789 20.3032L926.909 18.1791L947.424 22.6112L926.88 18.3162L946.819 24.8685L926.837 18.4496L945.981 27.0501L926.78 18.5777L944.921 29.1322L926.71 18.6991L943.648 31.0921L926.627 18.8125L942.177 32.9081L926.533 18.9167L940.525 34.5605L926.429 19.0105L938.709 36.0312L926.316 19.0929L936.749 37.3039L926.194 19.163L934.667 38.3648L926.066 19.2201L932.485 39.2022L925.933 19.2634L930.228 39.8071L925.796 19.2926L927.92 40.1726L925.656 19.3072L925.586 40.2949Z" fill="white"/>
<path d="M924.44 40.2674L925.448 19.3038L922.116 40.0254L925.31 19.282L919.83 39.5418L925.174 19.2458L917.607 38.8218L925.043 19.1957L915.471 37.8734L924.918 19.1322L913.446 36.707L924.801 19.0559L911.554 35.3353L924.692 18.9678L909.816 33.7733L924.592 18.8688L908.251 32.0382L924.504 18.7599L906.875 30.149L924.428 18.6424L905.705 28.1264L924.364 18.5175L904.752 25.9925L924.314 18.3866L904.028 23.7708L924.277 18.2513L903.54 21.4855L924.255 18.1128L903.293 19.1616L924.248 17.9728L903.291 16.8248L924.255 17.8328L903.533 14.5005L924.277 17.6942L904.017 12.2143L924.313 17.5588L904.737 9.99111L924.363 17.4278L905.685 7.85537L924.426 17.3028L906.852 5.83046L924.503 17.1852L908.223 3.93858L924.591 17.0761L909.785 2.20045L924.69 16.9769L911.52 0.635099L924.799 16.8885L913.41 -0.740308L924.916 16.8121L915.432 -1.9107L925.041 16.7483L917.566 -2.86327L925.172 16.6979L919.788 -3.58756L925.307 16.6615L922.073 -4.07565L925.446 16.6394L924.397 -4.32218L925.586 16.6319L926.734 -4.32446L925.726 16.6391L929.058 -4.08246L925.864 16.6609L931.344 -3.59884L926 16.6971L933.567 -2.87888L926.131 16.7472L935.703 -1.93049L926.256 16.8108L937.728 -0.764042L926.373 16.887L939.62 0.607674L926.482 16.9751L941.358 2.16963L926.582 17.0742L942.923 3.90472L926.67 17.1831L944.299 5.79392L926.746 17.3006L945.469 7.81654L926.81 17.4254L946.422 9.95043L926.861 17.5563L947.146 12.1722L926.897 17.6917L947.634 14.4575L926.919 17.8302L947.881 16.7813L926.927 17.9702L947.883 19.1181L926.919 18.1102L947.641 21.4424L926.898 18.2487L947.157 23.7287L926.861 18.3842L946.437 25.9518L926.811 18.5151L945.489 28.0876L926.748 18.6401L944.323 30.1125L926.672 18.7578L942.951 32.0044L926.583 18.8668L941.389 33.7425L926.484 18.9661L939.654 35.3078L926.375 19.0544L937.765 36.6832L926.258 19.1309L935.742 37.8536L926.133 19.1947L933.608 38.8062L926.002 19.245L931.386 39.5305L925.867 19.2814L929.101 40.0186L925.728 19.3035L926.777 40.2651L925.588 19.311L924.44 40.2674Z" fill="white"/>
<path d="M923.843 40.2278L925.412 19.2987L921.526 39.9237L925.274 19.2732L919.254 39.3791L925.14 19.2334L917.051 38.5999L925.01 19.1798L914.941 37.5947L924.887 19.113L912.948 36.3745L924.771 19.0336L911.094 34.9527L924.664 18.9426L909.398 33.3447L924.568 18.8409L907.88 31.5684L924.483 18.7297L906.555 29.6431L924.409 18.6102L905.439 27.5899L924.349 18.4837L904.544 25.4312L924.302 18.3515L903.88 23.1909L924.269 18.2152L903.453 20.8934L924.251 18.0762L903.269 18.5638L924.247 17.936L903.329 16.2277L924.258 17.7963L903.633 13.9108L924.284 17.6584L904.178 11.6383L924.323 17.5239L904.957 9.43515L924.377 17.3944L905.962 7.32555L924.444 17.2711L907.182 5.33259L924.523 17.1555L908.604 3.47809L924.614 17.0489L910.212 1.78237L924.716 16.9523L911.988 0.26401L924.827 16.8669L913.914 -1.06035L924.947 16.7936L915.967 -2.17621L925.073 16.7332L918.126 -3.07133L925.205 16.6864L920.366 -3.73591L925.342 16.6536L922.663 -4.16267L925.481 16.6352L924.993 -4.34694L925.621 16.6315L927.329 -4.28668L925.761 16.6424L929.646 -3.98258L925.898 16.6679L931.919 -3.43795L926.033 16.7077L934.122 -2.65876L926.162 16.7613L936.231 -1.65356L926.286 16.8282L938.224 -0.433346L926.401 16.9075L940.079 0.988503L926.508 16.9986L941.774 2.59641L926.604 17.1002L943.293 4.37276L926.69 17.2114L944.617 6.29809L926.763 17.331L945.733 8.35131L926.824 17.4575L946.628 10.5099L926.87 17.5896L947.293 12.7503L926.903 17.726L947.719 15.0478L926.922 17.865L947.904 17.3774L926.925 18.0051L947.843 19.7134L926.914 18.1449L947.539 22.0304L926.889 18.2828L946.995 24.3029L926.849 18.4172L946.216 26.506L926.795 18.5468L945.21 28.6156L926.729 18.67L943.99 30.6086L926.649 18.7856L942.568 32.4631L926.558 18.8923L940.96 34.1588L926.457 18.9888L939.184 35.6772L926.345 19.0742L937.259 37.0015L926.226 19.1475L935.205 38.1174L926.099 19.2079L933.047 39.0125L925.967 19.2548L930.806 39.6771L925.831 19.2876L928.509 40.1038L925.692 19.3059L926.179 40.2881L925.552 19.3097L923.843 40.2278Z" fill="white"/>
<g filter="url(#filter3_b_997_185)">
<rect x="926.211" y="16.0488" width="3.94002" height="33.3387" transform="rotate(90 926.211 16.0488)" fill="white" fill-opacity="0.1"/>
</g>
<path d="M1174.59 40.2949L1174.52 19.3072L1172.25 40.1726L1174.38 19.2926L1169.94 39.8071L1174.24 19.2634L1167.69 39.2022L1174.11 19.2201L1165.51 38.3648L1173.98 19.163L1163.42 37.3039L1173.86 19.0929L1161.46 36.0312L1173.74 19.0105L1159.65 34.5605L1173.64 18.9167L1158 32.9081L1173.55 18.8125L1156.53 31.0921L1173.46 18.6991L1155.25 29.1322L1173.39 18.5777L1154.19 27.0501L1173.34 18.4496L1153.35 24.8685L1173.29 18.3162L1152.75 22.6112L1173.26 18.1791L1152.38 20.3032L1173.25 18.0396L1152.26 17.9695L1173.25 17.8994L1152.38 15.6359L1173.26 17.76L1152.75 13.3278L1173.29 17.6228L1153.35 11.0706L1173.34 17.4895L1154.19 8.88897L1173.39 17.3614L1155.25 6.80682L1173.46 17.24L1156.53 4.84698L1173.55 17.1265L1158 3.03092L1173.64 17.0223L1159.65 1.37852L1173.74 16.9285L1161.46 -0.0921021L1173.86 16.8461L1163.42 -1.36484L1173.98 16.776L1165.51 -2.42574L1174.11 16.719L1167.69 -3.26319L1174.24 16.6756L1169.94 -3.86801L1174.38 16.6465L1172.25 -4.23357L1174.52 16.6318L1174.59 -4.35587L1174.66 16.6318L1176.92 -4.23357L1174.8 16.6465L1179.23 -3.86801L1174.93 16.6756L1181.49 -3.26319L1175.07 16.719L1183.67 -2.42574L1175.19 16.776L1185.75 -1.36484L1175.32 16.8461L1187.71 -0.0921021L1175.43 16.9285L1189.53 1.37852L1175.53 17.0223L1191.18 3.03092L1175.63 17.1265L1192.65 4.84698L1175.71 17.24L1193.92 6.80682L1175.78 17.3614L1194.98 8.88897L1175.84 17.4895L1195.82 11.0706L1175.88 17.6228L1196.42 13.3278L1175.91 17.76L1196.79 15.6359L1175.92 17.8994L1196.91 17.9695L1175.92 18.0396L1196.79 20.3032L1175.91 18.1791L1196.42 22.6112L1175.88 18.3162L1195.82 24.8685L1175.84 18.4496L1194.98 27.0501L1175.78 18.5777L1193.92 29.1322L1175.71 18.6991L1192.65 31.0921L1175.63 18.8125L1191.18 32.9081L1175.53 18.9167L1189.53 34.5605L1175.43 19.0105L1187.71 36.0312L1175.32 19.0929L1185.75 37.3039L1175.19 19.163L1183.67 38.3648L1175.07 19.2201L1181.49 39.2022L1174.93 19.2634L1179.23 39.8071L1174.8 19.2926L1176.92 40.1726L1174.66 19.3072L1174.59 40.2949Z" fill="white"/>
<path d="M1173.44 40.2674L1174.45 19.3038L1171.12 40.0254L1174.31 19.282L1168.83 39.5418L1174.17 19.2458L1166.61 38.8218L1174.04 19.1957L1164.47 37.8734L1173.92 19.1322L1162.45 36.707L1173.8 19.0559L1160.55 35.3353L1173.69 18.9678L1158.82 33.7733L1173.59 18.8688L1157.25 32.0382L1173.5 18.7599L1155.88 30.149L1173.43 18.6424L1154.71 28.1264L1173.36 18.5175L1153.75 25.9925L1173.31 18.3866L1153.03 23.7708L1173.28 18.2513L1152.54 21.4855L1173.26 18.1128L1152.29 19.1616L1173.25 17.9728L1152.29 16.8248L1173.26 17.8328L1152.53 14.5005L1173.28 17.6942L1153.02 12.2143L1173.31 17.5588L1153.74 9.99111L1173.36 17.4278L1154.69 7.85537L1173.43 17.3028L1155.85 5.83046L1173.5 17.1852L1157.22 3.93858L1173.59 17.0761L1158.79 2.20045L1173.69 16.9769L1160.52 0.635099L1173.8 16.8885L1162.41 -0.740308L1173.92 16.8121L1164.43 -1.9107L1174.04 16.7483L1166.57 -2.86327L1174.17 16.6979L1168.79 -3.58756L1174.31 16.6615L1171.07 -4.07565L1174.45 16.6394L1173.4 -4.32218L1174.59 16.6319L1175.73 -4.32446L1174.73 16.6391L1178.06 -4.08246L1174.86 16.6609L1180.34 -3.59884L1175 16.6971L1182.57 -2.87888L1175.13 16.7472L1184.7 -1.93049L1175.26 16.8108L1186.73 -0.764042L1175.37 16.887L1188.62 0.607674L1175.48 16.9751L1190.36 2.16963L1175.58 17.0742L1191.92 3.90472L1175.67 17.1831L1193.3 5.79392L1175.75 17.3006L1194.47 7.81654L1175.81 17.4254L1195.42 9.95043L1175.86 17.5563L1196.15 12.1722L1175.9 17.6917L1196.63 14.4575L1175.92 17.8302L1196.88 16.7813L1175.93 17.9702L1196.88 19.1181L1175.92 18.1102L1196.64 21.4424L1175.9 18.2487L1196.16 23.7287L1175.86 18.3842L1195.44 25.9518L1175.81 18.5151L1194.49 28.0876L1175.75 18.6401L1193.32 30.1125L1175.67 18.7578L1191.95 32.0044L1175.58 18.8668L1190.39 33.7425L1175.48 18.9661L1188.65 35.3078L1175.38 19.0544L1186.77 36.6832L1175.26 19.1309L1184.74 37.8536L1175.13 19.1947L1182.61 38.8062L1175 19.245L1180.39 39.5305L1174.87 19.2814L1178.1 40.0186L1174.73 19.3035L1175.78 40.2651L1174.59 19.311L1173.44 40.2674Z" fill="white"/>
<path d="M1172.84 40.2278L1174.41 19.2987L1170.53 39.9237L1174.27 19.2732L1168.25 39.3791L1174.14 19.2334L1166.05 38.5999L1174.01 19.1798L1163.94 37.5947L1173.89 19.113L1161.95 36.3745L1173.77 19.0336L1160.09 34.9527L1173.66 18.9426L1158.4 33.3447L1173.57 18.8409L1156.88 31.5684L1173.48 18.7297L1155.56 29.6431L1173.41 18.6102L1154.44 27.5899L1173.35 18.4837L1153.54 25.4312L1173.3 18.3515L1152.88 23.1909L1173.27 18.2152L1152.45 20.8934L1173.25 18.0762L1152.27 18.5638L1173.25 17.936L1152.33 16.2277L1173.26 17.7963L1152.63 13.9108L1173.28 17.6584L1153.18 11.6383L1173.32 17.5239L1153.96 9.43515L1173.38 17.3944L1154.96 7.32555L1173.44 17.2711L1156.18 5.33259L1173.52 17.1555L1157.6 3.47809L1173.61 17.0489L1159.21 1.78237L1173.72 16.9523L1160.99 0.26401L1173.83 16.8669L1162.91 -1.06035L1173.95 16.7936L1164.97 -2.17621L1174.07 16.7332L1167.13 -3.07133L1174.21 16.6864L1169.37 -3.73591L1174.34 16.6536L1171.66 -4.16267L1174.48 16.6352L1173.99 -4.34694L1174.62 16.6315L1176.33 -4.28668L1174.76 16.6424L1178.65 -3.98258L1174.9 16.6679L1180.92 -3.43795L1175.03 16.7077L1183.12 -2.65876L1175.16 16.7613L1185.23 -1.65356L1175.29 16.8282L1187.22 -0.433346L1175.4 16.9075L1189.08 0.988503L1175.51 16.9986L1190.77 2.59641L1175.6 17.1002L1192.29 4.37276L1175.69 17.2114L1193.62 6.29809L1175.76 17.331L1194.73 8.35131L1175.82 17.4575L1195.63 10.5099L1175.87 17.5896L1196.29 12.7503L1175.9 17.726L1196.72 15.0478L1175.92 17.865L1196.9 17.3774L1175.93 18.0051L1196.84 19.7134L1175.91 18.1449L1196.54 22.0304L1175.89 18.2828L1196 24.3029L1175.85 18.4172L1195.22 26.506L1175.8 18.5468L1194.21 28.6156L1175.73 18.67L1192.99 30.6086L1175.65 18.7856L1191.57 32.4631L1175.56 18.8923L1189.96 34.1588L1175.46 18.9888L1188.18 35.6772L1175.35 19.0742L1186.26 37.0015L1175.23 19.1475L1184.21 38.1174L1175.1 19.2079L1182.05 39.0125L1174.97 19.2548L1179.81 39.6771L1174.83 19.2876L1177.51 40.1038L1174.69 19.3059L1175.18 40.2881L1174.55 19.3097L1172.84 40.2278Z" fill="white"/>
<g filter="url(#filter4_b_997_185)">
<rect x="1175.21" y="16.0488" width="3.94002" height="33.3387" transform="rotate(90 1175.21 16.0488)" fill="white" fill-opacity="0.1"/>
</g>
<path d="M1672.59 40.2969L1672.52 19.3092L1670.25 40.1746L1672.38 19.2945L1667.94 39.809L1672.24 19.2654L1665.69 39.2042L1672.11 19.222L1663.51 38.3667L1671.98 19.165L1661.42 37.3058L1671.86 19.0949L1659.46 36.0331L1671.74 19.0125L1657.65 34.5625L1671.64 18.9187L1656 32.9101L1671.55 18.8145L1654.53 31.094L1671.46 18.701L1653.25 29.1342L1671.39 18.5796L1652.19 27.052L1671.34 18.4515L1651.35 24.8704L1671.29 18.3182L1650.75 22.6132L1671.26 18.181L1650.38 20.3051L1671.25 18.0416L1650.26 17.9715L1671.25 17.9014L1650.38 15.6378L1671.26 17.7619L1650.75 13.3298L1671.29 17.6248L1651.35 11.0725L1671.34 17.4914L1652.19 8.89092L1671.39 17.3633L1653.25 6.80878L1671.46 17.2419L1654.53 4.84894L1671.55 17.1285L1656 3.03287L1671.64 17.0243L1657.65 1.38047L1671.74 16.9305L1659.46 -0.0901489L1671.86 16.8481L1661.42 -1.36288L1671.98 16.778L1663.51 -2.42379L1672.11 16.7209L1665.69 -3.26124L1672.24 16.6776L1667.94 -3.86606L1672.38 16.6484L1670.25 -4.23162L1672.52 16.6338L1672.59 -4.35392L1672.66 16.6338L1674.92 -4.23162L1672.8 16.6484L1677.23 -3.86606L1672.93 16.6776L1679.49 -3.26124L1673.07 16.7209L1681.67 -2.42379L1673.19 16.778L1683.75 -1.36288L1673.32 16.8481L1685.71 -0.0901489L1673.43 16.9305L1687.53 1.38047L1673.53 17.0243L1689.18 3.03287L1673.63 17.1285L1690.65 4.84894L1673.71 17.2419L1691.92 6.80878L1673.78 17.3633L1692.98 8.89092L1673.84 17.4914L1693.82 11.0725L1673.88 17.6248L1694.42 13.3298L1673.91 17.7619L1694.79 15.6378L1673.92 17.9014L1694.91 17.9715L1673.92 18.0416L1694.79 20.3051L1673.91 18.181L1694.42 22.6132L1673.88 18.3182L1693.82 24.8704L1673.84 18.4515L1692.98 27.052L1673.78 18.5796L1691.92 29.1342L1673.71 18.701L1690.65 31.094L1673.63 18.8145L1689.18 32.9101L1673.53 18.9187L1687.53 34.5625L1673.43 19.0125L1685.71 36.0331L1673.32 19.0949L1683.75 37.3058L1673.19 19.165L1681.67 38.3667L1673.07 19.222L1679.49 39.2042L1672.93 19.2654L1677.23 39.809L1672.8 19.2945L1674.92 40.1746L1672.66 19.3092L1672.59 40.2969Z" fill="white"/>
<path d="M1671.44 40.2674L1672.45 19.3038L1669.12 40.0254L1672.31 19.282L1666.83 39.5418L1672.17 19.2458L1664.61 38.8218L1672.04 19.1957L1662.47 37.8734L1671.92 19.1322L1660.45 36.707L1671.8 19.0559L1658.55 35.3353L1671.69 18.9678L1656.82 33.7733L1671.59 18.8688L1655.25 32.0382L1671.5 18.7599L1653.88 30.149L1671.43 18.6424L1652.71 28.1264L1671.36 18.5175L1651.75 25.9925L1671.31 18.3866L1651.03 23.7708L1671.28 18.2513L1650.54 21.4855L1671.26 18.1128L1650.29 19.1616L1671.25 17.9728L1650.29 16.8248L1671.26 17.8328L1650.53 14.5005L1671.28 17.6942L1651.02 12.2143L1671.31 17.5588L1651.74 9.99111L1671.36 17.4278L1652.69 7.85537L1671.43 17.3028L1653.85 5.83046L1671.5 17.1852L1655.22 3.93858L1671.59 17.0761L1656.79 2.20045L1671.69 16.9769L1658.52 0.635099L1671.8 16.8885L1660.41 -0.740308L1671.92 16.8121L1662.43 -1.9107L1672.04 16.7483L1664.57 -2.86327L1672.17 16.6979L1666.79 -3.58756L1672.31 16.6615L1669.07 -4.07565L1672.45 16.6394L1671.4 -4.32218L1672.59 16.6319L1673.73 -4.32446L1672.73 16.6391L1676.06 -4.08246L1672.86 16.6609L1678.34 -3.59884L1673 16.6971L1680.57 -2.87888L1673.13 16.7472L1682.7 -1.93049L1673.26 16.8108L1684.73 -0.764042L1673.37 16.887L1686.62 0.607674L1673.48 16.9751L1688.36 2.16963L1673.58 17.0742L1689.92 3.90472L1673.67 17.1831L1691.3 5.79392L1673.75 17.3006L1692.47 7.81654L1673.81 17.4254L1693.42 9.95043L1673.86 17.5563L1694.15 12.1722L1673.9 17.6917L1694.63 14.4575L1673.92 17.8302L1694.88 16.7813L1673.93 17.9702L1694.88 19.1181L1673.92 18.1102L1694.64 21.4424L1673.9 18.2487L1694.16 23.7287L1673.86 18.3842L1693.44 25.9518L1673.81 18.5151L1692.49 28.0876L1673.75 18.6401L1691.32 30.1125L1673.67 18.7578L1689.95 32.0044L1673.58 18.8668L1688.39 33.7425L1673.48 18.9661L1686.65 35.3078L1673.38 19.0544L1684.77 36.6832L1673.26 19.1309L1682.74 37.8536L1673.13 19.1947L1680.61 38.8062L1673 19.245L1678.39 39.5305L1672.87 19.2814L1676.1 40.0186L1672.73 19.3035L1673.78 40.2651L1672.59 19.311L1671.44 40.2674Z" fill="white"/>
<path d="M1670.84 40.2298L1672.41 19.3007L1668.53 39.9257L1672.27 19.2752L1666.25 39.3811L1672.14 19.2354L1664.05 38.6019L1672.01 19.1818L1661.94 37.5967L1671.89 19.1149L1659.95 36.3765L1671.77 19.0356L1658.09 34.9546L1671.66 18.9446L1656.4 33.3467L1671.57 18.8429L1654.88 31.5704L1671.48 18.7317L1653.56 29.645L1671.41 18.6122L1652.44 27.5918L1671.35 18.4856L1651.54 25.4332L1671.3 18.3535L1650.88 23.1928L1671.27 18.2172L1650.45 20.8953L1671.25 18.0782L1650.27 18.5657L1671.25 17.938L1650.33 16.2297L1671.26 17.7982L1650.63 13.9127L1671.28 17.6603L1651.18 11.6402L1671.32 17.5259L1651.96 9.4371L1671.38 17.3963L1652.96 7.32751L1671.44 17.2731L1654.18 5.33454L1671.52 17.1575L1655.6 3.48004L1671.61 17.0508L1657.21 1.78432L1671.72 16.9543L1658.99 0.265963L1671.83 16.8689L1660.91 -1.0584L1671.95 16.7956L1662.97 -2.17425L1672.07 16.7352L1665.13 -3.06937L1672.21 16.6883L1667.37 -3.73396L1672.34 16.6555L1669.66 -4.16072L1672.48 16.6372L1671.99 -4.34498L1672.62 16.6335L1674.33 -4.28473L1672.76 16.6444L1676.65 -3.98063L1672.9 16.6699L1678.92 -3.436L1673.03 16.7097L1681.12 -2.65681L1673.16 16.7633L1683.23 -1.65161L1673.29 16.8301L1685.22 -0.431393L1673.4 16.9095L1687.08 0.990456L1673.51 17.0005L1688.77 2.59836L1673.6 17.1022L1690.29 4.37472L1673.69 17.2134L1691.62 6.30005L1673.76 17.3329L1692.73 8.35326L1673.82 17.4594L1693.63 10.5119L1673.87 17.5916L1694.29 12.7522L1673.9 17.7279L1694.72 15.0498L1673.92 17.8669L1694.9 17.3793L1673.93 18.0071L1694.84 19.7154L1673.91 18.1469L1694.54 22.0324L1673.89 18.2847L1694 24.3049L1673.85 18.4192L1693.22 26.508L1673.8 18.5487L1692.21 28.6176L1673.73 18.672L1690.99 30.6105L1673.65 18.7876L1689.57 32.465L1673.56 18.8942L1687.96 34.1607L1673.46 18.9908L1686.18 35.6791L1673.35 19.0762L1684.26 37.0035L1673.23 19.1495L1682.21 38.1193L1673.1 19.2099L1680.05 39.0144L1672.97 19.2567L1677.81 39.679L1672.83 19.2895L1675.51 40.1058L1672.69 19.3079L1673.18 40.29L1672.55 19.3116L1670.84 40.2298Z" fill="white"/>
<g filter="url(#filter5_b_997_185)">
<rect x="1673.21" y="16.0508" width="3.94002" height="33.3387" transform="rotate(90 1673.21 16.0508)" fill="white" fill-opacity="0.1"/>
</g>
<path d="M1423.59 40.2949L1423.52 19.3072L1421.25 40.1726L1423.38 19.2926L1418.94 39.8071L1423.24 19.2634L1416.69 39.2022L1423.11 19.2201L1414.51 38.3648L1422.98 19.163L1412.42 37.3039L1422.86 19.0929L1410.46 36.0312L1422.74 19.0105L1408.65 34.5605L1422.64 18.9167L1407 32.9081L1422.55 18.8125L1405.53 31.0921L1422.46 18.6991L1404.25 29.1322L1422.39 18.5777L1403.19 27.0501L1422.34 18.4496L1402.35 24.8685L1422.29 18.3162L1401.75 22.6112L1422.26 18.1791L1401.38 20.3032L1422.25 18.0396L1401.26 17.9695L1422.25 17.8994L1401.38 15.6359L1422.26 17.76L1401.75 13.3278L1422.29 17.6228L1402.35 11.0706L1422.34 17.4895L1403.19 8.88897L1422.39 17.3614L1404.25 6.80682L1422.46 17.24L1405.53 4.84698L1422.55 17.1265L1407 3.03092L1422.64 17.0223L1408.65 1.37852L1422.74 16.9285L1410.46 -0.0921021L1422.86 16.8461L1412.42 -1.36484L1422.98 16.776L1414.51 -2.42574L1423.11 16.719L1416.69 -3.26319L1423.24 16.6756L1418.94 -3.86801L1423.38 16.6465L1421.25 -4.23357L1423.52 16.6318L1423.59 -4.35587L1423.66 16.6318L1425.92 -4.23357L1423.8 16.6465L1428.23 -3.86801L1423.93 16.6756L1430.49 -3.26319L1424.07 16.719L1432.67 -2.42574L1424.19 16.776L1434.75 -1.36484L1424.32 16.8461L1436.71 -0.0921021L1424.43 16.9285L1438.53 1.37852L1424.53 17.0223L1440.18 3.03092L1424.63 17.1265L1441.65 4.84698L1424.71 17.24L1442.92 6.80682L1424.78 17.3614L1443.98 8.88897L1424.84 17.4895L1444.82 11.0706L1424.88 17.6228L1445.42 13.3278L1424.91 17.76L1445.79 15.6359L1424.92 17.8994L1445.91 17.9695L1424.92 18.0396L1445.79 20.3032L1424.91 18.1791L1445.42 22.6112L1424.88 18.3162L1444.82 24.8685L1424.84 18.4496L1443.98 27.0501L1424.78 18.5777L1442.92 29.1322L1424.71 18.6991L1441.65 31.0921L1424.63 18.8125L1440.18 32.9081L1424.53 18.9167L1438.53 34.5605L1424.43 19.0105L1436.71 36.0312L1424.32 19.0929L1434.75 37.3039L1424.19 19.163L1432.67 38.3648L1424.07 19.2201L1430.49 39.2022L1423.93 19.2634L1428.23 39.8071L1423.8 19.2926L1425.92 40.1726L1423.66 19.3072L1423.59 40.2949Z" fill="white"/>
<path d="M1422.44 40.2674L1423.45 19.3038L1420.12 40.0254L1423.31 19.282L1417.83 39.5418L1423.17 19.2458L1415.61 38.8218L1423.04 19.1957L1413.47 37.8734L1422.92 19.1322L1411.45 36.707L1422.8 19.0559L1409.55 35.3353L1422.69 18.9678L1407.82 33.7733L1422.59 18.8688L1406.25 32.0382L1422.5 18.7599L1404.88 30.149L1422.43 18.6424L1403.71 28.1264L1422.36 18.5175L1402.75 25.9925L1422.31 18.3866L1402.03 23.7708L1422.28 18.2513L1401.54 21.4855L1422.26 18.1128L1401.29 19.1616L1422.25 17.9728L1401.29 16.8248L1422.26 17.8328L1401.53 14.5005L1422.28 17.6942L1402.02 12.2143L1422.31 17.5588L1402.74 9.99111L1422.36 17.4278L1403.69 7.85537L1422.43 17.3028L1404.85 5.83046L1422.5 17.1852L1406.22 3.93858L1422.59 17.0761L1407.79 2.20045L1422.69 16.9769L1409.52 0.635099L1422.8 16.8885L1411.41 -0.740308L1422.92 16.8121L1413.43 -1.9107L1423.04 16.7483L1415.57 -2.86327L1423.17 16.6979L1417.79 -3.58756L1423.31 16.6615L1420.07 -4.07565L1423.45 16.6394L1422.4 -4.32218L1423.59 16.6319L1424.73 -4.32446L1423.73 16.6391L1427.06 -4.08246L1423.86 16.6609L1429.34 -3.59884L1424 16.6971L1431.57 -2.87888L1424.13 16.7472L1433.7 -1.93049L1424.26 16.8108L1435.73 -0.764042L1424.37 16.887L1437.62 0.607674L1424.48 16.9751L1439.36 2.16963L1424.58 17.0742L1440.92 3.90472L1424.67 17.1831L1442.3 5.79392L1424.75 17.3006L1443.47 7.81654L1424.81 17.4254L1444.42 9.95043L1424.86 17.5563L1445.15 12.1722L1424.9 17.6917L1445.63 14.4575L1424.92 17.8302L1445.88 16.7813L1424.93 17.9702L1445.88 19.1181L1424.92 18.1102L1445.64 21.4424L1424.9 18.2487L1445.16 23.7287L1424.86 18.3842L1444.44 25.9518L1424.81 18.5151L1443.49 28.0876L1424.75 18.6401L1442.32 30.1125L1424.67 18.7578L1440.95 32.0044L1424.58 18.8668L1439.39 33.7425L1424.48 18.9661L1437.65 35.3078L1424.38 19.0544L1435.77 36.6832L1424.26 19.1309L1433.74 37.8536L1424.13 19.1947L1431.61 38.8062L1424 19.245L1429.39 39.5305L1423.87 19.2814L1427.1 40.0186L1423.73 19.3035L1424.78 40.2651L1423.59 19.311L1422.44 40.2674Z" fill="white"/>
<path d="M1421.84 40.2278L1423.41 19.2987L1419.53 39.9237L1423.27 19.2732L1417.25 39.3791L1423.14 19.2334L1415.05 38.5999L1423.01 19.1798L1412.94 37.5947L1422.89 19.113L1410.95 36.3745L1422.77 19.0336L1409.09 34.9527L1422.66 18.9426L1407.4 33.3447L1422.57 18.8409L1405.88 31.5684L1422.48 18.7297L1404.56 29.6431L1422.41 18.6102L1403.44 27.5899L1422.35 18.4837L1402.54 25.4312L1422.3 18.3515L1401.88 23.1909L1422.27 18.2152L1401.45 20.8934L1422.25 18.0762L1401.27 18.5638L1422.25 17.936L1401.33 16.2277L1422.26 17.7963L1401.63 13.9108L1422.28 17.6584L1402.18 11.6383L1422.32 17.5239L1402.96 9.43515L1422.38 17.3944L1403.96 7.32555L1422.44 17.2711L1405.18 5.33259L1422.52 17.1555L1406.6 3.47809L1422.61 17.0489L1408.21 1.78237L1422.72 16.9523L1409.99 0.26401L1422.83 16.8669L1411.91 -1.06035L1422.95 16.7936L1413.97 -2.17621L1423.07 16.7332L1416.13 -3.07133L1423.21 16.6864L1418.37 -3.73591L1423.34 16.6536L1420.66 -4.16267L1423.48 16.6352L1422.99 -4.34694L1423.62 16.6315L1425.33 -4.28668L1423.76 16.6424L1427.65 -3.98258L1423.9 16.6679L1429.92 -3.43795L1424.03 16.7077L1432.12 -2.65876L1424.16 16.7613L1434.23 -1.65356L1424.29 16.8282L1436.22 -0.433346L1424.4 16.9075L1438.08 0.988503L1424.51 16.9986L1439.77 2.59641L1424.6 17.1002L1441.29 4.37276L1424.69 17.2114L1442.62 6.29809L1424.76 17.331L1443.73 8.35131L1424.82 17.4575L1444.63 10.5099L1424.87 17.5896L1445.29 12.7503L1424.9 17.726L1445.72 15.0478L1424.92 17.865L1445.9 17.3774L1424.93 18.0051L1445.84 19.7134L1424.91 18.1449L1445.54 22.0304L1424.89 18.2828L1445 24.3029L1424.85 18.4172L1444.22 26.506L1424.8 18.5468L1443.21 28.6156L1424.73 18.67L1441.99 30.6086L1424.65 18.7856L1440.57 32.4631L1424.56 18.8923L1438.96 34.1588L1424.46 18.9888L1437.18 35.6772L1424.35 19.0742L1435.26 37.0015L1424.23 19.1475L1433.21 38.1174L1424.1 19.2079L1431.05 39.0125L1423.97 19.2548L1428.81 39.6771L1423.83 19.2876L1426.51 40.1038L1423.69 19.3059L1424.18 40.2881L1423.55 19.3097L1421.84 40.2278Z" fill="white"/>
<g filter="url(#filter6_b_997_185)">
<rect x="1424.21" y="16.0488" width="3.94002" height="33.3387" transform="rotate(90 1424.21 16.0488)" fill="white" fill-opacity="0.1"/>
</g>
<path d="M1921.59 40.2949L1921.52 19.3072L1919.25 40.1726L1921.38 19.2926L1916.94 39.8071L1921.24 19.2634L1914.69 39.2022L1921.11 19.2201L1912.51 38.3648L1920.98 19.163L1910.42 37.3039L1920.86 19.0929L1908.46 36.0312L1920.74 19.0105L1906.65 34.5605L1920.64 18.9167L1905 32.9081L1920.55 18.8125L1903.53 31.0921L1920.46 18.6991L1902.25 29.1322L1920.39 18.5777L1901.19 27.0501L1920.34 18.4496L1900.35 24.8685L1920.29 18.3162L1899.75 22.6112L1920.26 18.1791L1899.38 20.3032L1920.25 18.0396L1899.26 17.9695L1920.25 17.8994L1899.38 15.6359L1920.26 17.76L1899.75 13.3278L1920.29 17.6228L1900.35 11.0706L1920.34 17.4895L1901.19 8.88897L1920.39 17.3614L1902.25 6.80682L1920.46 17.24L1903.53 4.84698L1920.55 17.1265L1905 3.03092L1920.64 17.0223L1906.65 1.37852L1920.74 16.9285L1908.46 -0.0921021L1920.86 16.8461L1910.42 -1.36484L1920.98 16.776L1912.51 -2.42574L1921.11 16.719L1914.69 -3.26319L1921.24 16.6756L1916.94 -3.86801L1921.38 16.6465L1919.25 -4.23357L1921.52 16.6318L1921.59 -4.35587L1921.66 16.6318L1923.92 -4.23357L1921.8 16.6465L1926.23 -3.86801L1921.93 16.6756L1928.49 -3.26319L1922.07 16.719L1930.67 -2.42574L1922.19 16.776L1932.75 -1.36484L1922.32 16.8461L1934.71 -0.0921021L1922.43 16.9285L1936.53 1.37852L1922.53 17.0223L1938.18 3.03092L1922.63 17.1265L1939.65 4.84698L1922.71 17.24L1940.92 6.80682L1922.78 17.3614L1941.98 8.88897L1922.84 17.4895L1942.82 11.0706L1922.88 17.6228L1943.42 13.3278L1922.91 17.76L1943.79 15.6359L1922.92 17.8994L1943.91 17.9695L1922.92 18.0396L1943.79 20.3032L1922.91 18.1791L1943.42 22.6112L1922.88 18.3162L1942.82 24.8685L1922.84 18.4496L1941.98 27.0501L1922.78 18.5777L1940.92 29.1322L1922.71 18.6991L1939.65 31.0921L1922.63 18.8125L1938.18 32.9081L1922.53 18.9167L1936.53 34.5605L1922.43 19.0105L1934.71 36.0312L1922.32 19.0929L1932.75 37.3039L1922.19 19.163L1930.67 38.3648L1922.07 19.2201L1928.49 39.2022L1921.93 19.2634L1926.23 39.8071L1921.8 19.2926L1923.92 40.1726L1921.66 19.3072L1921.59 40.2949Z" fill="white"/>
<path d="M1920.44 40.2674L1921.45 19.3038L1918.12 40.0254L1921.31 19.282L1915.83 39.5418L1921.17 19.2458L1913.61 38.8218L1921.04 19.1957L1911.47 37.8734L1920.92 19.1322L1909.45 36.707L1920.8 19.0559L1907.55 35.3353L1920.69 18.9678L1905.82 33.7733L1920.59 18.8688L1904.25 32.0382L1920.5 18.7599L1902.88 30.149L1920.43 18.6424L1901.71 28.1264L1920.36 18.5175L1900.75 25.9925L1920.31 18.3866L1900.03 23.7708L1920.28 18.2513L1899.54 21.4855L1920.26 18.1128L1899.29 19.1616L1920.25 17.9728L1899.29 16.8248L1920.26 17.8328L1899.53 14.5005L1920.28 17.6942L1900.02 12.2143L1920.31 17.5588L1900.74 9.99111L1920.36 17.4278L1901.69 7.85537L1920.43 17.3028L1902.85 5.83046L1920.5 17.1852L1904.22 3.93858L1920.59 17.0761L1905.79 2.20045L1920.69 16.9769L1907.52 0.635099L1920.8 16.8885L1909.41 -0.740308L1920.92 16.8121L1911.43 -1.9107L1921.04 16.7483L1913.57 -2.86327L1921.17 16.6979L1915.79 -3.58756L1921.31 16.6615L1918.07 -4.07565L1921.45 16.6394L1920.4 -4.32218L1921.59 16.6319L1922.73 -4.32446L1921.73 16.6391L1925.06 -4.08246L1921.86 16.6609L1927.34 -3.59884L1922 16.6971L1929.57 -2.87888L1922.13 16.7472L1931.7 -1.93049L1922.26 16.8108L1933.73 -0.764042L1922.37 16.887L1935.62 0.607674L1922.48 16.9751L1937.36 2.16963L1922.58 17.0742L1938.92 3.90472L1922.67 17.1831L1940.3 5.79392L1922.75 17.3006L1941.47 7.81654L1922.81 17.4254L1942.42 9.95043L1922.86 17.5563L1943.15 12.1722L1922.9 17.6917L1943.63 14.4575L1922.92 17.8302L1943.88 16.7813L1922.93 17.9702L1943.88 19.1181L1922.92 18.1102L1943.64 21.4424L1922.9 18.2487L1943.16 23.7287L1922.86 18.3842L1942.44 25.9518L1922.81 18.5151L1941.49 28.0876L1922.75 18.6401L1940.32 30.1125L1922.67 18.7578L1938.95 32.0044L1922.58 18.8668L1937.39 33.7425L1922.48 18.9661L1935.65 35.3078L1922.38 19.0544L1933.77 36.6832L1922.26 19.1309L1931.74 37.8536L1922.13 19.1947L1929.61 38.8062L1922 19.245L1927.39 39.5305L1921.87 19.2814L1925.1 40.0186L1921.73 19.3035L1922.78 40.2651L1921.59 19.311L1920.44 40.2674Z" fill="white"/>
<path d="M1919.84 40.2278L1921.41 19.2987L1917.53 39.9237L1921.27 19.2732L1915.25 39.3791L1921.14 19.2334L1913.05 38.5999L1921.01 19.1798L1910.94 37.5947L1920.89 19.113L1908.95 36.3745L1920.77 19.0336L1907.09 34.9527L1920.66 18.9426L1905.4 33.3447L1920.57 18.8409L1903.88 31.5684L1920.48 18.7297L1902.56 29.6431L1920.41 18.6102L1901.44 27.5899L1920.35 18.4837L1900.54 25.4312L1920.3 18.3515L1899.88 23.1909L1920.27 18.2152L1899.45 20.8934L1920.25 18.0762L1899.27 18.5638L1920.25 17.936L1899.33 16.2277L1920.26 17.7963L1899.63 13.9108L1920.28 17.6584L1900.18 11.6383L1920.32 17.5239L1900.96 9.43515L1920.38 17.3944L1901.96 7.32555L1920.44 17.2711L1903.18 5.33259L1920.52 17.1555L1904.6 3.47809L1920.61 17.0489L1906.21 1.78237L1920.72 16.9523L1907.99 0.26401L1920.83 16.8669L1909.91 -1.06035L1920.95 16.7936L1911.97 -2.17621L1921.07 16.7332L1914.13 -3.07133L1921.21 16.6864L1916.37 -3.73591L1921.34 16.6536L1918.66 -4.16267L1921.48 16.6352L1920.99 -4.34694L1921.62 16.6315L1923.33 -4.28668L1921.76 16.6424L1925.65 -3.98258L1921.9 16.6679L1927.92 -3.43795L1922.03 16.7077L1930.12 -2.65876L1922.16 16.7613L1932.23 -1.65356L1922.29 16.8282L1934.22 -0.433346L1922.4 16.9075L1936.08 0.988503L1922.51 16.9986L1937.77 2.59641L1922.6 17.1002L1939.29 4.37276L1922.69 17.2114L1940.62 6.29809L1922.76 17.331L1941.73 8.35131L1922.82 17.4575L1942.63 10.5099L1922.87 17.5896L1943.29 12.7503L1922.9 17.726L1943.72 15.0478L1922.92 17.865L1943.9 17.3774L1922.93 18.0051L1943.84 19.7134L1922.91 18.1449L1943.54 22.0304L1922.89 18.2828L1943 24.3029L1922.85 18.4172L1942.22 26.506L1922.8 18.5468L1941.21 28.6156L1922.73 18.67L1939.99 30.6086L1922.65 18.7856L1938.57 32.4631L1922.56 18.8923L1936.96 34.1588L1922.46 18.9888L1935.18 35.6772L1922.35 19.0742L1933.26 37.0015L1922.23 19.1475L1931.21 38.1174L1922.1 19.2079L1929.05 39.0125L1921.97 19.2548L1926.81 39.6771L1921.83 19.2876L1924.51 40.1038L1921.69 19.3059L1922.18 40.2881L1921.55 19.3097L1919.84 40.2278Z" fill="white"/>
<g filter="url(#filter7_b_997_185)">
<rect x="1922.21" y="16.0488" width="3.94002" height="33.3387" transform="rotate(90 1922.21 16.0488)" fill="white" fill-opacity="0.1"/>
</g>
<path d="M1231.64 10.4665H1236.62V29.6846H1227.48L1223.89 12.5487H1223.82V29.6846H1218.87V10.4665H1227.34L1231.57 27.6024H1231.64V10.4665Z" fill="white"/>
<path d="M1248.81 30.1625C1245.62 30.1625 1243.18 29.2636 1241.5 27.4658C1239.82 25.6453 1238.97 23.1989 1238.97 20.1267C1238.97 18.1014 1239.34 16.3491 1240.07 14.8699C1240.8 13.368 1241.89 12.2074 1243.34 11.3881C1244.8 10.5461 1246.62 10.1251 1248.81 10.1251C1248.87 10.1251 1261.03 10.1255 1261.09 10.1263C1264.19 10.1635 1266.76 11.0733 1268.38 12.8559C1270.05 14.6537 1270.88 17.0773 1270.88 20.1267C1270.88 22.1066 1270.5 23.8589 1269.75 25.3836C1269.02 26.8855 1267.93 28.0575 1266.47 28.8995C1265.08 29.7154 1263.16 30.136 1261.09 30.1613C1261.03 30.1621 1248.87 30.1625 1248.81 30.1625ZM1248.74 25.5542C1248.83 25.5542 1261 25.5528 1261.09 25.55C1262.16 25.5162 1263.22 25.2787 1263.91 24.8374C1264.69 24.3368 1265.26 23.6768 1265.62 22.8576C1266.01 22.0156 1266.2 21.1053 1266.2 20.1267C1266.2 19.1254 1266.01 18.2038 1265.62 17.3618C1265.26 16.5198 1264.69 15.8485 1263.91 15.3478C1263.22 14.8855 1262.16 14.6367 1261.09 14.6012C1261 14.5983 1248.83 14.5968 1248.74 14.5968C1247.08 14.5968 1245.8 15.1202 1244.91 16.1671C1244.05 17.2139 1243.62 18.5338 1243.62 20.1267C1243.62 21.0825 1243.8 21.9814 1244.16 22.8234C1244.55 23.6427 1245.12 24.3026 1245.87 24.8033C1246.62 25.3039 1247.58 25.5542 1248.74 25.5542ZM1263.75 8.86212H1261.63V8.28182L1262.96 4.9707H1266.89V5.72168L1263.75 8.86212Z" fill="white"/>
<path d="M1273.65 29.6846V10.4665H1281.94C1282.4 10.4665 1282.95 10.4892 1283.61 10.5347C1284.27 10.5575 1284.96 10.6485 1285.66 10.8078C1286.37 10.9444 1287.03 11.1947 1287.64 11.5588C1288.26 11.9229 1288.76 12.4236 1289.14 13.0608C1289.53 13.6979 1289.72 14.5172 1289.72 15.5185C1289.72 16.2467 1289.58 16.918 1289.28 17.5325C1288.98 18.1469 1288.45 18.6589 1287.68 19.0686C1286.92 19.4554 1285.82 19.6944 1284.36 19.7854V19.9219C1286.03 19.9674 1287.31 20.195 1288.22 20.6046C1289.13 21.0143 1289.77 21.549 1290.13 22.209C1290.5 22.8462 1290.68 23.5858 1290.68 24.4278C1290.68 25.4746 1290.47 26.3394 1290.07 27.0221C1289.66 27.682 1289.11 28.194 1288.43 28.5581C1287.77 28.9223 1287.04 29.184 1286.24 29.3433C1285.47 29.5025 1284.69 29.605 1283.92 29.6505C1283.17 29.6732 1282.51 29.6846 1281.94 29.6846H1273.65ZM1278.32 18.0104H1281.33C1281.9 18.0104 1282.46 17.9876 1283.03 17.9421C1283.6 17.8738 1284.08 17.7145 1284.47 17.4642C1284.85 17.1911 1285.05 16.736 1285.05 16.0988C1285.05 15.4844 1284.87 15.052 1284.5 14.8016C1284.16 14.5513 1283.7 14.4034 1283.14 14.3579C1282.57 14.3124 1281.96 14.2896 1281.33 14.2896H1278.32V18.0104ZM1278.36 25.8956H1281.5C1282.23 25.8956 1282.91 25.8728 1283.55 25.8273C1284.21 25.7591 1284.74 25.577 1285.15 25.2812C1285.56 24.9626 1285.76 24.4392 1285.76 23.7109C1285.76 22.9827 1285.56 22.4707 1285.15 22.1749C1284.76 21.879 1284.24 21.7083 1283.58 21.6628C1282.94 21.5946 1282.25 21.5604 1281.5 21.5604H1278.36V25.8956Z" fill="white"/>
<path d="M1293.58 29.6846V10.4665H1301.4C1303.9 10.4665 1305.88 10.9102 1307.34 11.7977C1308.79 12.6853 1309.52 14.1758 1309.52 16.2695C1309.52 17.999 1309.13 19.3416 1308.36 20.2974C1307.61 21.2532 1306.59 21.7311 1305.29 21.7311C1305.93 21.7311 1306.4 21.879 1306.72 22.1749C1307.06 22.4479 1307.3 22.812 1307.44 23.2672C1307.6 23.6996 1307.72 24.1433 1307.81 24.5985C1307.91 25.0536 1308.03 25.4632 1308.19 25.8273C1308.35 26.1687 1308.6 26.3962 1308.94 26.51C1309.31 26.6011 1309.82 26.51 1310.48 26.2369V28.8312C1309.84 29.3774 1309.13 29.7301 1308.36 29.8894C1307.59 30.0715 1306.85 30.026 1306.14 29.7529C1305.46 29.5026 1304.89 29.0133 1304.44 28.2851C1303.98 27.5341 1303.75 26.5214 1303.75 25.247C1303.75 24.7009 1303.71 24.2116 1303.62 23.7792C1303.55 23.3241 1303.34 22.9486 1303 22.6527C1302.66 22.3569 1302.13 22.1635 1301.4 22.0725C1300.67 21.9587 1299.66 21.9587 1298.36 22.0725V29.6846H1293.58ZM1298.36 18.7272H1300.75C1301.8 18.7272 1302.65 18.7158 1303.31 18.6931C1303.97 18.6703 1304.46 18.5224 1304.78 18.2493C1305.12 17.9535 1305.29 17.4301 1305.29 16.6791C1305.29 15.8371 1305.08 15.2568 1304.67 14.9382C1304.29 14.5968 1303.71 14.4034 1302.93 14.3579C1302.18 14.3124 1301.25 14.2896 1300.13 14.2896H1298.36V18.7272Z" fill="white"/>
<path d="M1317.99 25.8956H1328.23V29.6846H1313.31V10.4665L1327.86 10.4665V14.5286H1317.99V18.0445H1325.33V21.8676H1317.99V25.8956Z" fill="white"/>
<path d="M1339.38 30.026C1337.49 30.026 1335.82 29.6618 1334.39 28.9336C1332.96 28.1827 1331.85 27.0789 1331.08 25.6225C1330.33 24.1661 1329.98 22.3569 1330.02 20.195C1330.09 18.0104 1330.56 16.1671 1331.42 14.6651C1332.31 13.1632 1333.5 12.0367 1335.01 11.2857C1336.51 10.512 1338.2 10.1251 1340.09 10.1251C1342.91 10.1251 1345.03 10.694 1346.44 11.8319C1347.87 12.9697 1348.84 14.631 1349.34 16.8156L1344.73 17.5325C1344.55 16.736 1344.2 16.1329 1343.68 15.7233C1343.18 15.2909 1342.6 14.9951 1341.94 14.8358C1341.3 14.6765 1340.68 14.5968 1340.09 14.5968C1338.18 14.5968 1336.8 15.0975 1335.96 16.0988C1335.12 17.0773 1334.71 18.3176 1334.73 19.8195C1334.73 21.6628 1335.24 23.051 1336.27 23.984C1337.32 24.9171 1338.81 25.3836 1340.74 25.3836C1341.31 25.3836 1341.9 25.3267 1342.52 25.2129C1343.13 25.0763 1343.7 24.8488 1344.22 24.5302C1344.75 24.2116 1345.14 23.7451 1345.42 23.1306H1342.31V19.7171H1349.72V29.6846L1346.54 29.6846L1345.52 27.2269H1345.45C1345.02 28.0006 1344.28 28.6605 1343.23 29.2067C1342.21 29.7529 1340.92 30.026 1339.38 30.026Z" fill="white"/>
<path d="M1351.79 29.6846L1357.32 10.4665H1365.14L1370.87 29.6846H1365.79L1364.52 24.8715H1358.14L1356.91 29.6846H1351.79ZM1361.32 12.4463L1359.06 21.2532H1363.6L1361.32 12.4463Z" fill="white"/>
<path d="M1729.64 10.4665H1734.62V29.6846H1725.48L1721.89 12.5487H1721.82V29.6846H1716.87V10.4665H1725.34L1729.57 27.6024H1729.64V10.4665Z" fill="white"/>
<path d="M1746.81 30.1625C1743.62 30.1625 1741.18 29.2636 1739.5 27.4658C1737.82 25.6453 1736.97 23.1989 1736.97 20.1267C1736.97 18.1014 1737.34 16.3491 1738.07 14.8699C1738.8 13.368 1739.89 12.2074 1741.34 11.3881C1742.8 10.5461 1744.62 10.1251 1746.81 10.1251C1746.87 10.1251 1759.03 10.1255 1759.09 10.1263C1762.19 10.1635 1764.76 11.0733 1766.38 12.8559C1768.05 14.6537 1768.88 17.0773 1768.88 20.1267C1768.88 22.1066 1768.5 23.8589 1767.75 25.3836C1767.02 26.8855 1765.93 28.0575 1764.47 28.8995C1763.08 29.7154 1761.16 30.136 1759.09 30.1613C1759.03 30.1621 1746.87 30.1625 1746.81 30.1625ZM1746.74 25.5542C1746.83 25.5542 1759 25.5528 1759.09 25.55C1760.16 25.5162 1761.22 25.2787 1761.91 24.8374C1762.69 24.3368 1763.26 23.6768 1763.62 22.8576C1764.01 22.0156 1764.2 21.1053 1764.2 20.1267C1764.2 19.1254 1764.01 18.2038 1763.62 17.3618C1763.26 16.5198 1762.69 15.8485 1761.91 15.3478C1761.22 14.8855 1760.16 14.6367 1759.09 14.6012C1759 14.5983 1746.83 14.5968 1746.74 14.5968C1745.08 14.5968 1743.8 15.1202 1742.91 16.1671C1742.05 17.2139 1741.62 18.5338 1741.62 20.1267C1741.62 21.0825 1741.8 21.9814 1742.16 22.8234C1742.55 23.6427 1743.12 24.3026 1743.87 24.8033C1744.62 25.3039 1745.58 25.5542 1746.74 25.5542ZM1761.75 8.86212H1759.63V8.28182L1760.96 4.9707H1764.89V5.72168L1761.75 8.86212Z" fill="white"/>
<path d="M1771.65 29.6846V10.4665H1779.94C1780.4 10.4665 1780.95 10.4892 1781.61 10.5347C1782.27 10.5575 1782.96 10.6485 1783.66 10.8078C1784.37 10.9444 1785.03 11.1947 1785.64 11.5588C1786.26 11.9229 1786.76 12.4236 1787.14 13.0608C1787.53 13.6979 1787.72 14.5172 1787.72 15.5185C1787.72 16.2467 1787.58 16.918 1787.28 17.5325C1786.98 18.1469 1786.45 18.6589 1785.68 19.0686C1784.92 19.4554 1783.82 19.6944 1782.36 19.7854V19.9219C1784.03 19.9674 1785.31 20.195 1786.22 20.6046C1787.13 21.0143 1787.77 21.549 1788.13 22.209C1788.5 22.8462 1788.68 23.5858 1788.68 24.4278C1788.68 25.4746 1788.47 26.3394 1788.07 27.0221C1787.66 27.682 1787.11 28.194 1786.43 28.5581C1785.77 28.9223 1785.04 29.184 1784.24 29.3433C1783.47 29.5025 1782.69 29.605 1781.92 29.6505C1781.17 29.6732 1780.51 29.6846 1779.94 29.6846H1771.65ZM1776.32 18.0104H1779.33C1779.9 18.0104 1780.46 17.9876 1781.03 17.9421C1781.6 17.8738 1782.08 17.7145 1782.47 17.4642C1782.85 17.1911 1783.05 16.736 1783.05 16.0988C1783.05 15.4844 1782.87 15.052 1782.5 14.8016C1782.16 14.5513 1781.7 14.4034 1781.14 14.3579C1780.57 14.3124 1779.96 14.2896 1779.33 14.2896H1776.32V18.0104ZM1776.36 25.8956H1779.5C1780.23 25.8956 1780.91 25.8728 1781.55 25.8273C1782.21 25.7591 1782.74 25.577 1783.15 25.2812C1783.56 24.9626 1783.76 24.4392 1783.76 23.7109C1783.76 22.9827 1783.56 22.4707 1783.15 22.1749C1782.76 21.879 1782.24 21.7083 1781.58 21.6628C1780.94 21.5946 1780.25 21.5604 1779.5 21.5604H1776.36V25.8956Z" fill="white"/>
<path d="M1791.58 29.6846V10.4665H1799.4C1801.9 10.4665 1803.88 10.9102 1805.34 11.7977C1806.79 12.6853 1807.52 14.1758 1807.52 16.2695C1807.52 17.999 1807.13 19.3416 1806.36 20.2974C1805.61 21.2532 1804.59 21.7311 1803.29 21.7311C1803.93 21.7311 1804.4 21.879 1804.72 22.1749C1805.06 22.4479 1805.3 22.812 1805.44 23.2672C1805.6 23.6996 1805.72 24.1433 1805.81 24.5985C1805.91 25.0536 1806.03 25.4632 1806.19 25.8273C1806.35 26.1687 1806.6 26.3962 1806.94 26.51C1807.31 26.6011 1807.82 26.51 1808.48 26.2369V28.8312C1807.84 29.3774 1807.13 29.7301 1806.36 29.8894C1805.59 30.0715 1804.85 30.026 1804.14 29.7529C1803.46 29.5026 1802.89 29.0133 1802.44 28.2851C1801.98 27.5341 1801.75 26.5214 1801.75 25.247C1801.75 24.7009 1801.71 24.2116 1801.62 23.7792C1801.55 23.3241 1801.34 22.9486 1801 22.6527C1800.66 22.3569 1800.13 22.1635 1799.4 22.0725C1798.67 21.9587 1797.66 21.9587 1796.36 22.0725V29.6846H1791.58ZM1796.36 18.7272H1798.75C1799.8 18.7272 1800.65 18.7158 1801.31 18.6931C1801.97 18.6703 1802.46 18.5224 1802.78 18.2493C1803.12 17.9535 1803.29 17.4301 1803.29 16.6791C1803.29 15.8371 1803.08 15.2568 1802.67 14.9382C1802.29 14.5968 1801.71 14.4034 1800.93 14.3579C1800.18 14.3124 1799.25 14.2896 1798.13 14.2896H1796.36V18.7272Z" fill="white"/>
<path d="M1815.99 25.8956H1826.23V29.6846H1811.31V10.4665L1825.86 10.4665V14.5286H1815.99V18.0445H1823.33V21.8676H1815.99V25.8956Z" fill="white"/>
<path d="M1837.38 30.026C1835.49 30.026 1833.82 29.6618 1832.39 28.9336C1830.96 28.1827 1829.85 27.0789 1829.08 25.6225C1828.33 24.1661 1827.98 22.3569 1828.02 20.195C1828.09 18.0104 1828.56 16.1671 1829.42 14.6651C1830.31 13.1632 1831.5 12.0367 1833.01 11.2857C1834.51 10.512 1836.2 10.1251 1838.09 10.1251C1840.91 10.1251 1843.03 10.694 1844.44 11.8319C1845.87 12.9697 1846.84 14.631 1847.34 16.8156L1842.73 17.5325C1842.55 16.736 1842.2 16.1329 1841.68 15.7233C1841.18 15.2909 1840.6 14.9951 1839.94 14.8358C1839.3 14.6765 1838.68 14.5968 1838.09 14.5968C1836.18 14.5968 1834.8 15.0975 1833.96 16.0988C1833.12 17.0773 1832.71 18.3176 1832.73 19.8195C1832.73 21.6628 1833.24 23.051 1834.27 23.984C1835.32 24.9171 1836.81 25.3836 1838.74 25.3836C1839.31 25.3836 1839.9 25.3267 1840.52 25.2129C1841.13 25.0763 1841.7 24.8488 1842.22 24.5302C1842.75 24.2116 1843.14 23.7451 1843.42 23.1306H1840.31V19.7171H1847.72V29.6846L1844.54 29.6846L1843.52 27.2269H1843.45C1843.02 28.0006 1842.28 28.6605 1841.23 29.2067C1840.21 29.7529 1838.92 30.026 1837.38 30.026Z" fill="white"/>
<path d="M1849.79 29.6846L1855.32 10.4665H1863.14L1868.87 29.6846H1863.79L1862.52 24.8715H1856.14L1854.91 29.6846H1849.79ZM1859.32 12.4463L1857.06 21.2532H1861.6L1859.32 12.4463Z" fill="white"/>
<path d="M982.64 10.4665H987.623V29.6846H978.475L974.891 12.5487H974.823V29.6846H969.873V10.4665H978.339L982.571 27.6024H982.64V10.4665Z" fill="white"/>
<path d="M999.806 30.1625C996.62 30.1625 994.185 29.2636 992.501 27.4658C990.817 25.6453 989.975 23.1989 989.975 20.1267C989.975 18.1014 990.339 16.3491 991.067 14.8699C991.795 13.368 992.888 12.2074 994.344 11.3881C995.8 10.5461 997.621 10.1251 999.806 10.1251C999.872 10.1251 1012.03 10.1255 1012.09 10.1263C1015.19 10.1635 1017.76 11.0733 1019.38 12.8559C1021.05 14.6537 1021.88 17.0773 1021.88 20.1267C1021.88 22.1066 1021.5 23.8589 1020.75 25.3836C1020.02 26.8855 1018.93 28.0575 1017.47 28.8995C1016.08 29.7154 1014.16 30.136 1012.09 30.1613C1012.03 30.1621 999.872 30.1625 999.806 30.1625ZM999.737 25.5542C999.826 25.5542 1012 25.5528 1012.09 25.55C1013.16 25.5162 1014.22 25.2787 1014.91 24.8374C1015.69 24.3368 1016.26 23.6768 1016.62 22.8576C1017.01 22.0156 1017.2 21.1053 1017.2 20.1267C1017.2 19.1254 1017.01 18.2038 1016.62 17.3618C1016.26 16.5198 1015.69 15.8485 1014.91 15.3478C1014.22 14.8855 1013.16 14.6367 1012.09 14.6012C1012 14.5983 999.826 14.5968 999.737 14.5968C998.076 14.5968 996.802 15.1202 995.914 16.1671C995.049 17.2139 994.617 18.5338 994.617 20.1267C994.617 21.0825 994.799 21.9814 995.163 22.8234C995.55 23.6427 996.119 24.3026 996.87 24.8033C997.621 25.3039 998.577 25.5542 999.737 25.5542ZM1014.75 8.86212H1012.63V8.28182L1013.96 4.9707H1017.89V5.72168L1014.75 8.86212Z" fill="white"/>
<path d="M1024.65 29.6846V10.4665H1032.94C1033.4 10.4665 1033.95 10.4892 1034.61 10.5347C1035.27 10.5575 1035.96 10.6485 1036.66 10.8078C1037.37 10.9444 1038.03 11.1947 1038.64 11.5588C1039.26 11.9229 1039.76 12.4236 1040.14 13.0608C1040.53 13.6979 1040.72 14.5172 1040.72 15.5185C1040.72 16.2467 1040.58 16.918 1040.28 17.5325C1039.98 18.1469 1039.45 18.6589 1038.68 19.0686C1037.92 19.4554 1036.82 19.6944 1035.36 19.7854V19.9219C1037.03 19.9674 1038.31 20.195 1039.22 20.6046C1040.13 21.0143 1040.77 21.549 1041.13 22.209C1041.5 22.8462 1041.68 23.5858 1041.68 24.4278C1041.68 25.4746 1041.47 26.3394 1041.07 27.0221C1040.66 27.682 1040.11 28.194 1039.43 28.5581C1038.77 28.9223 1038.04 29.184 1037.24 29.3433C1036.47 29.5025 1035.69 29.605 1034.92 29.6505C1034.17 29.6732 1033.51 29.6846 1032.94 29.6846H1024.65ZM1029.32 18.0104H1032.33C1032.9 18.0104 1033.46 17.9876 1034.03 17.9421C1034.6 17.8738 1035.08 17.7145 1035.47 17.4642C1035.85 17.1911 1036.05 16.736 1036.05 16.0988C1036.05 15.4844 1035.87 15.052 1035.5 14.8016C1035.16 14.5513 1034.7 14.4034 1034.14 14.3579C1033.57 14.3124 1032.96 14.2896 1032.33 14.2896H1029.32V18.0104ZM1029.36 25.8956H1032.5C1033.23 25.8956 1033.91 25.8728 1034.55 25.8273C1035.21 25.7591 1035.74 25.577 1036.15 25.2812C1036.56 24.9626 1036.76 24.4392 1036.76 23.7109C1036.76 22.9827 1036.56 22.4707 1036.15 22.1749C1035.76 21.879 1035.24 21.7083 1034.58 21.6628C1033.94 21.5946 1033.25 21.5604 1032.5 21.5604H1029.36V25.8956Z" fill="white"/>
<path d="M1044.58 29.6846V10.4665H1052.4C1054.9 10.4665 1056.88 10.9102 1058.34 11.7977C1059.79 12.6853 1060.52 14.1758 1060.52 16.2695C1060.52 17.999 1060.13 19.3416 1059.36 20.2974C1058.61 21.2532 1057.59 21.7311 1056.29 21.7311C1056.93 21.7311 1057.4 21.879 1057.72 22.1749C1058.06 22.4479 1058.3 22.812 1058.44 23.2672C1058.6 23.6996 1058.72 24.1433 1058.81 24.5985C1058.91 25.0536 1059.03 25.4632 1059.19 25.8273C1059.35 26.1687 1059.6 26.3962 1059.94 26.51C1060.31 26.6011 1060.82 26.51 1061.48 26.2369V28.8312C1060.84 29.3774 1060.13 29.7301 1059.36 29.8894C1058.59 30.0715 1057.85 30.026 1057.14 29.7529C1056.46 29.5026 1055.89 29.0133 1055.44 28.2851C1054.98 27.5341 1054.75 26.5214 1054.75 25.247C1054.75 24.7009 1054.71 24.2116 1054.62 23.7792C1054.55 23.3241 1054.34 22.9486 1054 22.6527C1053.66 22.3569 1053.13 22.1635 1052.4 22.0725C1051.67 21.9587 1050.66 21.9587 1049.36 22.0725V29.6846H1044.58ZM1049.36 18.7272H1051.75C1052.8 18.7272 1053.65 18.7158 1054.31 18.6931C1054.97 18.6703 1055.46 18.5224 1055.78 18.2493C1056.12 17.9535 1056.29 17.4301 1056.29 16.6791C1056.29 15.8371 1056.08 15.2568 1055.67 14.9382C1055.29 14.5968 1054.71 14.4034 1053.93 14.3579C1053.18 14.3124 1052.25 14.2896 1051.13 14.2896H1049.36V18.7272Z" fill="white"/>
<path d="M1068.99 25.8956H1079.23V29.6846H1064.31V10.4665L1078.86 10.4665V14.5286H1068.99V18.0445H1076.33V21.8676H1068.99V25.8956Z" fill="white"/>
<path d="M1090.38 30.026C1088.49 30.026 1086.82 29.6618 1085.39 28.9336C1083.96 28.1827 1082.85 27.0789 1082.08 25.6225C1081.33 24.1661 1080.98 22.3569 1081.02 20.195C1081.09 18.0104 1081.56 16.1671 1082.42 14.6651C1083.31 13.1632 1084.5 12.0367 1086.01 11.2857C1087.51 10.512 1089.2 10.1251 1091.09 10.1251C1093.91 10.1251 1096.03 10.694 1097.44 11.8319C1098.87 12.9697 1099.84 14.631 1100.34 16.8156L1095.73 17.5325C1095.55 16.736 1095.2 16.1329 1094.68 15.7233C1094.18 15.2909 1093.6 14.9951 1092.94 14.8358C1092.3 14.6765 1091.68 14.5968 1091.09 14.5968C1089.18 14.5968 1087.8 15.0975 1086.96 16.0988C1086.12 17.0773 1085.71 18.3176 1085.73 19.8195C1085.73 21.6628 1086.24 23.051 1087.27 23.984C1088.32 24.9171 1089.81 25.3836 1091.74 25.3836C1092.31 25.3836 1092.9 25.3267 1093.52 25.2129C1094.13 25.0763 1094.7 24.8488 1095.22 24.5302C1095.75 24.2116 1096.14 23.7451 1096.42 23.1306H1093.31V19.7171H1100.72V29.6846L1097.54 29.6846L1096.52 27.2269H1096.45C1096.02 28.0006 1095.28 28.6605 1094.23 29.2067C1093.21 29.7529 1091.92 30.026 1090.38 30.026Z" fill="white"/>
<path d="M1102.79 29.6846L1108.32 10.4665H1116.14L1121.87 29.6846H1116.79L1115.52 24.8715H1109.14L1107.91 29.6846H1102.79ZM1112.32 12.4463L1110.06 21.2532H1114.6L1112.32 12.4463Z" fill="white"/>
<path d="M1480.64 10.4665H1485.62V29.6846H1476.48L1472.89 12.5487H1472.82V29.6846H1467.87V10.4665H1476.34L1480.57 27.6024H1480.64V10.4665Z" fill="white"/>
<path d="M1497.81 30.1625C1494.62 30.1625 1492.18 29.2636 1490.5 27.4658C1488.82 25.6453 1487.97 23.1989 1487.97 20.1267C1487.97 18.1014 1488.34 16.3491 1489.07 14.8699C1489.8 13.368 1490.89 12.2074 1492.34 11.3881C1493.8 10.5461 1495.62 10.1251 1497.81 10.1251C1497.87 10.1251 1510.03 10.1255 1510.09 10.1263C1513.19 10.1635 1515.76 11.0733 1517.38 12.8559C1519.05 14.6537 1519.88 17.0773 1519.88 20.1267C1519.88 22.1066 1519.5 23.8589 1518.75 25.3836C1518.02 26.8855 1516.93 28.0575 1515.47 28.8995C1514.08 29.7154 1512.16 30.136 1510.09 30.1613C1510.03 30.1621 1497.87 30.1625 1497.81 30.1625ZM1497.74 25.5542C1497.83 25.5542 1510 25.5528 1510.09 25.55C1511.16 25.5162 1512.22 25.2787 1512.91 24.8374C1513.69 24.3368 1514.26 23.6768 1514.62 22.8576C1515.01 22.0156 1515.2 21.1053 1515.2 20.1267C1515.2 19.1254 1515.01 18.2038 1514.62 17.3618C1514.26 16.5198 1513.69 15.8485 1512.91 15.3478C1512.22 14.8855 1511.16 14.6367 1510.09 14.6012C1510 14.5983 1497.83 14.5968 1497.74 14.5968C1496.08 14.5968 1494.8 15.1202 1493.91 16.1671C1493.05 17.2139 1492.62 18.5338 1492.62 20.1267C1492.62 21.0825 1492.8 21.9814 1493.16 22.8234C1493.55 23.6427 1494.12 24.3026 1494.87 24.8033C1495.62 25.3039 1496.58 25.5542 1497.74 25.5542ZM1512.75 8.86212H1510.63V8.28182L1511.96 4.9707H1515.89V5.72168L1512.75 8.86212Z" fill="white"/>
<path d="M1522.65 29.6846V10.4665H1530.94C1531.4 10.4665 1531.95 10.4892 1532.61 10.5347C1533.27 10.5575 1533.96 10.6485 1534.66 10.8078C1535.37 10.9444 1536.03 11.1947 1536.64 11.5588C1537.26 11.9229 1537.76 12.4236 1538.14 13.0608C1538.53 13.6979 1538.72 14.5172 1538.72 15.5185C1538.72 16.2467 1538.58 16.918 1538.28 17.5325C1537.98 18.1469 1537.45 18.6589 1536.68 19.0686C1535.92 19.4554 1534.82 19.6944 1533.36 19.7854V19.9219C1535.03 19.9674 1536.31 20.195 1537.22 20.6046C1538.13 21.0143 1538.77 21.549 1539.13 22.209C1539.5 22.8462 1539.68 23.5858 1539.68 24.4278C1539.68 25.4746 1539.47 26.3394 1539.07 27.0221C1538.66 27.682 1538.11 28.194 1537.43 28.5581C1536.77 28.9223 1536.04 29.184 1535.24 29.3433C1534.47 29.5025 1533.69 29.605 1532.92 29.6505C1532.17 29.6732 1531.51 29.6846 1530.94 29.6846H1522.65ZM1527.32 18.0104H1530.33C1530.9 18.0104 1531.46 17.9876 1532.03 17.9421C1532.6 17.8738 1533.08 17.7145 1533.47 17.4642C1533.85 17.1911 1534.05 16.736 1534.05 16.0988C1534.05 15.4844 1533.87 15.052 1533.5 14.8016C1533.16 14.5513 1532.7 14.4034 1532.14 14.3579C1531.57 14.3124 1530.96 14.2896 1530.33 14.2896H1527.32V18.0104ZM1527.36 25.8956H1530.5C1531.23 25.8956 1531.91 25.8728 1532.55 25.8273C1533.21 25.7591 1533.74 25.577 1534.15 25.2812C1534.56 24.9626 1534.76 24.4392 1534.76 23.7109C1534.76 22.9827 1534.56 22.4707 1534.15 22.1749C1533.76 21.879 1533.24 21.7083 1532.58 21.6628C1531.94 21.5946 1531.25 21.5604 1530.5 21.5604H1527.36V25.8956Z" fill="white"/>
<path d="M1542.58 29.6846V10.4665H1550.4C1552.9 10.4665 1554.88 10.9102 1556.34 11.7977C1557.79 12.6853 1558.52 14.1758 1558.52 16.2695C1558.52 17.999 1558.13 19.3416 1557.36 20.2974C1556.61 21.2532 1555.59 21.7311 1554.29 21.7311C1554.93 21.7311 1555.4 21.879 1555.72 22.1749C1556.06 22.4479 1556.3 22.812 1556.44 23.2672C1556.6 23.6996 1556.72 24.1433 1556.81 24.5985C1556.91 25.0536 1557.03 25.4632 1557.19 25.8273C1557.35 26.1687 1557.6 26.3962 1557.94 26.51C1558.31 26.6011 1558.82 26.51 1559.48 26.2369V28.8312C1558.84 29.3774 1558.13 29.7301 1557.36 29.8894C1556.59 30.0715 1555.85 30.026 1555.14 29.7529C1554.46 29.5026 1553.89 29.0133 1553.44 28.2851C1552.98 27.5341 1552.75 26.5214 1552.75 25.247C1552.75 24.7009 1552.71 24.2116 1552.62 23.7792C1552.55 23.3241 1552.34 22.9486 1552 22.6527C1551.66 22.3569 1551.13 22.1635 1550.4 22.0725C1549.67 21.9587 1548.66 21.9587 1547.36 22.0725V29.6846H1542.58ZM1547.36 18.7272H1549.75C1550.8 18.7272 1551.65 18.7158 1552.31 18.6931C1552.97 18.6703 1553.46 18.5224 1553.78 18.2493C1554.12 17.9535 1554.29 17.4301 1554.29 16.6791C1554.29 15.8371 1554.08 15.2568 1553.67 14.9382C1553.29 14.5968 1552.71 14.4034 1551.93 14.3579C1551.18 14.3124 1550.25 14.2896 1549.13 14.2896H1547.36V18.7272Z" fill="white"/>
<path d="M1566.99 25.8956H1577.23V29.6846H1562.31V10.4665L1576.86 10.4665V14.5286H1566.99V18.0445H1574.33V21.8676H1566.99V25.8956Z" fill="white"/>
<path d="M1588.38 30.026C1586.49 30.026 1584.82 29.6618 1583.39 28.9336C1581.96 28.1827 1580.85 27.0789 1580.08 25.6225C1579.33 24.1661 1578.98 22.3569 1579.02 20.195C1579.09 18.0104 1579.56 16.1671 1580.42 14.6651C1581.31 13.1632 1582.5 12.0367 1584.01 11.2857C1585.51 10.512 1587.2 10.1251 1589.09 10.1251C1591.91 10.1251 1594.03 10.694 1595.44 11.8319C1596.87 12.9697 1597.84 14.631 1598.34 16.8156L1593.73 17.5325C1593.55 16.736 1593.2 16.1329 1592.68 15.7233C1592.18 15.2909 1591.6 14.9951 1590.94 14.8358C1590.3 14.6765 1589.68 14.5968 1589.09 14.5968C1587.18 14.5968 1585.8 15.0975 1584.96 16.0988C1584.12 17.0773 1583.71 18.3176 1583.73 19.8195C1583.73 21.6628 1584.24 23.051 1585.27 23.984C1586.32 24.9171 1587.81 25.3836 1589.74 25.3836C1590.31 25.3836 1590.9 25.3267 1591.52 25.2129C1592.13 25.0763 1592.7 24.8488 1593.22 24.5302C1593.75 24.2116 1594.14 23.7451 1594.42 23.1306H1591.31V19.7171H1598.72V29.6846L1595.54 29.6846L1594.52 27.2269H1594.45C1594.02 28.0006 1593.28 28.6605 1592.23 29.2067C1591.21 29.7529 1589.92 30.026 1588.38 30.026Z" fill="white"/>
<path d="M1600.79 29.6846L1606.32 10.4665H1614.14L1619.87 29.6846H1614.79L1613.52 24.8715H1607.14L1605.91 29.6846H1600.79ZM1610.32 12.4463L1608.06 21.2532H1612.6L1610.32 12.4463Z" fill="white"/>
<path d="M733.64 10.4665H738.623V29.6846H729.475L725.891 12.5487H725.823V29.6846H720.873V10.4665H729.339L733.571 27.6024H733.64V10.4665Z" fill="white"/>
<path d="M750.806 30.1625C747.62 30.1625 745.185 29.2636 743.501 27.4658C741.817 25.6453 740.975 23.1989 740.975 20.1267C740.975 18.1014 741.339 16.3491 742.067 14.8699C742.795 13.368 743.888 12.2074 745.344 11.3881C746.8 10.5461 748.621 10.1251 750.806 10.1251C750.872 10.1251 763.026 10.1255 763.092 10.1263C766.19 10.1635 768.758 11.0733 770.384 12.8559C772.046 14.6537 772.876 17.0773 772.876 20.1267C772.876 22.1066 772.501 23.8589 771.75 25.3836C771.022 26.8855 769.929 28.0575 768.473 28.8995C767.084 29.7154 765.157 30.136 763.092 30.1613C763.026 30.1621 750.872 30.1625 750.806 30.1625ZM750.737 25.5542C750.826 25.5542 763.004 25.5528 763.092 25.55C764.164 25.5162 765.219 25.2787 765.913 24.8374C766.686 24.3368 767.255 23.6768 767.619 22.8576C768.006 22.0156 768.2 21.1053 768.2 20.1267C768.2 19.1254 768.006 18.2038 767.619 17.3618C767.255 16.5198 766.686 15.8485 765.913 15.3478C765.219 14.8855 764.164 14.6367 763.092 14.6012C763.004 14.5983 750.826 14.5968 750.737 14.5968C749.076 14.5968 747.802 15.1202 746.914 16.1671C746.049 17.2139 745.617 18.5338 745.617 20.1267C745.617 21.0825 745.799 21.9814 746.163 22.8234C746.55 23.6427 747.119 24.3026 747.87 24.8033C748.621 25.3039 749.577 25.5542 750.737 25.5542ZM765.749 8.86212H763.632V8.28182L764.964 4.9707H768.889V5.72168L765.749 8.86212Z" fill="white"/>
<path d="M775.646 29.6846V10.4665H783.941C784.396 10.4665 784.954 10.4892 785.614 10.5347C786.273 10.5575 786.956 10.6485 787.662 10.8078C788.367 10.9444 789.027 11.1947 789.642 11.5588C790.256 11.9229 790.757 12.4236 791.143 13.0608C791.53 13.6979 791.724 14.5172 791.724 15.5185C791.724 16.2467 791.576 16.918 791.28 17.5325C790.984 18.1469 790.449 18.6589 789.676 19.0686C788.925 19.4554 787.821 19.6944 786.365 19.7854V19.9219C788.026 19.9674 789.312 20.195 790.222 20.6046C791.132 21.0143 791.769 21.549 792.133 22.209C792.497 22.8462 792.68 23.5858 792.68 24.4278C792.68 25.4746 792.475 26.3394 792.065 27.0221C791.655 27.682 791.109 28.194 790.427 28.5581C789.767 28.9223 789.038 29.184 788.242 29.3433C787.468 29.5025 786.694 29.605 785.921 29.6505C785.17 29.6732 784.51 29.6846 783.941 29.6846H775.646ZM780.323 18.0104H783.326C783.895 18.0104 784.464 17.9876 785.033 17.9421C785.602 17.8738 786.08 17.7145 786.467 17.4642C786.854 17.1911 787.047 16.736 787.047 16.0988C787.047 15.4844 786.865 15.052 786.501 14.8016C786.16 14.5513 785.705 14.4034 785.136 14.3579C784.567 14.3124 783.964 14.2896 783.326 14.2896H780.323V18.0104ZM780.357 25.8956H783.497C784.225 25.8956 784.908 25.8728 785.545 25.8273C786.205 25.7591 786.74 25.577 787.15 25.2812C787.559 24.9626 787.764 24.4392 787.764 23.7109C787.764 22.9827 787.559 22.4707 787.15 22.1749C786.763 21.879 786.239 21.7083 785.579 21.6628C784.942 21.5946 784.248 21.5604 783.497 21.5604H780.357V25.8956Z" fill="white"/>
<path d="M795.58 29.6846V10.4665H803.397C805.901 10.4665 807.881 10.9102 809.337 11.7977C810.793 12.6853 811.522 14.1758 811.522 16.2695C811.522 17.999 811.135 19.3416 810.361 20.2974C809.61 21.2532 808.586 21.7311 807.289 21.7311C807.926 21.7311 808.404 21.879 808.723 22.1749C809.064 22.4479 809.303 22.812 809.439 23.2672C809.599 23.6996 809.724 24.1433 809.815 24.5985C809.906 25.0536 810.031 25.4632 810.19 25.8273C810.35 26.1687 810.6 26.3962 810.941 26.51C811.305 26.6011 811.817 26.51 812.477 26.2369V28.8312C811.84 29.3774 811.135 29.7301 810.361 29.8894C809.587 30.0715 808.848 30.026 808.142 29.7529C807.46 29.5026 806.891 29.0133 806.435 28.2851C805.98 27.5341 805.753 26.5214 805.753 25.247C805.753 24.7009 805.707 24.2116 805.616 23.7792C805.548 23.3241 805.343 22.9486 805.002 22.6527C804.66 22.3569 804.126 22.1635 803.397 22.0725C802.669 21.9587 801.657 21.9587 800.359 22.0725V29.6846H795.58ZM800.359 18.7272H802.749C803.796 18.7272 804.649 18.7158 805.309 18.6931C805.969 18.6703 806.458 18.5224 806.777 18.2493C807.118 17.9535 807.289 17.4301 807.289 16.6791C807.289 15.8371 807.084 15.2568 806.674 14.9382C806.288 14.5968 805.707 14.4034 804.934 14.3579C804.183 14.3124 803.25 14.2896 802.134 14.2896H800.359V18.7272Z" fill="white"/>
<path d="M819.991 25.8956H830.232V29.6846H815.315V10.4665L829.857 10.4665V14.5286H819.991V18.0445H827.331V21.8676H819.991V25.8956Z" fill="white"/>
<path d="M841.375 30.026C839.486 30.026 837.825 29.6618 836.391 28.9336C834.958 28.1827 833.854 27.0789 833.08 25.6225C832.329 24.1661 831.976 22.3569 832.022 20.195C832.09 18.0104 832.557 16.1671 833.422 14.6651C834.309 13.1632 835.504 12.0367 837.006 11.2857C838.508 10.512 840.203 10.1251 842.092 10.1251C844.914 10.1251 847.03 10.694 848.441 11.8319C849.875 12.9697 850.842 14.631 851.343 16.8156L846.734 17.5325C846.552 16.736 846.199 16.1329 845.676 15.7233C845.175 15.2909 844.595 14.9951 843.935 14.8358C843.298 14.6765 842.684 14.5968 842.092 14.5968C840.18 14.5968 838.804 15.0975 837.962 16.0988C837.12 17.0773 836.71 18.3176 836.733 19.8195C836.733 21.6628 837.245 23.051 838.269 23.984C839.316 24.9171 840.806 25.3836 842.74 25.3836C843.309 25.3836 843.901 25.3267 844.515 25.2129C845.13 25.0763 845.699 24.8488 846.222 24.5302C846.746 24.2116 847.144 23.7451 847.417 23.1306H844.311V19.7171H851.718V29.6846L848.543 29.6846L847.519 27.2269H847.451C847.019 28.0006 846.279 28.6605 845.232 29.2067C844.208 29.7529 842.922 30.026 841.375 30.026Z" fill="white"/>
<path d="M853.791 29.6846L859.321 10.4665H867.138L872.873 29.6846H867.787L866.524 24.8715H860.141L858.912 29.6846H853.791ZM863.315 12.4463L861.062 21.2532H865.602L863.315 12.4463Z" fill="white"/>
<path d="M484.64 10.4665H489.623V29.6846H480.475L476.891 12.5487H476.823V29.6846H471.873V10.4665H480.339L484.571 27.6024H484.64V10.4665Z" fill="white"/>
<path d="M501.806 30.1625C498.62 30.1625 496.185 29.2636 494.501 27.4658C492.817 25.6453 491.975 23.1989 491.975 20.1267C491.975 18.1014 492.339 16.3491 493.067 14.8699C493.795 13.368 494.888 12.2074 496.344 11.3881C497.8 10.5461 499.621 10.1251 501.806 10.1251C501.872 10.1251 514.026 10.1255 514.092 10.1263C517.19 10.1635 519.758 11.0733 521.384 12.8559C523.046 14.6537 523.876 17.0773 523.876 20.1267C523.876 22.1066 523.501 23.8589 522.75 25.3836C522.022 26.8855 520.929 28.0575 519.473 28.8995C518.084 29.7154 516.157 30.136 514.092 30.1613C514.026 30.1621 501.872 30.1625 501.806 30.1625ZM501.737 25.5542C501.826 25.5542 514.004 25.5528 514.092 25.55C515.164 25.5162 516.219 25.2787 516.913 24.8374C517.686 24.3368 518.255 23.6768 518.619 22.8576C519.006 22.0156 519.2 21.1053 519.2 20.1267C519.2 19.1254 519.006 18.2038 518.619 17.3618C518.255 16.5198 517.686 15.8485 516.913 15.3478C516.219 14.8855 515.164 14.6367 514.092 14.6012C514.004 14.5983 501.826 14.5968 501.737 14.5968C500.076 14.5968 498.802 15.1202 497.914 16.1671C497.049 17.2139 496.617 18.5338 496.617 20.1267C496.617 21.0825 496.799 21.9814 497.163 22.8234C497.55 23.6427 498.119 24.3026 498.87 24.8033C499.621 25.3039 500.577 25.5542 501.737 25.5542ZM516.749 8.86212H514.632V8.28182L515.964 4.9707H519.889V5.72168L516.749 8.86212Z" fill="white"/>
<path d="M526.646 29.6846V10.4665H534.941C535.396 10.4665 535.954 10.4892 536.614 10.5347C537.273 10.5575 537.956 10.6485 538.662 10.8078C539.367 10.9444 540.027 11.1947 540.642 11.5588C541.256 11.9229 541.757 12.4236 542.143 13.0608C542.53 13.6979 542.724 14.5172 542.724 15.5185C542.724 16.2467 542.576 16.918 542.28 17.5325C541.984 18.1469 541.449 18.6589 540.676 19.0686C539.925 19.4554 538.821 19.6944 537.365 19.7854V19.9219C539.026 19.9674 540.312 20.195 541.222 20.6046C542.132 21.0143 542.769 21.549 543.133 22.209C543.497 22.8462 543.68 23.5858 543.68 24.4278C543.68 25.4746 543.475 26.3394 543.065 27.0221C542.655 27.682 542.109 28.194 541.427 28.5581C540.767 28.9223 540.038 29.184 539.242 29.3433C538.468 29.5025 537.694 29.605 536.921 29.6505C536.17 29.6732 535.51 29.6846 534.941 29.6846H526.646ZM531.323 18.0104H534.326C534.895 18.0104 535.464 17.9876 536.033 17.9421C536.602 17.8738 537.08 17.7145 537.467 17.4642C537.854 17.1911 538.047 16.736 538.047 16.0988C538.047 15.4844 537.865 15.052 537.501 14.8016C537.16 14.5513 536.705 14.4034 536.136 14.3579C535.567 14.3124 534.964 14.2896 534.326 14.2896H531.323V18.0104ZM531.357 25.8956H534.497C535.225 25.8956 535.908 25.8728 536.545 25.8273C537.205 25.7591 537.74 25.577 538.15 25.2812C538.559 24.9626 538.764 24.4392 538.764 23.7109C538.764 22.9827 538.559 22.4707 538.15 22.1749C537.763 21.879 537.239 21.7083 536.579 21.6628C535.942 21.5946 535.248 21.5604 534.497 21.5604H531.357V25.8956Z" fill="white"/>
<path d="M546.58 29.6846V10.4665H554.397C556.901 10.4665 558.881 10.9102 560.337 11.7977C561.793 12.6853 562.522 14.1758 562.522 16.2695C562.522 17.999 562.135 19.3416 561.361 20.2974C560.61 21.2532 559.586 21.7311 558.289 21.7311C558.926 21.7311 559.404 21.879 559.723 22.1749C560.064 22.4479 560.303 22.812 560.439 23.2672C560.599 23.6996 560.724 24.1433 560.815 24.5985C560.906 25.0536 561.031 25.4632 561.19 25.8273C561.35 26.1687 561.6 26.3962 561.941 26.51C562.305 26.6011 562.817 26.51 563.477 26.2369V28.8312C562.84 29.3774 562.135 29.7301 561.361 29.8894C560.587 30.0715 559.848 30.026 559.142 29.7529C558.46 29.5026 557.891 29.0133 557.435 28.2851C556.98 27.5341 556.753 26.5214 556.753 25.247C556.753 24.7009 556.707 24.2116 556.616 23.7792C556.548 23.3241 556.343 22.9486 556.002 22.6527C555.66 22.3569 555.126 22.1635 554.397 22.0725C553.669 21.9587 552.657 21.9587 551.359 22.0725V29.6846H546.58ZM551.359 18.7272H553.749C554.796 18.7272 555.649 18.7158 556.309 18.6931C556.969 18.6703 557.458 18.5224 557.777 18.2493C558.118 17.9535 558.289 17.4301 558.289 16.6791C558.289 15.8371 558.084 15.2568 557.674 14.9382C557.288 14.5968 556.707 14.4034 555.934 14.3579C555.183 14.3124 554.25 14.2896 553.134 14.2896H551.359V18.7272Z" fill="white"/>
<path d="M570.991 25.8956H581.232V29.6846H566.315V10.4665L580.857 10.4665V14.5286H570.991V18.0445H578.331V21.8676H570.991V25.8956Z" fill="white"/>
<path d="M592.375 30.026C590.486 30.026 588.825 29.6618 587.391 28.9336C585.958 28.1827 584.854 27.0789 584.08 25.6225C583.329 24.1661 582.976 22.3569 583.022 20.195C583.09 18.0104 583.557 16.1671 584.422 14.6651C585.309 13.1632 586.504 12.0367 588.006 11.2857C589.508 10.512 591.203 10.1251 593.092 10.1251C595.914 10.1251 598.03 10.694 599.441 11.8319C600.875 12.9697 601.842 14.631 602.343 16.8156L597.734 17.5325C597.552 16.736 597.199 16.1329 596.676 15.7233C596.175 15.2909 595.595 14.9951 594.935 14.8358C594.298 14.6765 593.684 14.5968 593.092 14.5968C591.18 14.5968 589.804 15.0975 588.962 16.0988C588.12 17.0773 587.71 18.3176 587.733 19.8195C587.733 21.6628 588.245 23.051 589.269 23.984C590.316 24.9171 591.806 25.3836 593.74 25.3836C594.309 25.3836 594.901 25.3267 595.515 25.2129C596.13 25.0763 596.699 24.8488 597.222 24.5302C597.746 24.2116 598.144 23.7451 598.417 23.1306H595.311V19.7171H602.718V29.6846L599.543 29.6846L598.519 27.2269H598.451C598.019 28.0006 597.279 28.6605 596.232 29.2067C595.208 29.7529 593.922 30.026 592.375 30.026Z" fill="white"/>
<path d="M604.791 29.6846L610.321 10.4665H618.138L623.873 29.6846H618.787L617.524 24.8715H611.141L609.912 29.6846H604.791ZM614.315 12.4463L612.062 21.2532H616.602L614.315 12.4463Z" fill="white"/>
<path d="M235.64 10.4665H240.623V29.6846H231.475L227.891 12.5487H227.823V29.6846H222.873V10.4665H231.339L235.571 27.6024H235.64V10.4665Z" fill="white"/>
<path d="M252.806 30.1625C249.62 30.1625 247.185 29.2636 245.501 27.4658C243.817 25.6453 242.975 23.1989 242.975 20.1267C242.975 18.1014 243.339 16.3491 244.067 14.8699C244.795 13.368 245.888 12.2074 247.344 11.3881C248.8 10.5461 250.621 10.1251 252.806 10.1251C252.872 10.1251 265.026 10.1255 265.092 10.1263C268.19 10.1635 270.758 11.0733 272.384 12.8559C274.046 14.6537 274.876 17.0773 274.876 20.1267C274.876 22.1066 274.501 23.8589 273.75 25.3836C273.022 26.8855 271.929 28.0575 270.473 28.8995C269.084 29.7154 267.157 30.136 265.092 30.1613C265.026 30.1621 252.872 30.1625 252.806 30.1625ZM252.737 25.5542C252.826 25.5542 265.004 25.5528 265.092 25.55C266.164 25.5162 267.219 25.2787 267.913 24.8374C268.686 24.3368 269.255 23.6768 269.619 22.8576C270.006 22.0156 270.2 21.1053 270.2 20.1267C270.2 19.1254 270.006 18.2038 269.619 17.3618C269.255 16.5198 268.686 15.8485 267.913 15.3478C267.219 14.8855 266.164 14.6367 265.092 14.6012C265.004 14.5983 252.826 14.5968 252.737 14.5968C251.076 14.5968 249.802 15.1202 248.914 16.1671C248.049 17.2139 247.617 18.5338 247.617 20.1267C247.617 21.0825 247.799 21.9814 248.163 22.8234C248.55 23.6427 249.119 24.3026 249.87 24.8033C250.621 25.3039 251.577 25.5542 252.737 25.5542ZM267.749 8.86212H265.632V8.28182L266.964 4.9707H270.889V5.72168L267.749 8.86212Z" fill="white"/>
<path d="M277.646 29.6846V10.4665H285.941C286.396 10.4665 286.954 10.4892 287.614 10.5347C288.273 10.5575 288.956 10.6485 289.662 10.8078C290.367 10.9444 291.027 11.1947 291.642 11.5588C292.256 11.9229 292.757 12.4236 293.143 13.0608C293.53 13.6979 293.724 14.5172 293.724 15.5185C293.724 16.2467 293.576 16.918 293.28 17.5325C292.984 18.1469 292.449 18.6589 291.676 19.0686C290.925 19.4554 289.821 19.6944 288.365 19.7854V19.9219C290.026 19.9674 291.312 20.195 292.222 20.6046C293.132 21.0143 293.769 21.549 294.133 22.209C294.497 22.8462 294.68 23.5858 294.68 24.4278C294.68 25.4746 294.475 26.3394 294.065 27.0221C293.655 27.682 293.109 28.194 292.427 28.5581C291.767 28.9223 291.038 29.184 290.242 29.3433C289.468 29.5025 288.694 29.605 287.921 29.6505C287.17 29.6732 286.51 29.6846 285.941 29.6846H277.646ZM282.323 18.0104H285.326C285.895 18.0104 286.464 17.9876 287.033 17.9421C287.602 17.8738 288.08 17.7145 288.467 17.4642C288.854 17.1911 289.047 16.736 289.047 16.0988C289.047 15.4844 288.865 15.052 288.501 14.8016C288.16 14.5513 287.705 14.4034 287.136 14.3579C286.567 14.3124 285.964 14.2896 285.326 14.2896H282.323V18.0104ZM282.357 25.8956H285.497C286.225 25.8956 286.908 25.8728 287.545 25.8273C288.205 25.7591 288.74 25.577 289.15 25.2812C289.559 24.9626 289.764 24.4392 289.764 23.7109C289.764 22.9827 289.559 22.4707 289.15 22.1749C288.763 21.879 288.239 21.7083 287.579 21.6628C286.942 21.5946 286.248 21.5604 285.497 21.5604H282.357V25.8956Z" fill="white"/>
<path d="M297.58 29.6846V10.4665H305.397C307.901 10.4665 309.881 10.9102 311.337 11.7977C312.793 12.6853 313.522 14.1758 313.522 16.2695C313.522 17.999 313.135 19.3416 312.361 20.2974C311.61 21.2532 310.586 21.7311 309.289 21.7311C309.926 21.7311 310.404 21.879 310.723 22.1749C311.064 22.4479 311.303 22.812 311.439 23.2672C311.599 23.6996 311.724 24.1433 311.815 24.5985C311.906 25.0536 312.031 25.4632 312.19 25.8273C312.35 26.1687 312.6 26.3962 312.941 26.51C313.305 26.6011 313.817 26.51 314.477 26.2369V28.8312C313.84 29.3774 313.135 29.7301 312.361 29.8894C311.587 30.0715 310.848 30.026 310.142 29.7529C309.46 29.5026 308.891 29.0133 308.435 28.2851C307.98 27.5341 307.753 26.5214 307.753 25.247C307.753 24.7009 307.707 24.2116 307.616 23.7792C307.548 23.3241 307.343 22.9486 307.002 22.6527C306.66 22.3569 306.126 22.1635 305.397 22.0725C304.669 21.9587 303.657 21.9587 302.359 22.0725V29.6846H297.58ZM302.359 18.7272H304.749C305.796 18.7272 306.649 18.7158 307.309 18.6931C307.969 18.6703 308.458 18.5224 308.777 18.2493C309.118 17.9535 309.289 17.4301 309.289 16.6791C309.289 15.8371 309.084 15.2568 308.674 14.9382C308.288 14.5968 307.707 14.4034 306.934 14.3579C306.183 14.3124 305.25 14.2896 304.134 14.2896H302.359V18.7272Z" fill="white"/>
<path d="M321.991 25.8956H332.232V29.6846H317.315V10.4665L331.857 10.4665V14.5286H321.991V18.0445H329.331V21.8676H321.991V25.8956Z" fill="white"/>
<path d="M343.375 30.026C341.486 30.026 339.825 29.6618 338.391 28.9336C336.958 28.1827 335.854 27.0789 335.08 25.6225C334.329 24.1661 333.976 22.3569 334.022 20.195C334.09 18.0104 334.557 16.1671 335.422 14.6651C336.309 13.1632 337.504 12.0367 339.006 11.2857C340.508 10.512 342.203 10.1251 344.092 10.1251C346.914 10.1251 349.03 10.694 350.441 11.8319C351.875 12.9697 352.842 14.631 353.343 16.8156L348.734 17.5325C348.552 16.736 348.199 16.1329 347.676 15.7233C347.175 15.2909 346.595 14.9951 345.935 14.8358C345.298 14.6765 344.684 14.5968 344.092 14.5968C342.18 14.5968 340.804 15.0975 339.962 16.0988C339.12 17.0773 338.71 18.3176 338.733 19.8195C338.733 21.6628 339.245 23.051 340.269 23.984C341.316 24.9171 342.806 25.3836 344.74 25.3836C345.309 25.3836 345.901 25.3267 346.515 25.2129C347.13 25.0763 347.699 24.8488 348.222 24.5302C348.746 24.2116 349.144 23.7451 349.417 23.1306H346.311V19.7171H353.718V29.6846L350.543 29.6846L349.519 27.2269H349.451C349.019 28.0006 348.279 28.6605 347.232 29.2067C346.208 29.7529 344.922 30.026 343.375 30.026Z" fill="white"/>
<path d="M355.791 29.6846L361.321 10.4665H369.138L374.873 29.6846H369.787L368.524 24.8715H362.141L360.912 29.6846H355.791ZM365.315 12.4463L363.062 21.2532H367.602L365.315 12.4463Z" fill="white"/>
<path d="M-13.3604 10.4665H-8.37664V29.6846H-17.5249L-21.1091 12.5487H-21.1773V29.6846H-26.127V10.4665H-17.6614L-13.4286 27.6024H-13.3604V10.4665Z" fill="white"/>
<path d="M3.80564 30.1625C0.619682 30.1625 -1.8153 29.2636 -3.4993 27.4658C-5.1833 25.6453 -6.02531 23.1989 -6.02531 20.1267C-6.02531 18.1014 -5.6612 16.3491 -4.93298 14.8699C-4.20476 13.368 -3.11243 12.2074 -1.656 11.3881C-0.199562 10.5461 1.62098 10.1251 3.80564 10.1251C3.87206 10.1251 16.0265 10.1255 16.0924 10.1263C19.1896 10.1635 21.7578 11.0733 23.3844 12.8559C25.0457 14.6537 25.8763 17.0773 25.8763 20.1267C25.8763 22.1066 25.5008 23.8589 24.7498 25.3836C24.0216 26.8855 22.9293 28.0575 21.4729 28.8995C20.0836 29.7154 18.1568 30.136 16.0924 30.1613C16.0264 30.1621 3.87195 30.1625 3.80564 30.1625ZM3.73737 25.5542C3.82628 25.5542 16.0035 25.5528 16.0924 25.55C17.1638 25.5162 18.2193 25.2787 18.9127 24.8374C19.6865 24.3368 20.2554 23.6768 20.6195 22.8576C21.0064 22.0156 21.1998 21.1053 21.1998 20.1267C21.1998 19.1254 21.0064 18.2038 20.6195 17.3618C20.2554 16.5198 19.6865 15.8485 18.9127 15.3478C18.2193 14.8855 17.1638 14.6367 16.0924 14.6012C16.0035 14.5983 3.82628 14.5968 3.73737 14.5968C2.07612 14.5968 0.801739 15.1202 -0.0857773 16.1671C-0.950537 17.2139 -1.38292 18.5338 -1.38292 20.1267C-1.38292 21.0825 -1.20086 21.9814 -0.836754 22.8234C-0.449888 23.6427 0.119034 24.3026 0.870008 24.8033C1.62098 25.3039 2.57677 25.5542 3.73737 25.5542ZM18.7486 8.86212H16.6323V8.28182L17.9635 4.9707H21.8891V5.72168L18.7486 8.86212Z" fill="white"/>
<path d="M28.6461 29.6846V10.4665H36.9409C37.3961 10.4665 37.9536 10.4892 38.6135 10.5347C39.2735 10.5575 39.9562 10.6485 40.6617 10.8078C41.3671 10.9444 42.0271 11.1947 42.6415 11.5588C43.2559 11.9229 43.7566 12.4236 44.1435 13.0608C44.5303 13.6979 44.7237 14.5172 44.7237 15.5185C44.7237 16.2467 44.5758 16.918 44.28 17.5325C43.9842 18.1469 43.4494 18.6589 42.6756 19.0686C41.9247 19.4554 40.821 19.6944 39.3645 19.7854V19.9219C41.0258 19.9674 42.3115 20.195 43.2218 20.6046C44.1321 21.0143 44.7693 21.549 45.1334 22.209C45.4975 22.8462 45.6795 23.5858 45.6795 24.4278C45.6795 25.4746 45.4747 26.3394 45.0651 27.0221C44.6555 27.682 44.1093 28.194 43.4266 28.5581C42.7667 28.9223 42.0385 29.184 41.242 29.3433C40.4682 29.5025 39.6945 29.605 38.9208 29.6505C38.1698 29.6732 37.5098 29.6846 36.9409 29.6846H28.6461ZM33.3226 18.0104H36.3265C36.8954 18.0104 37.4643 17.9876 38.0332 17.9421C38.6022 17.8738 39.0801 17.7145 39.4669 17.4642C39.8538 17.1911 40.0472 16.736 40.0472 16.0988C40.0472 15.4844 39.8652 15.052 39.5011 14.8016C39.1597 14.5513 38.7046 14.4034 38.1357 14.3579C37.5667 14.3124 36.9637 14.2896 36.3265 14.2896H33.3226V18.0104ZM33.3567 25.8956H36.4972C37.2254 25.8956 37.9081 25.8728 38.5453 25.8273C39.2052 25.7591 39.74 25.577 40.1496 25.2812C40.5593 24.9626 40.7641 24.4392 40.7641 23.7109C40.7641 22.9827 40.5593 22.4707 40.1496 22.1749C39.7628 21.879 39.2394 21.7083 38.5794 21.6628C37.9422 21.5946 37.2481 21.5604 36.4972 21.5604H33.3567V25.8956Z" fill="white"/>
<path d="M48.5805 29.6846V10.4665H56.3975C58.9007 10.4665 60.8806 10.9102 62.337 11.7977C63.7934 12.6853 64.5216 14.1758 64.5216 16.2695C64.5216 17.999 64.1348 19.3416 63.361 20.2974C62.6101 21.2532 61.586 21.7311 60.2889 21.7311C60.9261 21.7311 61.404 21.879 61.7226 22.1749C62.0639 22.4479 62.3029 22.812 62.4394 23.2672C62.5987 23.6996 62.7239 24.1433 62.8149 24.5985C62.9059 25.0536 63.0311 25.4632 63.1904 25.8273C63.3497 26.1687 63.6 26.3962 63.9413 26.51C64.3055 26.6011 64.8175 26.51 65.4774 26.2369V28.8312C64.8402 29.3774 64.1348 29.7301 63.361 29.8894C62.5873 30.0715 61.8477 30.026 61.1423 29.7529C60.4595 29.5026 59.8906 29.0133 59.4355 28.2851C58.9804 27.5341 58.7528 26.5214 58.7528 25.247C58.7528 24.7009 58.7073 24.2116 58.6162 23.7792C58.548 23.3241 58.3432 22.9486 58.0018 22.6527C57.6605 22.3569 57.1257 22.1635 56.3975 22.0725C55.6693 21.9587 54.6566 21.9587 53.3594 22.0725V29.6846H48.5805ZM53.3594 18.7272H55.7489C56.7957 18.7272 57.6491 18.7158 58.309 18.6931C58.969 18.6703 59.4583 18.5224 59.7769 18.2493C60.1182 17.9535 60.2889 17.4301 60.2889 16.6791C60.2889 15.8371 60.0841 15.2568 59.6744 14.9382C59.2876 14.5968 58.7073 14.4034 57.9335 14.3579C57.1826 14.3124 56.2495 14.2896 55.1345 14.2896H53.3594V18.7272Z" fill="white"/>
<path d="M72.9914 25.8956H83.232V29.6846H68.3149V10.4665L82.8565 10.4665V14.5286H72.9914V18.0445H80.3305V21.8676H72.9914V25.8956Z" fill="white"/>
<path d="M94.375 30.026C92.4862 30.026 90.825 29.6618 89.3913 28.9336C87.9576 28.1827 86.8539 27.0789 86.0802 25.6225C85.3292 24.1661 84.9765 22.3569 85.022 20.195C85.0903 18.0104 85.5568 16.1671 86.4215 14.6651C87.3091 13.1632 88.5038 12.0367 90.0057 11.2857C91.5077 10.512 93.2031 10.1251 95.0919 10.1251C97.9137 10.1251 100.03 10.694 101.441 11.8319C102.875 12.9697 103.842 14.631 104.343 16.8156L99.7343 17.5325C99.5522 16.736 99.1995 16.1329 98.6761 15.7233C98.1754 15.2909 97.5951 14.9951 96.9352 14.8358C96.298 14.6765 95.6836 14.5968 95.0919 14.5968C93.1803 14.5968 91.8035 15.0975 90.9615 16.0988C90.1195 17.0773 89.7099 18.3176 89.7326 19.8195C89.7326 21.6628 90.2447 23.051 91.2687 23.984C92.3155 24.9171 93.8061 25.3836 95.7404 25.3836C96.3094 25.3836 96.901 25.3267 97.5155 25.2129C98.1299 25.0763 98.6988 24.8488 99.2222 24.5302C99.7456 24.2116 100.144 23.7451 100.417 23.1306H97.3107V19.7171H104.718V29.6846L101.543 29.6846L100.519 27.2269H100.451C100.019 28.0006 99.2791 28.6605 98.2323 29.2067C97.2083 29.7529 95.9225 30.026 94.375 30.026Z" fill="white"/>
<path d="M106.791 29.6846L112.321 10.4665H120.138L125.873 29.6846H120.787L119.524 24.8715H113.141L111.912 29.6846H106.791ZM116.315 12.4463L114.062 21.2532H118.602L116.315 12.4463Z" fill="white"/>
</g>
<defs>
<filter id="filter0_b_997_185" x="133.068" y="3.24382" width="58.9489" height="29.5495" filterUnits="userSpaceOnUse" color-interpolation-filters="sRGB">
<feFlood flood-opacity="0" result="BackgroundImageFix"/>
<feGaussianBlur in="BackgroundImageFix" stdDeviation="6.4025"/>
<feComposite in2="SourceAlpha" operator="in" result="effect1_backgroundBlur_997_185"/>
<feBlend mode="normal" in="SourceGraphic" in2="effect1_backgroundBlur_997_185" result="shape"/>
</filter>
<filter id="filter1_b_997_185" x="382.068" y="3.24382" width="58.9489" height="29.5495" filterUnits="userSpaceOnUse" color-interpolation-filters="sRGB">
<feFlood flood-opacity="0" result="BackgroundImageFix"/>
<feGaussianBlur in="BackgroundImageFix" stdDeviation="6.4025"/>
<feComposite in2="SourceAlpha" operator="in" result="effect1_backgroundBlur_997_185"/>
<feBlend mode="normal" in="SourceGraphic" in2="effect1_backgroundBlur_997_185" result="shape"/>
</filter>
<filter id="filter2_b_997_185" x="631.068" y="3.24382" width="58.9489" height="29.5495" filterUnits="userSpaceOnUse" color-interpolation-filters="sRGB">
<feFlood flood-opacity="0" result="BackgroundImageFix"/>
<feGaussianBlur in="BackgroundImageFix" stdDeviation="6.4025"/>
<feComposite in2="SourceAlpha" operator="in" result="effect1_backgroundBlur_997_185"/>
<feBlend mode="normal" in="SourceGraphic" in2="effect1_backgroundBlur_997_185" result="shape"/>
</filter>
<filter id="filter3_b_997_185" x="880.068" y="3.24382" width="58.9486" height="29.5495" filterUnits="userSpaceOnUse" color-interpolation-filters="sRGB">
<feFlood flood-opacity="0" result="BackgroundImageFix"/>
<feGaussianBlur in="BackgroundImageFix" stdDeviation="6.4025"/>
<feComposite in2="SourceAlpha" operator="in" result="effect1_backgroundBlur_997_185"/>
<feBlend mode="normal" in="SourceGraphic" in2="effect1_backgroundBlur_997_185" result="shape"/>
</filter>
<filter id="filter4_b_997_185" x="1129.07" y="3.24382" width="58.9486" height="29.5495" filterUnits="userSpaceOnUse" color-interpolation-filters="sRGB">
<feFlood flood-opacity="0" result="BackgroundImageFix"/>
<feGaussianBlur in="BackgroundImageFix" stdDeviation="6.4025"/>
<feComposite in2="SourceAlpha" operator="in" result="effect1_backgroundBlur_997_185"/>
<feBlend mode="normal" in="SourceGraphic" in2="effect1_backgroundBlur_997_185" result="shape"/>
</filter>
<filter id="filter5_b_997_185" x="1627.07" y="3.24577" width="58.9486" height="29.5495" filterUnits="userSpaceOnUse" color-interpolation-filters="sRGB">
<feFlood flood-opacity="0" result="BackgroundImageFix"/>
<feGaussianBlur in="BackgroundImageFix" stdDeviation="6.4025"/>
<feComposite in2="SourceAlpha" operator="in" result="effect1_backgroundBlur_997_185"/>
<feBlend mode="normal" in="SourceGraphic" in2="effect1_backgroundBlur_997_185" result="shape"/>
</filter>
<filter id="filter6_b_997_185" x="1378.07" y="3.24382" width="58.9486" height="29.5495" filterUnits="userSpaceOnUse" color-interpolation-filters="sRGB">
<feFlood flood-opacity="0" result="BackgroundImageFix"/>
<feGaussianBlur in="BackgroundImageFix" stdDeviation="6.4025"/>
<feComposite in2="SourceAlpha" operator="in" result="effect1_backgroundBlur_997_185"/>
<feBlend mode="normal" in="SourceGraphic" in2="effect1_backgroundBlur_997_185" result="shape"/>
</filter>
<filter id="filter7_b_997_185" x="1876.07" y="3.24382" width="58.9486" height="29.5495" filterUnits="userSpaceOnUse" color-interpolation-filters="sRGB">
<feFlood flood-opacity="0" result="BackgroundImageFix"/>
<feGaussianBlur in="BackgroundImageFix" stdDeviation="6.4025"/>
<feComposite in2="SourceAlpha" operator="in" result="effect1_backgroundBlur_997_185"/>
<feBlend mode="normal" in="SourceGraphic" in2="effect1_backgroundBlur_997_185" result="shape"/>
</filter>
<clipPath id="clip0_997_185">
<rect width="1922" height="35" fill="white"/>
</clipPath>
</defs>
</svg>
