<svg width="1920" height="35" viewBox="0 0 1920 35" fill="none" xmlns="http://www.w3.org/2000/svg">
<g clip-path="url(#clip0_1021_224)">
<path d="M216.586 40.2949L216.516 19.3072L214.253 40.1726L216.377 19.2926L211.945 39.8071L216.24 19.2634L209.687 39.2022L216.106 19.2201L207.506 38.3648L215.978 19.163L205.424 37.3039L215.857 19.0929L203.464 36.0312L215.743 19.0105L201.648 34.5605L215.639 18.9167L199.995 32.9081L215.545 18.8125L198.525 31.0921L215.463 18.6991L197.252 29.1322L215.393 18.5777L196.191 27.0501L215.336 18.4496L195.354 24.8685L215.292 18.3162L194.749 22.6112L215.263 18.1791L194.383 20.3032L215.249 18.0396L194.261 17.9695L215.249 17.8994L194.383 15.6359L215.263 17.76L194.749 13.3278L215.292 17.6228L195.354 11.0706L215.336 17.4895L196.191 8.88897L215.393 17.3614L197.252 6.80682L215.463 17.24L198.525 4.84698L215.545 17.1265L199.995 3.03092L215.639 17.0223L201.648 1.37852L215.743 16.9285L203.464 -0.0921021L215.857 16.8461L205.424 -1.36484L215.978 16.776L207.506 -2.42574L216.106 16.719L209.687 -3.26319L216.24 16.6756L211.945 -3.86801L216.377 16.6465L214.253 -4.23357L216.516 16.6318L216.586 -4.35587L216.656 16.6318L218.92 -4.23357L216.796 16.6465L221.228 -3.86801L216.933 16.6756L223.485 -3.26319L217.066 16.719L225.667 -2.42574L217.194 16.776L227.749 -1.36484L217.316 16.8461L229.709 -0.0921021L217.429 16.9285L231.525 1.37852L217.533 17.0223L233.177 3.03092L217.627 17.1265L234.648 4.84698L217.71 17.24L235.921 6.80682L217.78 17.3614L236.981 8.88897L217.837 17.4895L237.819 11.0706L217.88 17.6228L238.424 13.3278L217.909 17.76L238.789 15.6359L217.924 17.8994L238.912 17.9695L217.924 18.0396L238.789 20.3032L217.909 18.1791L238.424 22.6112L217.88 18.3162L237.819 24.8685L217.837 18.4496L236.981 27.0501L217.78 18.5777L235.921 29.1322L217.71 18.6991L234.648 31.0921L217.627 18.8125L233.177 32.9081L217.533 18.9167L231.525 34.5605L217.429 19.0105L229.709 36.0312L217.316 19.0929L227.749 37.3039L217.194 19.163L225.667 38.3648L217.066 19.2201L223.485 39.2022L216.933 19.2634L221.228 39.8071L216.796 19.2926L218.92 40.1726L216.656 19.3072L216.586 40.2949Z" fill="black"/>
<path d="M215.44 40.2674L216.448 19.3038L213.116 40.0254L216.31 19.282L210.83 39.5418L216.174 19.2458L208.607 38.8218L216.043 19.1957L206.471 37.8734L215.918 19.1322L204.446 36.707L215.801 19.0559L202.554 35.3353L215.692 18.9678L200.816 33.7733L215.592 18.8688L199.251 32.0382L215.504 18.7599L197.875 30.149L215.428 18.6424L196.705 28.1264L215.364 18.5175L195.752 25.9925L215.314 18.3866L195.028 23.7708L215.277 18.2513L194.54 21.4855L215.255 18.1128L194.293 19.1616L215.248 17.9728L194.291 16.8248L215.255 17.8328L194.533 14.5005L215.277 17.6942L195.017 12.2143L215.313 17.5588L195.737 9.99111L215.363 17.4278L196.685 7.85537L215.426 17.3028L197.852 5.83046L215.503 17.1852L199.223 3.93858L215.591 17.0761L200.785 2.20045L215.69 16.9769L202.52 0.635099L215.799 16.8885L204.41 -0.740308L215.916 16.8121L206.432 -1.9107L216.041 16.7483L208.566 -2.86327L216.172 16.6979L210.788 -3.58756L216.307 16.6615L213.073 -4.07565L216.446 16.6394L215.397 -4.32218L216.586 16.6319L217.734 -4.32446L216.726 16.6391L220.058 -4.08246L216.864 16.6609L222.344 -3.59884L217 16.6971L224.567 -2.87888L217.131 16.7472L226.703 -1.93049L217.256 16.8108L228.728 -0.764042L217.373 16.887L230.62 0.607674L217.482 16.9751L232.358 2.16963L217.582 17.0742L233.923 3.90472L217.67 17.1831L235.299 5.79392L217.746 17.3006L236.469 7.81654L217.81 17.4254L237.422 9.95043L217.861 17.5563L238.146 12.1722L217.897 17.6917L238.634 14.4575L217.919 17.8302L238.881 16.7813L217.927 17.9702L238.883 19.1181L217.919 18.1102L238.641 21.4424L217.898 18.2487L238.157 23.7287L217.861 18.3842L237.437 25.9518L217.811 18.5151L236.489 28.0876L217.748 18.6401L235.323 30.1125L217.672 18.7578L233.951 32.0044L217.583 18.8668L232.389 33.7425L217.484 18.9661L230.654 35.3078L217.375 19.0544L228.765 36.6832L217.258 19.1309L226.742 37.8536L217.133 19.1947L224.608 38.8062L217.002 19.245L222.386 39.5305L216.867 19.2814L220.101 40.0186L216.728 19.3035L217.777 40.2651L216.588 19.311L215.44 40.2674Z" fill="black"/>
<path d="M214.843 40.2278L216.412 19.2987L212.526 39.9237L216.274 19.2732L210.254 39.3791L216.14 19.2334L208.051 38.5999L216.01 19.1798L205.941 37.5947L215.887 19.113L203.948 36.3745L215.771 19.0336L202.094 34.9527L215.664 18.9426L200.398 33.3447L215.568 18.8409L198.88 31.5684L215.483 18.7297L197.555 29.6431L215.409 18.6102L196.439 27.5899L215.349 18.4837L195.544 25.4312L215.302 18.3515L194.88 23.1909L215.269 18.2152L194.453 20.8934L215.251 18.0762L194.269 18.5638L215.247 17.936L194.329 16.2277L215.258 17.7963L194.633 13.9108L215.284 17.6584L195.178 11.6383L215.323 17.5239L195.957 9.43515L215.377 17.3944L196.962 7.32555L215.444 17.2711L198.182 5.33259L215.523 17.1555L199.604 3.47809L215.614 17.0489L201.212 1.78237L215.716 16.9523L202.988 0.26401L215.827 16.8669L204.914 -1.06035L215.947 16.7936L206.967 -2.17621L216.073 16.7332L209.126 -3.07133L216.205 16.6864L211.366 -3.73591L216.342 16.6536L213.663 -4.16267L216.481 16.6352L215.993 -4.34694L216.621 16.6315L218.329 -4.28668L216.761 16.6424L220.646 -3.98258L216.898 16.6679L222.919 -3.43795L217.033 16.7077L225.122 -2.65876L217.162 16.7613L227.231 -1.65356L217.286 16.8282L229.224 -0.433346L217.401 16.9075L231.079 0.988503L217.508 16.9986L232.774 2.59641L217.604 17.1002L234.293 4.37276L217.69 17.2114L235.617 6.29809L217.763 17.331L236.733 8.35131L217.824 17.4575L237.628 10.5099L217.87 17.5896L238.293 12.7503L217.903 17.726L238.719 15.0478L217.922 17.865L238.904 17.3774L217.925 18.0051L238.843 19.7134L217.914 18.1449L238.539 22.0304L217.889 18.2828L237.995 24.3029L217.849 18.4172L237.216 26.506L217.795 18.5468L236.21 28.6156L217.729 18.67L234.99 30.6086L217.649 18.7856L233.568 32.4631L217.558 18.8923L231.96 34.1588L217.457 18.9888L230.184 35.6772L217.345 19.0742L228.259 37.0015L217.226 19.1475L226.205 38.1174L217.099 19.2079L224.047 39.0125L216.967 19.2548L221.806 39.6771L216.831 19.2876L219.509 40.1038L216.692 19.3059L217.179 40.2881L216.552 19.3097L214.843 40.2278Z" fill="black"/>
<g filter="url(#filter0_b_1021_224)">
<rect x="217.211" y="16.0488" width="3.94002" height="33.3387" transform="rotate(90 217.211 16.0488)" fill="white" fill-opacity="0.1"/>
</g>
<path d="M465.586 40.2949L465.516 19.3072L463.253 40.1726L465.377 19.2926L460.945 39.8071L465.24 19.2634L458.687 39.2022L465.106 19.2201L456.506 38.3648L464.978 19.163L454.424 37.3039L464.857 19.0929L452.464 36.0312L464.743 19.0105L450.648 34.5605L464.639 18.9167L448.995 32.9081L464.545 18.8125L447.525 31.0921L464.463 18.6991L446.252 29.1322L464.393 18.5777L445.191 27.0501L464.336 18.4496L444.354 24.8685L464.292 18.3162L443.749 22.6112L464.263 18.1791L443.383 20.3032L464.249 18.0396L443.261 17.9695L464.249 17.8994L443.383 15.6359L464.263 17.76L443.749 13.3278L464.292 17.6228L444.354 11.0706L464.336 17.4895L445.191 8.88897L464.393 17.3614L446.252 6.80682L464.463 17.24L447.525 4.84698L464.545 17.1265L448.995 3.03092L464.639 17.0223L450.648 1.37852L464.743 16.9285L452.464 -0.0921021L464.857 16.8461L454.424 -1.36484L464.978 16.776L456.506 -2.42574L465.106 16.719L458.687 -3.26319L465.24 16.6756L460.945 -3.86801L465.377 16.6465L463.253 -4.23357L465.516 16.6318L465.586 -4.35587L465.656 16.6318L467.92 -4.23357L465.796 16.6465L470.228 -3.86801L465.933 16.6756L472.485 -3.26319L466.066 16.719L474.667 -2.42574L466.194 16.776L476.749 -1.36484L466.316 16.8461L478.709 -0.0921021L466.429 16.9285L480.525 1.37852L466.533 17.0223L482.177 3.03092L466.627 17.1265L483.648 4.84698L466.71 17.24L484.921 6.80682L466.78 17.3614L485.981 8.88897L466.837 17.4895L486.819 11.0706L466.88 17.6228L487.424 13.3278L466.909 17.76L487.789 15.6359L466.924 17.8994L487.912 17.9695L466.924 18.0396L487.789 20.3032L466.909 18.1791L487.424 22.6112L466.88 18.3162L486.819 24.8685L466.837 18.4496L485.981 27.0501L466.78 18.5777L484.921 29.1322L466.71 18.6991L483.648 31.0921L466.627 18.8125L482.177 32.9081L466.533 18.9167L480.525 34.5605L466.429 19.0105L478.709 36.0312L466.316 19.0929L476.749 37.3039L466.194 19.163L474.667 38.3648L466.066 19.2201L472.485 39.2022L465.933 19.2634L470.228 39.8071L465.796 19.2926L467.92 40.1726L465.656 19.3072L465.586 40.2949Z" fill="black"/>
<path d="M464.44 40.2674L465.448 19.3038L462.116 40.0254L465.31 19.282L459.83 39.5418L465.174 19.2458L457.607 38.8218L465.043 19.1957L455.471 37.8734L464.918 19.1322L453.446 36.707L464.801 19.0559L451.554 35.3353L464.692 18.9678L449.816 33.7733L464.592 18.8688L448.251 32.0382L464.504 18.7599L446.875 30.149L464.428 18.6424L445.705 28.1264L464.364 18.5175L444.752 25.9925L464.314 18.3866L444.028 23.7708L464.277 18.2513L443.54 21.4855L464.255 18.1128L443.293 19.1616L464.248 17.9728L443.291 16.8248L464.255 17.8328L443.533 14.5005L464.277 17.6942L444.017 12.2143L464.313 17.5588L444.737 9.99111L464.363 17.4278L445.685 7.85537L464.426 17.3028L446.852 5.83046L464.503 17.1852L448.223 3.93858L464.591 17.0761L449.785 2.20045L464.69 16.9769L451.52 0.635099L464.799 16.8885L453.41 -0.740308L464.916 16.8121L455.432 -1.9107L465.041 16.7483L457.566 -2.86327L465.172 16.6979L459.788 -3.58756L465.307 16.6615L462.073 -4.07565L465.446 16.6394L464.397 -4.32218L465.586 16.6319L466.734 -4.32446L465.726 16.6391L469.058 -4.08246L465.864 16.6609L471.344 -3.59884L466 16.6971L473.567 -2.87888L466.131 16.7472L475.703 -1.93049L466.256 16.8108L477.728 -0.764042L466.373 16.887L479.62 0.607674L466.482 16.9751L481.358 2.16963L466.582 17.0742L482.923 3.90472L466.67 17.1831L484.299 5.79392L466.746 17.3006L485.469 7.81654L466.81 17.4254L486.422 9.95043L466.861 17.5563L487.146 12.1722L466.897 17.6917L487.634 14.4575L466.919 17.8302L487.881 16.7813L466.927 17.9702L487.883 19.1181L466.919 18.1102L487.641 21.4424L466.898 18.2487L487.157 23.7287L466.861 18.3842L486.437 25.9518L466.811 18.5151L485.489 28.0876L466.748 18.6401L484.323 30.1125L466.672 18.7578L482.951 32.0044L466.583 18.8668L481.389 33.7425L466.484 18.9661L479.654 35.3078L466.375 19.0544L477.765 36.6832L466.258 19.1309L475.742 37.8536L466.133 19.1947L473.608 38.8062L466.002 19.245L471.386 39.5305L465.867 19.2814L469.101 40.0186L465.728 19.3035L466.777 40.2651L465.588 19.311L464.44 40.2674Z" fill="black"/>
<path d="M463.843 40.2278L465.412 19.2987L461.526 39.9237L465.274 19.2732L459.254 39.3791L465.14 19.2334L457.051 38.5999L465.01 19.1798L454.941 37.5947L464.887 19.113L452.948 36.3745L464.771 19.0336L451.094 34.9527L464.664 18.9426L449.398 33.3447L464.568 18.8409L447.88 31.5684L464.483 18.7297L446.555 29.6431L464.409 18.6102L445.439 27.5899L464.349 18.4837L444.544 25.4312L464.302 18.3515L443.88 23.1909L464.269 18.2152L443.453 20.8934L464.251 18.0762L443.269 18.5638L464.247 17.936L443.329 16.2277L464.258 17.7963L443.633 13.9108L464.284 17.6584L444.178 11.6383L464.323 17.5239L444.957 9.43515L464.377 17.3944L445.962 7.32555L464.444 17.2711L447.182 5.33259L464.523 17.1555L448.604 3.47809L464.614 17.0489L450.212 1.78237L464.716 16.9523L451.988 0.26401L464.827 16.8669L453.914 -1.06035L464.947 16.7936L455.967 -2.17621L465.073 16.7332L458.126 -3.07133L465.205 16.6864L460.366 -3.73591L465.342 16.6536L462.663 -4.16267L465.481 16.6352L464.993 -4.34694L465.621 16.6315L467.329 -4.28668L465.761 16.6424L469.646 -3.98258L465.898 16.6679L471.919 -3.43795L466.033 16.7077L474.122 -2.65876L466.162 16.7613L476.231 -1.65356L466.286 16.8282L478.224 -0.433346L466.401 16.9075L480.079 0.988503L466.508 16.9986L481.774 2.59641L466.604 17.1002L483.293 4.37276L466.69 17.2114L484.617 6.29809L466.763 17.331L485.733 8.35131L466.824 17.4575L486.628 10.5099L466.87 17.5896L487.293 12.7503L466.903 17.726L487.719 15.0478L466.922 17.865L487.904 17.3774L466.925 18.0051L487.843 19.7134L466.914 18.1449L487.539 22.0304L466.889 18.2828L486.995 24.3029L466.849 18.4172L486.216 26.506L466.795 18.5468L485.21 28.6156L466.729 18.67L483.99 30.6086L466.649 18.7856L482.568 32.4631L466.558 18.8923L480.96 34.1588L466.457 18.9888L479.184 35.6772L466.345 19.0742L477.259 37.0015L466.226 19.1475L475.205 38.1174L466.099 19.2079L473.047 39.0125L465.967 19.2548L470.806 39.6771L465.831 19.2876L468.509 40.1038L465.692 19.3059L466.179 40.2881L465.552 19.3097L463.843 40.2278Z" fill="black"/>
<g filter="url(#filter1_b_1021_224)">
<rect x="466.211" y="16.0488" width="3.94002" height="33.3387" transform="rotate(90 466.211 16.0488)" fill="white" fill-opacity="0.1"/>
</g>
<path d="M714.586 40.2949L714.516 19.3072L712.253 40.1726L714.377 19.2926L709.945 39.8071L714.24 19.2634L707.687 39.2022L714.106 19.2201L705.506 38.3648L713.978 19.163L703.424 37.3039L713.857 19.0929L701.464 36.0312L713.743 19.0105L699.648 34.5605L713.639 18.9167L697.995 32.9081L713.545 18.8125L696.525 31.0921L713.463 18.6991L695.252 29.1322L713.393 18.5777L694.191 27.0501L713.336 18.4496L693.354 24.8685L713.292 18.3162L692.749 22.6112L713.263 18.1791L692.383 20.3032L713.249 18.0396L692.261 17.9695L713.249 17.8994L692.383 15.6359L713.263 17.76L692.749 13.3278L713.292 17.6228L693.354 11.0706L713.336 17.4895L694.191 8.88897L713.393 17.3614L695.252 6.80682L713.463 17.24L696.525 4.84698L713.545 17.1265L697.995 3.03092L713.639 17.0223L699.648 1.37852L713.743 16.9285L701.464 -0.0921021L713.857 16.8461L703.424 -1.36484L713.978 16.776L705.506 -2.42574L714.106 16.719L707.687 -3.26319L714.24 16.6756L709.945 -3.86801L714.377 16.6465L712.253 -4.23357L714.516 16.6318L714.586 -4.35587L714.656 16.6318L716.92 -4.23357L714.796 16.6465L719.228 -3.86801L714.933 16.6756L721.485 -3.26319L715.066 16.719L723.667 -2.42574L715.194 16.776L725.749 -1.36484L715.316 16.8461L727.709 -0.0921021L715.429 16.9285L729.525 1.37852L715.533 17.0223L731.177 3.03092L715.627 17.1265L732.648 4.84698L715.71 17.24L733.921 6.80682L715.78 17.3614L734.981 8.88897L715.837 17.4895L735.819 11.0706L715.88 17.6228L736.424 13.3278L715.909 17.76L736.789 15.6359L715.924 17.8994L736.912 17.9695L715.924 18.0396L736.789 20.3032L715.909 18.1791L736.424 22.6112L715.88 18.3162L735.819 24.8685L715.837 18.4496L734.981 27.0501L715.78 18.5777L733.921 29.1322L715.71 18.6991L732.648 31.0921L715.627 18.8125L731.177 32.9081L715.533 18.9167L729.525 34.5605L715.429 19.0105L727.709 36.0312L715.316 19.0929L725.749 37.3039L715.194 19.163L723.667 38.3648L715.066 19.2201L721.485 39.2022L714.933 19.2634L719.228 39.8071L714.796 19.2926L716.92 40.1726L714.656 19.3072L714.586 40.2949Z" fill="black"/>
<path d="M713.44 40.2674L714.448 19.3038L711.116 40.0254L714.31 19.282L708.83 39.5418L714.174 19.2458L706.607 38.8218L714.043 19.1957L704.471 37.8734L713.918 19.1322L702.446 36.707L713.801 19.0559L700.554 35.3353L713.692 18.9678L698.816 33.7733L713.592 18.8688L697.251 32.0382L713.504 18.7599L695.875 30.149L713.428 18.6424L694.705 28.1264L713.364 18.5175L693.752 25.9925L713.314 18.3866L693.028 23.7708L713.277 18.2513L692.54 21.4855L713.255 18.1128L692.293 19.1616L713.248 17.9728L692.291 16.8248L713.255 17.8328L692.533 14.5005L713.277 17.6942L693.017 12.2143L713.313 17.5588L693.737 9.99111L713.363 17.4278L694.685 7.85537L713.426 17.3028L695.852 5.83046L713.503 17.1852L697.223 3.93858L713.591 17.0761L698.785 2.20045L713.69 16.9769L700.52 0.635099L713.799 16.8885L702.41 -0.740308L713.916 16.8121L704.432 -1.9107L714.041 16.7483L706.566 -2.86327L714.172 16.6979L708.788 -3.58756L714.307 16.6615L711.073 -4.07565L714.446 16.6394L713.397 -4.32218L714.586 16.6319L715.734 -4.32446L714.726 16.6391L718.058 -4.08246L714.864 16.6609L720.344 -3.59884L715 16.6971L722.567 -2.87888L715.131 16.7472L724.703 -1.93049L715.256 16.8108L726.728 -0.764042L715.373 16.887L728.62 0.607674L715.482 16.9751L730.358 2.16963L715.582 17.0742L731.923 3.90472L715.67 17.1831L733.299 5.79392L715.746 17.3006L734.469 7.81654L715.81 17.4254L735.422 9.95043L715.861 17.5563L736.146 12.1722L715.897 17.6917L736.634 14.4575L715.919 17.8302L736.881 16.7813L715.927 17.9702L736.883 19.1181L715.919 18.1102L736.641 21.4424L715.898 18.2487L736.157 23.7287L715.861 18.3842L735.437 25.9518L715.811 18.5151L734.489 28.0876L715.748 18.6401L733.323 30.1125L715.672 18.7578L731.951 32.0044L715.583 18.8668L730.389 33.7425L715.484 18.9661L728.654 35.3078L715.375 19.0544L726.765 36.6832L715.258 19.1309L724.742 37.8536L715.133 19.1947L722.608 38.8062L715.002 19.245L720.386 39.5305L714.867 19.2814L718.101 40.0186L714.728 19.3035L715.777 40.2651L714.588 19.311L713.44 40.2674Z" fill="black"/>
<path d="M712.843 40.2278L714.412 19.2987L710.526 39.9237L714.274 19.2732L708.254 39.3791L714.14 19.2334L706.051 38.5999L714.01 19.1798L703.941 37.5947L713.887 19.113L701.948 36.3745L713.771 19.0336L700.094 34.9527L713.664 18.9426L698.398 33.3447L713.568 18.8409L696.88 31.5684L713.483 18.7297L695.555 29.6431L713.409 18.6102L694.439 27.5899L713.349 18.4837L693.544 25.4312L713.302 18.3515L692.88 23.1909L713.269 18.2152L692.453 20.8934L713.251 18.0762L692.269 18.5638L713.247 17.936L692.329 16.2277L713.258 17.7963L692.633 13.9108L713.284 17.6584L693.178 11.6383L713.323 17.5239L693.957 9.43515L713.377 17.3944L694.962 7.32555L713.444 17.2711L696.182 5.33259L713.523 17.1555L697.604 3.47809L713.614 17.0489L699.212 1.78237L713.716 16.9523L700.988 0.26401L713.827 16.8669L702.914 -1.06035L713.947 16.7936L704.967 -2.17621L714.073 16.7332L707.126 -3.07133L714.205 16.6864L709.366 -3.73591L714.342 16.6536L711.663 -4.16267L714.481 16.6352L713.993 -4.34694L714.621 16.6315L716.329 -4.28668L714.761 16.6424L718.646 -3.98258L714.898 16.6679L720.919 -3.43795L715.033 16.7077L723.122 -2.65876L715.162 16.7613L725.231 -1.65356L715.286 16.8282L727.224 -0.433346L715.401 16.9075L729.079 0.988503L715.508 16.9986L730.774 2.59641L715.604 17.1002L732.293 4.37276L715.69 17.2114L733.617 6.29809L715.763 17.331L734.733 8.35131L715.824 17.4575L735.628 10.5099L715.87 17.5896L736.293 12.7503L715.903 17.726L736.719 15.0478L715.922 17.865L736.904 17.3774L715.925 18.0051L736.843 19.7134L715.914 18.1449L736.539 22.0304L715.889 18.2828L735.995 24.3029L715.849 18.4172L735.216 26.506L715.795 18.5468L734.21 28.6156L715.729 18.67L732.99 30.6086L715.649 18.7856L731.568 32.4631L715.558 18.8923L729.96 34.1588L715.457 18.9888L728.184 35.6772L715.345 19.0742L726.259 37.0015L715.226 19.1475L724.205 38.1174L715.099 19.2079L722.047 39.0125L714.967 19.2548L719.806 39.6771L714.831 19.2876L717.509 40.1038L714.692 19.3059L715.179 40.2881L714.552 19.3097L712.843 40.2278Z" fill="black"/>
<g filter="url(#filter2_b_1021_224)">
<rect x="715.211" y="16.0488" width="3.94002" height="33.3387" transform="rotate(90 715.211 16.0488)" fill="white" fill-opacity="0.1"/>
</g>
<path d="M963.586 40.2949L963.516 19.3072L961.253 40.1726L963.377 19.2926L958.945 39.8071L963.24 19.2634L956.687 39.2022L963.106 19.2201L954.506 38.3648L962.978 19.163L952.424 37.3039L962.857 19.0929L950.464 36.0312L962.743 19.0105L948.648 34.5605L962.639 18.9167L946.995 32.9081L962.545 18.8125L945.525 31.0921L962.463 18.6991L944.252 29.1322L962.393 18.5777L943.191 27.0501L962.336 18.4496L942.354 24.8685L962.292 18.3162L941.749 22.6112L962.263 18.1791L941.383 20.3032L962.249 18.0396L941.261 17.9695L962.249 17.8994L941.383 15.6359L962.263 17.76L941.749 13.3278L962.292 17.6228L942.354 11.0706L962.336 17.4895L943.191 8.88897L962.393 17.3614L944.252 6.80682L962.463 17.24L945.525 4.84698L962.545 17.1265L946.995 3.03092L962.639 17.0223L948.648 1.37852L962.743 16.9285L950.464 -0.0921021L962.857 16.8461L952.424 -1.36484L962.978 16.776L954.506 -2.42574L963.106 16.719L956.687 -3.26319L963.24 16.6756L958.945 -3.86801L963.377 16.6465L961.253 -4.23357L963.516 16.6318L963.586 -4.35587L963.656 16.6318L965.92 -4.23357L963.796 16.6465L968.228 -3.86801L963.933 16.6756L970.485 -3.26319L964.066 16.719L972.667 -2.42574L964.194 16.776L974.749 -1.36484L964.316 16.8461L976.709 -0.0921021L964.429 16.9285L978.525 1.37852L964.533 17.0223L980.177 3.03092L964.627 17.1265L981.648 4.84698L964.71 17.24L982.921 6.80682L964.78 17.3614L983.981 8.88897L964.837 17.4895L984.819 11.0706L964.88 17.6228L985.424 13.3278L964.909 17.76L985.789 15.6359L964.924 17.8994L985.912 17.9695L964.924 18.0396L985.789 20.3032L964.909 18.1791L985.424 22.6112L964.88 18.3162L984.819 24.8685L964.837 18.4496L983.981 27.0501L964.78 18.5777L982.921 29.1322L964.71 18.6991L981.648 31.0921L964.627 18.8125L980.177 32.9081L964.533 18.9167L978.525 34.5605L964.429 19.0105L976.709 36.0312L964.316 19.0929L974.749 37.3039L964.194 19.163L972.667 38.3648L964.066 19.2201L970.485 39.2022L963.933 19.2634L968.228 39.8071L963.796 19.2926L965.92 40.1726L963.656 19.3072L963.586 40.2949Z" fill="black"/>
<path d="M962.44 40.2674L963.448 19.3038L960.116 40.0254L963.31 19.282L957.83 39.5418L963.174 19.2458L955.607 38.8218L963.043 19.1957L953.471 37.8734L962.918 19.1322L951.446 36.707L962.801 19.0559L949.554 35.3353L962.692 18.9678L947.816 33.7733L962.592 18.8688L946.251 32.0382L962.504 18.7599L944.875 30.149L962.428 18.6424L943.705 28.1264L962.364 18.5175L942.752 25.9925L962.314 18.3866L942.028 23.7708L962.277 18.2513L941.54 21.4855L962.255 18.1128L941.293 19.1616L962.248 17.9728L941.291 16.8248L962.255 17.8328L941.533 14.5005L962.277 17.6942L942.017 12.2143L962.313 17.5588L942.737 9.99111L962.363 17.4278L943.685 7.85537L962.426 17.3028L944.852 5.83046L962.503 17.1852L946.223 3.93858L962.591 17.0761L947.785 2.20045L962.69 16.9769L949.52 0.635099L962.799 16.8885L951.41 -0.740308L962.916 16.8121L953.432 -1.9107L963.041 16.7483L955.566 -2.86327L963.172 16.6979L957.788 -3.58756L963.307 16.6615L960.073 -4.07565L963.446 16.6394L962.397 -4.32218L963.586 16.6319L964.734 -4.32446L963.726 16.6391L967.058 -4.08246L963.864 16.6609L969.344 -3.59884L964 16.6971L971.567 -2.87888L964.131 16.7472L973.703 -1.93049L964.256 16.8108L975.728 -0.764042L964.373 16.887L977.62 0.607674L964.482 16.9751L979.358 2.16963L964.582 17.0742L980.923 3.90472L964.67 17.1831L982.299 5.79392L964.746 17.3006L983.469 7.81654L964.81 17.4254L984.422 9.95043L964.861 17.5563L985.146 12.1722L964.897 17.6917L985.634 14.4575L964.919 17.8302L985.881 16.7813L964.927 17.9702L985.883 19.1181L964.919 18.1102L985.641 21.4424L964.898 18.2487L985.157 23.7287L964.861 18.3842L984.437 25.9518L964.811 18.5151L983.489 28.0876L964.748 18.6401L982.323 30.1125L964.672 18.7578L980.951 32.0044L964.583 18.8668L979.389 33.7425L964.484 18.9661L977.654 35.3078L964.375 19.0544L975.765 36.6832L964.258 19.1309L973.742 37.8536L964.133 19.1947L971.608 38.8062L964.002 19.245L969.386 39.5305L963.867 19.2814L967.101 40.0186L963.728 19.3035L964.777 40.2651L963.588 19.311L962.44 40.2674Z" fill="black"/>
<path d="M961.843 40.2278L963.412 19.2987L959.526 39.9237L963.274 19.2732L957.254 39.3791L963.14 19.2334L955.051 38.5999L963.01 19.1798L952.941 37.5947L962.887 19.113L950.948 36.3745L962.771 19.0336L949.094 34.9527L962.664 18.9426L947.398 33.3447L962.568 18.8409L945.88 31.5684L962.483 18.7297L944.555 29.6431L962.409 18.6102L943.439 27.5899L962.349 18.4837L942.544 25.4312L962.302 18.3515L941.88 23.1909L962.269 18.2152L941.453 20.8934L962.251 18.0762L941.269 18.5638L962.247 17.936L941.329 16.2277L962.258 17.7963L941.633 13.9108L962.284 17.6584L942.178 11.6383L962.323 17.5239L942.957 9.43515L962.377 17.3944L943.962 7.32555L962.444 17.2711L945.182 5.33259L962.523 17.1555L946.604 3.47809L962.614 17.0489L948.212 1.78237L962.716 16.9523L949.988 0.26401L962.827 16.8669L951.914 -1.06035L962.947 16.7936L953.967 -2.17621L963.073 16.7332L956.126 -3.07133L963.205 16.6864L958.366 -3.73591L963.342 16.6536L960.663 -4.16267L963.481 16.6352L962.993 -4.34694L963.621 16.6315L965.329 -4.28668L963.761 16.6424L967.646 -3.98258L963.898 16.6679L969.919 -3.43795L964.033 16.7077L972.122 -2.65876L964.162 16.7613L974.231 -1.65356L964.286 16.8282L976.224 -0.433346L964.401 16.9075L978.079 0.988503L964.508 16.9986L979.774 2.59641L964.604 17.1002L981.293 4.37276L964.69 17.2114L982.617 6.29809L964.763 17.331L983.733 8.35131L964.824 17.4575L984.628 10.5099L964.87 17.5896L985.293 12.7503L964.903 17.726L985.719 15.0478L964.922 17.865L985.904 17.3774L964.925 18.0051L985.843 19.7134L964.914 18.1449L985.539 22.0304L964.889 18.2828L984.995 24.3029L964.849 18.4172L984.216 26.506L964.795 18.5468L983.21 28.6156L964.729 18.67L981.99 30.6086L964.649 18.7856L980.568 32.4631L964.558 18.8923L978.96 34.1588L964.457 18.9888L977.184 35.6772L964.345 19.0742L975.259 37.0015L964.226 19.1475L973.205 38.1174L964.099 19.2079L971.047 39.0125L963.967 19.2548L968.806 39.6771L963.831 19.2876L966.509 40.1038L963.692 19.3059L964.179 40.2881L963.552 19.3097L961.843 40.2278Z" fill="black"/>
<g filter="url(#filter3_b_1021_224)">
<rect x="964.211" y="16.0488" width="3.94002" height="33.3387" transform="rotate(90 964.211 16.0488)" fill="white" fill-opacity="0.1"/>
</g>
<path d="M1212.59 40.2949L1212.52 19.3072L1210.25 40.1726L1212.38 19.2926L1207.94 39.8071L1212.24 19.2634L1205.69 39.2022L1212.11 19.2201L1203.51 38.3648L1211.98 19.163L1201.42 37.3039L1211.86 19.0929L1199.46 36.0312L1211.74 19.0105L1197.65 34.5605L1211.64 18.9167L1196 32.9081L1211.55 18.8125L1194.53 31.0921L1211.46 18.6991L1193.25 29.1322L1211.39 18.5777L1192.19 27.0501L1211.34 18.4496L1191.35 24.8685L1211.29 18.3162L1190.75 22.6112L1211.26 18.1791L1190.38 20.3032L1211.25 18.0396L1190.26 17.9695L1211.25 17.8994L1190.38 15.6359L1211.26 17.76L1190.75 13.3278L1211.29 17.6228L1191.35 11.0706L1211.34 17.4895L1192.19 8.88897L1211.39 17.3614L1193.25 6.80682L1211.46 17.24L1194.53 4.84698L1211.55 17.1265L1196 3.03092L1211.64 17.0223L1197.65 1.37852L1211.74 16.9285L1199.46 -0.0921021L1211.86 16.8461L1201.42 -1.36484L1211.98 16.776L1203.51 -2.42574L1212.11 16.719L1205.69 -3.26319L1212.24 16.6756L1207.94 -3.86801L1212.38 16.6465L1210.25 -4.23357L1212.52 16.6318L1212.59 -4.35587L1212.66 16.6318L1214.92 -4.23357L1212.8 16.6465L1217.23 -3.86801L1212.93 16.6756L1219.49 -3.26319L1213.07 16.719L1221.67 -2.42574L1213.19 16.776L1223.75 -1.36484L1213.32 16.8461L1225.71 -0.0921021L1213.43 16.9285L1227.53 1.37852L1213.53 17.0223L1229.18 3.03092L1213.63 17.1265L1230.65 4.84698L1213.71 17.24L1231.92 6.80682L1213.78 17.3614L1232.98 8.88897L1213.84 17.4895L1233.82 11.0706L1213.88 17.6228L1234.42 13.3278L1213.91 17.76L1234.79 15.6359L1213.92 17.8994L1234.91 17.9695L1213.92 18.0396L1234.79 20.3032L1213.91 18.1791L1234.42 22.6112L1213.88 18.3162L1233.82 24.8685L1213.84 18.4496L1232.98 27.0501L1213.78 18.5777L1231.92 29.1322L1213.71 18.6991L1230.65 31.0921L1213.63 18.8125L1229.18 32.9081L1213.53 18.9167L1227.53 34.5605L1213.43 19.0105L1225.71 36.0312L1213.32 19.0929L1223.75 37.3039L1213.19 19.163L1221.67 38.3648L1213.07 19.2201L1219.49 39.2022L1212.93 19.2634L1217.23 39.8071L1212.8 19.2926L1214.92 40.1726L1212.66 19.3072L1212.59 40.2949Z" fill="black"/>
<path d="M1211.44 40.2674L1212.45 19.3038L1209.12 40.0254L1212.31 19.282L1206.83 39.5418L1212.17 19.2458L1204.61 38.8218L1212.04 19.1957L1202.47 37.8734L1211.92 19.1322L1200.45 36.707L1211.8 19.0559L1198.55 35.3353L1211.69 18.9678L1196.82 33.7733L1211.59 18.8688L1195.25 32.0382L1211.5 18.7599L1193.88 30.149L1211.43 18.6424L1192.71 28.1264L1211.36 18.5175L1191.75 25.9925L1211.31 18.3866L1191.03 23.7708L1211.28 18.2513L1190.54 21.4855L1211.26 18.1128L1190.29 19.1616L1211.25 17.9728L1190.29 16.8248L1211.26 17.8328L1190.53 14.5005L1211.28 17.6942L1191.02 12.2143L1211.31 17.5588L1191.74 9.99111L1211.36 17.4278L1192.69 7.85537L1211.43 17.3028L1193.85 5.83046L1211.5 17.1852L1195.22 3.93858L1211.59 17.0761L1196.79 2.20045L1211.69 16.9769L1198.52 0.635099L1211.8 16.8885L1200.41 -0.740308L1211.92 16.8121L1202.43 -1.9107L1212.04 16.7483L1204.57 -2.86327L1212.17 16.6979L1206.79 -3.58756L1212.31 16.6615L1209.07 -4.07565L1212.45 16.6394L1211.4 -4.32218L1212.59 16.6319L1213.73 -4.32446L1212.73 16.6391L1216.06 -4.08246L1212.86 16.6609L1218.34 -3.59884L1213 16.6971L1220.57 -2.87888L1213.13 16.7472L1222.7 -1.93049L1213.26 16.8108L1224.73 -0.764042L1213.37 16.887L1226.62 0.607674L1213.48 16.9751L1228.36 2.16963L1213.58 17.0742L1229.92 3.90472L1213.67 17.1831L1231.3 5.79392L1213.75 17.3006L1232.47 7.81654L1213.81 17.4254L1233.42 9.95043L1213.86 17.5563L1234.15 12.1722L1213.9 17.6917L1234.63 14.4575L1213.92 17.8302L1234.88 16.7813L1213.93 17.9702L1234.88 19.1181L1213.92 18.1102L1234.64 21.4424L1213.9 18.2487L1234.16 23.7287L1213.86 18.3842L1233.44 25.9518L1213.81 18.5151L1232.49 28.0876L1213.75 18.6401L1231.32 30.1125L1213.67 18.7578L1229.95 32.0044L1213.58 18.8668L1228.39 33.7425L1213.48 18.9661L1226.65 35.3078L1213.38 19.0544L1224.77 36.6832L1213.26 19.1309L1222.74 37.8536L1213.13 19.1947L1220.61 38.8062L1213 19.245L1218.39 39.5305L1212.87 19.2814L1216.1 40.0186L1212.73 19.3035L1213.78 40.2651L1212.59 19.311L1211.44 40.2674Z" fill="black"/>
<path d="M1210.84 40.2278L1212.41 19.2987L1208.53 39.9237L1212.27 19.2732L1206.25 39.3791L1212.14 19.2334L1204.05 38.5999L1212.01 19.1798L1201.94 37.5947L1211.89 19.113L1199.95 36.3745L1211.77 19.0336L1198.09 34.9527L1211.66 18.9426L1196.4 33.3447L1211.57 18.8409L1194.88 31.5684L1211.48 18.7297L1193.56 29.6431L1211.41 18.6102L1192.44 27.5899L1211.35 18.4837L1191.54 25.4312L1211.3 18.3515L1190.88 23.1909L1211.27 18.2152L1190.45 20.8934L1211.25 18.0762L1190.27 18.5638L1211.25 17.936L1190.33 16.2277L1211.26 17.7963L1190.63 13.9108L1211.28 17.6584L1191.18 11.6383L1211.32 17.5239L1191.96 9.43515L1211.38 17.3944L1192.96 7.32555L1211.44 17.2711L1194.18 5.33259L1211.52 17.1555L1195.6 3.47809L1211.61 17.0489L1197.21 1.78237L1211.72 16.9523L1198.99 0.26401L1211.83 16.8669L1200.91 -1.06035L1211.95 16.7936L1202.97 -2.17621L1212.07 16.7332L1205.13 -3.07133L1212.21 16.6864L1207.37 -3.73591L1212.34 16.6536L1209.66 -4.16267L1212.48 16.6352L1211.99 -4.34694L1212.62 16.6315L1214.33 -4.28668L1212.76 16.6424L1216.65 -3.98258L1212.9 16.6679L1218.92 -3.43795L1213.03 16.7077L1221.12 -2.65876L1213.16 16.7613L1223.23 -1.65356L1213.29 16.8282L1225.22 -0.433346L1213.4 16.9075L1227.08 0.988503L1213.51 16.9986L1228.77 2.59641L1213.6 17.1002L1230.29 4.37276L1213.69 17.2114L1231.62 6.29809L1213.76 17.331L1232.73 8.35131L1213.82 17.4575L1233.63 10.5099L1213.87 17.5896L1234.29 12.7503L1213.9 17.726L1234.72 15.0478L1213.92 17.865L1234.9 17.3774L1213.93 18.0051L1234.84 19.7134L1213.91 18.1449L1234.54 22.0304L1213.89 18.2828L1234 24.3029L1213.85 18.4172L1233.22 26.506L1213.8 18.5468L1232.21 28.6156L1213.73 18.67L1230.99 30.6086L1213.65 18.7856L1229.57 32.4631L1213.56 18.8923L1227.96 34.1588L1213.46 18.9888L1226.18 35.6772L1213.35 19.0742L1224.26 37.0015L1213.23 19.1475L1222.21 38.1174L1213.1 19.2079L1220.05 39.0125L1212.97 19.2548L1217.81 39.6771L1212.83 19.2876L1215.51 40.1038L1212.69 19.3059L1213.18 40.2881L1212.55 19.3097L1210.84 40.2278Z" fill="black"/>
<g filter="url(#filter4_b_1021_224)">
<rect x="1213.21" y="16.0488" width="3.94002" height="33.3387" transform="rotate(90 1213.21 16.0488)" fill="white" fill-opacity="0.1"/>
</g>
<path d="M1710.59 40.2969L1710.52 19.3092L1708.25 40.1746L1710.38 19.2945L1705.94 39.809L1710.24 19.2654L1703.69 39.2042L1710.11 19.222L1701.51 38.3667L1709.98 19.165L1699.42 37.3058L1709.86 19.0949L1697.46 36.0331L1709.74 19.0125L1695.65 34.5625L1709.64 18.9187L1694 32.9101L1709.55 18.8145L1692.53 31.094L1709.46 18.701L1691.25 29.1342L1709.39 18.5796L1690.19 27.052L1709.34 18.4515L1689.35 24.8704L1709.29 18.3182L1688.75 22.6132L1709.26 18.181L1688.38 20.3051L1709.25 18.0416L1688.26 17.9715L1709.25 17.9014L1688.38 15.6378L1709.26 17.7619L1688.75 13.3298L1709.29 17.6248L1689.35 11.0725L1709.34 17.4914L1690.19 8.89092L1709.39 17.3633L1691.25 6.80878L1709.46 17.2419L1692.53 4.84894L1709.55 17.1285L1694 3.03287L1709.64 17.0243L1695.65 1.38047L1709.74 16.9305L1697.46 -0.0901489L1709.86 16.8481L1699.42 -1.36288L1709.98 16.778L1701.51 -2.42379L1710.11 16.7209L1703.69 -3.26124L1710.24 16.6776L1705.94 -3.86606L1710.38 16.6484L1708.25 -4.23162L1710.52 16.6338L1710.59 -4.35392L1710.66 16.6338L1712.92 -4.23162L1710.8 16.6484L1715.23 -3.86606L1710.93 16.6776L1717.49 -3.26124L1711.07 16.7209L1719.67 -2.42379L1711.19 16.778L1721.75 -1.36288L1711.32 16.8481L1723.71 -0.0901489L1711.43 16.9305L1725.53 1.38047L1711.53 17.0243L1727.18 3.03287L1711.63 17.1285L1728.65 4.84894L1711.71 17.2419L1729.92 6.80878L1711.78 17.3633L1730.98 8.89092L1711.84 17.4914L1731.82 11.0725L1711.88 17.6248L1732.42 13.3298L1711.91 17.7619L1732.79 15.6378L1711.92 17.9014L1732.91 17.9715L1711.92 18.0416L1732.79 20.3051L1711.91 18.181L1732.42 22.6132L1711.88 18.3182L1731.82 24.8704L1711.84 18.4515L1730.98 27.052L1711.78 18.5796L1729.92 29.1342L1711.71 18.701L1728.65 31.094L1711.63 18.8145L1727.18 32.9101L1711.53 18.9187L1725.53 34.5625L1711.43 19.0125L1723.71 36.0331L1711.32 19.0949L1721.75 37.3058L1711.19 19.165L1719.67 38.3667L1711.07 19.222L1717.49 39.2042L1710.93 19.2654L1715.23 39.809L1710.8 19.2945L1712.92 40.1746L1710.66 19.3092L1710.59 40.2969Z" fill="black"/>
<path d="M1709.44 40.2674L1710.45 19.3038L1707.12 40.0254L1710.31 19.282L1704.83 39.5418L1710.17 19.2458L1702.61 38.8218L1710.04 19.1957L1700.47 37.8734L1709.92 19.1322L1698.45 36.707L1709.8 19.0559L1696.55 35.3353L1709.69 18.9678L1694.82 33.7733L1709.59 18.8688L1693.25 32.0382L1709.5 18.7599L1691.88 30.149L1709.43 18.6424L1690.71 28.1264L1709.36 18.5175L1689.75 25.9925L1709.31 18.3866L1689.03 23.7708L1709.28 18.2513L1688.54 21.4855L1709.26 18.1128L1688.29 19.1616L1709.25 17.9728L1688.29 16.8248L1709.26 17.8328L1688.53 14.5005L1709.28 17.6942L1689.02 12.2143L1709.31 17.5588L1689.74 9.99111L1709.36 17.4278L1690.69 7.85537L1709.43 17.3028L1691.85 5.83046L1709.5 17.1852L1693.22 3.93858L1709.59 17.0761L1694.79 2.20045L1709.69 16.9769L1696.52 0.635099L1709.8 16.8885L1698.41 -0.740308L1709.92 16.8121L1700.43 -1.9107L1710.04 16.7483L1702.57 -2.86327L1710.17 16.6979L1704.79 -3.58756L1710.31 16.6615L1707.07 -4.07565L1710.45 16.6394L1709.4 -4.32218L1710.59 16.6319L1711.73 -4.32446L1710.73 16.6391L1714.06 -4.08246L1710.86 16.6609L1716.34 -3.59884L1711 16.6971L1718.57 -2.87888L1711.13 16.7472L1720.7 -1.93049L1711.26 16.8108L1722.73 -0.764042L1711.37 16.887L1724.62 0.607674L1711.48 16.9751L1726.36 2.16963L1711.58 17.0742L1727.92 3.90472L1711.67 17.1831L1729.3 5.79392L1711.75 17.3006L1730.47 7.81654L1711.81 17.4254L1731.42 9.95043L1711.86 17.5563L1732.15 12.1722L1711.9 17.6917L1732.63 14.4575L1711.92 17.8302L1732.88 16.7813L1711.93 17.9702L1732.88 19.1181L1711.92 18.1102L1732.64 21.4424L1711.9 18.2487L1732.16 23.7287L1711.86 18.3842L1731.44 25.9518L1711.81 18.5151L1730.49 28.0876L1711.75 18.6401L1729.32 30.1125L1711.67 18.7578L1727.95 32.0044L1711.58 18.8668L1726.39 33.7425L1711.48 18.9661L1724.65 35.3078L1711.38 19.0544L1722.77 36.6832L1711.26 19.1309L1720.74 37.8536L1711.13 19.1947L1718.61 38.8062L1711 19.245L1716.39 39.5305L1710.87 19.2814L1714.1 40.0186L1710.73 19.3035L1711.78 40.2651L1710.59 19.311L1709.44 40.2674Z" fill="black"/>
<path d="M1708.84 40.2298L1710.41 19.3007L1706.53 39.9257L1710.27 19.2752L1704.25 39.3811L1710.14 19.2354L1702.05 38.6019L1710.01 19.1818L1699.94 37.5967L1709.89 19.1149L1697.95 36.3765L1709.77 19.0356L1696.09 34.9546L1709.66 18.9446L1694.4 33.3467L1709.57 18.8429L1692.88 31.5704L1709.48 18.7317L1691.56 29.645L1709.41 18.6122L1690.44 27.5918L1709.35 18.4856L1689.54 25.4332L1709.3 18.3535L1688.88 23.1928L1709.27 18.2172L1688.45 20.8953L1709.25 18.0782L1688.27 18.5657L1709.25 17.938L1688.33 16.2297L1709.26 17.7982L1688.63 13.9127L1709.28 17.6603L1689.18 11.6402L1709.32 17.5259L1689.96 9.4371L1709.38 17.3963L1690.96 7.32751L1709.44 17.2731L1692.18 5.33454L1709.52 17.1575L1693.6 3.48004L1709.61 17.0508L1695.21 1.78432L1709.72 16.9543L1696.99 0.265963L1709.83 16.8689L1698.91 -1.0584L1709.95 16.7956L1700.97 -2.17425L1710.07 16.7352L1703.13 -3.06937L1710.21 16.6883L1705.37 -3.73396L1710.34 16.6555L1707.66 -4.16072L1710.48 16.6372L1709.99 -4.34498L1710.62 16.6335L1712.33 -4.28473L1710.76 16.6444L1714.65 -3.98063L1710.9 16.6699L1716.92 -3.436L1711.03 16.7097L1719.12 -2.65681L1711.16 16.7633L1721.23 -1.65161L1711.29 16.8301L1723.22 -0.431393L1711.4 16.9095L1725.08 0.990456L1711.51 17.0005L1726.77 2.59836L1711.6 17.1022L1728.29 4.37472L1711.69 17.2134L1729.62 6.30005L1711.76 17.3329L1730.73 8.35326L1711.82 17.4594L1731.63 10.5119L1711.87 17.5916L1732.29 12.7522L1711.9 17.7279L1732.72 15.0498L1711.92 17.8669L1732.9 17.3793L1711.93 18.0071L1732.84 19.7154L1711.91 18.1469L1732.54 22.0324L1711.89 18.2847L1732 24.3049L1711.85 18.4192L1731.22 26.508L1711.8 18.5487L1730.21 28.6176L1711.73 18.672L1728.99 30.6105L1711.65 18.7876L1727.57 32.465L1711.56 18.8942L1725.96 34.1607L1711.46 18.9908L1724.18 35.6791L1711.35 19.0762L1722.26 37.0035L1711.23 19.1495L1720.21 38.1193L1711.1 19.2099L1718.05 39.0144L1710.97 19.2567L1715.81 39.679L1710.83 19.2895L1713.51 40.1058L1710.69 19.3079L1711.18 40.29L1710.55 19.3116L1708.84 40.2298Z" fill="black"/>
<g filter="url(#filter5_b_1021_224)">
<rect x="1711.21" y="16.0508" width="3.94002" height="33.3387" transform="rotate(90 1711.21 16.0508)" fill="white" fill-opacity="0.1"/>
</g>
<path d="M1461.59 40.2949L1461.52 19.3072L1459.25 40.1726L1461.38 19.2926L1456.94 39.8071L1461.24 19.2634L1454.69 39.2022L1461.11 19.2201L1452.51 38.3648L1460.98 19.163L1450.42 37.3039L1460.86 19.0929L1448.46 36.0312L1460.74 19.0105L1446.65 34.5605L1460.64 18.9167L1445 32.9081L1460.55 18.8125L1443.53 31.0921L1460.46 18.6991L1442.25 29.1322L1460.39 18.5777L1441.19 27.0501L1460.34 18.4496L1440.35 24.8685L1460.29 18.3162L1439.75 22.6112L1460.26 18.1791L1439.38 20.3032L1460.25 18.0396L1439.26 17.9695L1460.25 17.8994L1439.38 15.6359L1460.26 17.76L1439.75 13.3278L1460.29 17.6228L1440.35 11.0706L1460.34 17.4895L1441.19 8.88897L1460.39 17.3614L1442.25 6.80682L1460.46 17.24L1443.53 4.84698L1460.55 17.1265L1445 3.03092L1460.64 17.0223L1446.65 1.37852L1460.74 16.9285L1448.46 -0.0921021L1460.86 16.8461L1450.42 -1.36484L1460.98 16.776L1452.51 -2.42574L1461.11 16.719L1454.69 -3.26319L1461.24 16.6756L1456.94 -3.86801L1461.38 16.6465L1459.25 -4.23357L1461.52 16.6318L1461.59 -4.35587L1461.66 16.6318L1463.92 -4.23357L1461.8 16.6465L1466.23 -3.86801L1461.93 16.6756L1468.49 -3.26319L1462.07 16.719L1470.67 -2.42574L1462.19 16.776L1472.75 -1.36484L1462.32 16.8461L1474.71 -0.0921021L1462.43 16.9285L1476.53 1.37852L1462.53 17.0223L1478.18 3.03092L1462.63 17.1265L1479.65 4.84698L1462.71 17.24L1480.92 6.80682L1462.78 17.3614L1481.98 8.88897L1462.84 17.4895L1482.82 11.0706L1462.88 17.6228L1483.42 13.3278L1462.91 17.76L1483.79 15.6359L1462.92 17.8994L1483.91 17.9695L1462.92 18.0396L1483.79 20.3032L1462.91 18.1791L1483.42 22.6112L1462.88 18.3162L1482.82 24.8685L1462.84 18.4496L1481.98 27.0501L1462.78 18.5777L1480.92 29.1322L1462.71 18.6991L1479.65 31.0921L1462.63 18.8125L1478.18 32.9081L1462.53 18.9167L1476.53 34.5605L1462.43 19.0105L1474.71 36.0312L1462.32 19.0929L1472.75 37.3039L1462.19 19.163L1470.67 38.3648L1462.07 19.2201L1468.49 39.2022L1461.93 19.2634L1466.23 39.8071L1461.8 19.2926L1463.92 40.1726L1461.66 19.3072L1461.59 40.2949Z" fill="black"/>
<path d="M1460.44 40.2674L1461.45 19.3038L1458.12 40.0254L1461.31 19.282L1455.83 39.5418L1461.17 19.2458L1453.61 38.8218L1461.04 19.1957L1451.47 37.8734L1460.92 19.1322L1449.45 36.707L1460.8 19.0559L1447.55 35.3353L1460.69 18.9678L1445.82 33.7733L1460.59 18.8688L1444.25 32.0382L1460.5 18.7599L1442.88 30.149L1460.43 18.6424L1441.71 28.1264L1460.36 18.5175L1440.75 25.9925L1460.31 18.3866L1440.03 23.7708L1460.28 18.2513L1439.54 21.4855L1460.26 18.1128L1439.29 19.1616L1460.25 17.9728L1439.29 16.8248L1460.26 17.8328L1439.53 14.5005L1460.28 17.6942L1440.02 12.2143L1460.31 17.5588L1440.74 9.99111L1460.36 17.4278L1441.69 7.85537L1460.43 17.3028L1442.85 5.83046L1460.5 17.1852L1444.22 3.93858L1460.59 17.0761L1445.79 2.20045L1460.69 16.9769L1447.52 0.635099L1460.8 16.8885L1449.41 -0.740308L1460.92 16.8121L1451.43 -1.9107L1461.04 16.7483L1453.57 -2.86327L1461.17 16.6979L1455.79 -3.58756L1461.31 16.6615L1458.07 -4.07565L1461.45 16.6394L1460.4 -4.32218L1461.59 16.6319L1462.73 -4.32446L1461.73 16.6391L1465.06 -4.08246L1461.86 16.6609L1467.34 -3.59884L1462 16.6971L1469.57 -2.87888L1462.13 16.7472L1471.7 -1.93049L1462.26 16.8108L1473.73 -0.764042L1462.37 16.887L1475.62 0.607674L1462.48 16.9751L1477.36 2.16963L1462.58 17.0742L1478.92 3.90472L1462.67 17.1831L1480.3 5.79392L1462.75 17.3006L1481.47 7.81654L1462.81 17.4254L1482.42 9.95043L1462.86 17.5563L1483.15 12.1722L1462.9 17.6917L1483.63 14.4575L1462.92 17.8302L1483.88 16.7813L1462.93 17.9702L1483.88 19.1181L1462.92 18.1102L1483.64 21.4424L1462.9 18.2487L1483.16 23.7287L1462.86 18.3842L1482.44 25.9518L1462.81 18.5151L1481.49 28.0876L1462.75 18.6401L1480.32 30.1125L1462.67 18.7578L1478.95 32.0044L1462.58 18.8668L1477.39 33.7425L1462.48 18.9661L1475.65 35.3078L1462.38 19.0544L1473.77 36.6832L1462.26 19.1309L1471.74 37.8536L1462.13 19.1947L1469.61 38.8062L1462 19.245L1467.39 39.5305L1461.87 19.2814L1465.1 40.0186L1461.73 19.3035L1462.78 40.2651L1461.59 19.311L1460.44 40.2674Z" fill="black"/>
<path d="M1459.84 40.2278L1461.41 19.2987L1457.53 39.9237L1461.27 19.2732L1455.25 39.3791L1461.14 19.2334L1453.05 38.5999L1461.01 19.1798L1450.94 37.5947L1460.89 19.113L1448.95 36.3745L1460.77 19.0336L1447.09 34.9527L1460.66 18.9426L1445.4 33.3447L1460.57 18.8409L1443.88 31.5684L1460.48 18.7297L1442.56 29.6431L1460.41 18.6102L1441.44 27.5899L1460.35 18.4837L1440.54 25.4312L1460.3 18.3515L1439.88 23.1909L1460.27 18.2152L1439.45 20.8934L1460.25 18.0762L1439.27 18.5638L1460.25 17.936L1439.33 16.2277L1460.26 17.7963L1439.63 13.9108L1460.28 17.6584L1440.18 11.6383L1460.32 17.5239L1440.96 9.43515L1460.38 17.3944L1441.96 7.32555L1460.44 17.2711L1443.18 5.33259L1460.52 17.1555L1444.6 3.47809L1460.61 17.0489L1446.21 1.78237L1460.72 16.9523L1447.99 0.26401L1460.83 16.8669L1449.91 -1.06035L1460.95 16.7936L1451.97 -2.17621L1461.07 16.7332L1454.13 -3.07133L1461.21 16.6864L1456.37 -3.73591L1461.34 16.6536L1458.66 -4.16267L1461.48 16.6352L1460.99 -4.34694L1461.62 16.6315L1463.33 -4.28668L1461.76 16.6424L1465.65 -3.98258L1461.9 16.6679L1467.92 -3.43795L1462.03 16.7077L1470.12 -2.65876L1462.16 16.7613L1472.23 -1.65356L1462.29 16.8282L1474.22 -0.433346L1462.4 16.9075L1476.08 0.988503L1462.51 16.9986L1477.77 2.59641L1462.6 17.1002L1479.29 4.37276L1462.69 17.2114L1480.62 6.29809L1462.76 17.331L1481.73 8.35131L1462.82 17.4575L1482.63 10.5099L1462.87 17.5896L1483.29 12.7503L1462.9 17.726L1483.72 15.0478L1462.92 17.865L1483.9 17.3774L1462.93 18.0051L1483.84 19.7134L1462.91 18.1449L1483.54 22.0304L1462.89 18.2828L1483 24.3029L1462.85 18.4172L1482.22 26.506L1462.8 18.5468L1481.21 28.6156L1462.73 18.67L1479.99 30.6086L1462.65 18.7856L1478.57 32.4631L1462.56 18.8923L1476.96 34.1588L1462.46 18.9888L1475.18 35.6772L1462.35 19.0742L1473.26 37.0015L1462.23 19.1475L1471.21 38.1174L1462.1 19.2079L1469.05 39.0125L1461.97 19.2548L1466.81 39.6771L1461.83 19.2876L1464.51 40.1038L1461.69 19.3059L1462.18 40.2881L1461.55 19.3097L1459.84 40.2278Z" fill="black"/>
<g filter="url(#filter6_b_1021_224)">
<rect x="1462.21" y="16.0488" width="3.94002" height="33.3387" transform="rotate(90 1462.21 16.0488)" fill="white" fill-opacity="0.1"/>
</g>
<path d="M1269.64 10.4665H1274.62V29.6846H1265.48L1261.89 12.5487H1261.82V29.6846H1256.87V10.4665H1265.34L1269.57 27.6024H1269.64V10.4665Z" fill="black"/>
<path d="M1286.81 30.1625C1283.62 30.1625 1281.18 29.2636 1279.5 27.4658C1277.82 25.6453 1276.97 23.1989 1276.97 20.1267C1276.97 18.1014 1277.34 16.3491 1278.07 14.8699C1278.8 13.368 1279.89 12.2074 1281.34 11.3881C1282.8 10.5461 1284.62 10.1251 1286.81 10.1251C1286.87 10.1251 1299.03 10.1255 1299.09 10.1263C1302.19 10.1635 1304.76 11.0733 1306.38 12.8559C1308.05 14.6537 1308.88 17.0773 1308.88 20.1267C1308.88 22.1066 1308.5 23.8589 1307.75 25.3836C1307.02 26.8855 1305.93 28.0575 1304.47 28.8995C1303.08 29.7154 1301.16 30.136 1299.09 30.1613C1299.03 30.1621 1286.87 30.1625 1286.81 30.1625ZM1286.74 25.5542C1286.83 25.5542 1299 25.5528 1299.09 25.55C1300.16 25.5162 1301.22 25.2787 1301.91 24.8374C1302.69 24.3368 1303.26 23.6768 1303.62 22.8576C1304.01 22.0156 1304.2 21.1053 1304.2 20.1267C1304.2 19.1254 1304.01 18.2038 1303.62 17.3618C1303.26 16.5198 1302.69 15.8485 1301.91 15.3478C1301.22 14.8855 1300.16 14.6367 1299.09 14.6012C1299 14.5983 1286.83 14.5968 1286.74 14.5968C1285.08 14.5968 1283.8 15.1202 1282.91 16.1671C1282.05 17.2139 1281.62 18.5338 1281.62 20.1267C1281.62 21.0825 1281.8 21.9814 1282.16 22.8234C1282.55 23.6427 1283.12 24.3026 1283.87 24.8033C1284.62 25.3039 1285.58 25.5542 1286.74 25.5542ZM1301.75 8.86212H1299.63V8.28182L1300.96 4.9707H1304.89V5.72168L1301.75 8.86212Z" fill="black"/>
<path d="M1311.65 29.6846V10.4665H1319.94C1320.4 10.4665 1320.95 10.4892 1321.61 10.5347C1322.27 10.5575 1322.96 10.6485 1323.66 10.8078C1324.37 10.9444 1325.03 11.1947 1325.64 11.5588C1326.26 11.9229 1326.76 12.4236 1327.14 13.0608C1327.53 13.6979 1327.72 14.5172 1327.72 15.5185C1327.72 16.2467 1327.58 16.918 1327.28 17.5325C1326.98 18.1469 1326.45 18.6589 1325.68 19.0685C1324.92 19.4554 1323.82 19.6944 1322.36 19.7854V19.9219C1324.03 19.9674 1325.31 20.195 1326.22 20.6046C1327.13 21.0143 1327.77 21.549 1328.13 22.209C1328.5 22.8462 1328.68 23.5858 1328.68 24.4278C1328.68 25.4746 1328.47 26.3394 1328.07 27.0221C1327.66 27.682 1327.11 28.194 1326.43 28.5581C1325.77 28.9223 1325.04 29.184 1324.24 29.3433C1323.47 29.5025 1322.69 29.605 1321.92 29.6505C1321.17 29.6732 1320.51 29.6846 1319.94 29.6846H1311.65ZM1316.32 18.0104H1319.33C1319.9 18.0104 1320.46 17.9876 1321.03 17.9421C1321.6 17.8738 1322.08 17.7145 1322.47 17.4642C1322.85 17.1911 1323.05 16.736 1323.05 16.0988C1323.05 15.4844 1322.87 15.052 1322.5 14.8016C1322.16 14.5513 1321.7 14.4034 1321.14 14.3579C1320.57 14.3124 1319.96 14.2896 1319.33 14.2896H1316.32V18.0104ZM1316.36 25.8956H1319.5C1320.23 25.8956 1320.91 25.8728 1321.55 25.8273C1322.21 25.7591 1322.74 25.577 1323.15 25.2812C1323.56 24.9626 1323.76 24.4392 1323.76 23.7109C1323.76 22.9827 1323.56 22.4707 1323.15 22.1749C1322.76 21.879 1322.24 21.7083 1321.58 21.6628C1320.94 21.5946 1320.25 21.5604 1319.5 21.5604H1316.36V25.8956Z" fill="black"/>
<path d="M1331.58 29.6846V10.4665H1339.4C1341.9 10.4665 1343.88 10.9102 1345.34 11.7977C1346.79 12.6853 1347.52 14.1758 1347.52 16.2695C1347.52 17.999 1347.13 19.3416 1346.36 20.2974C1345.61 21.2532 1344.59 21.7311 1343.29 21.7311C1343.93 21.7311 1344.4 21.879 1344.72 22.1749C1345.06 22.4479 1345.3 22.812 1345.44 23.2672C1345.6 23.6996 1345.72 24.1433 1345.81 24.5985C1345.91 25.0536 1346.03 25.4632 1346.19 25.8273C1346.35 26.1687 1346.6 26.3962 1346.94 26.51C1347.31 26.6011 1347.82 26.51 1348.48 26.2369V28.8312C1347.84 29.3774 1347.13 29.7301 1346.36 29.8894C1345.59 30.0715 1344.85 30.026 1344.14 29.7529C1343.46 29.5025 1342.89 29.0133 1342.44 28.2851C1341.98 27.5341 1341.75 26.5214 1341.75 25.247C1341.75 24.7009 1341.71 24.2116 1341.62 23.7792C1341.55 23.3241 1341.34 22.9486 1341 22.6527C1340.66 22.3569 1340.13 22.1635 1339.4 22.0725C1338.67 21.9587 1337.66 21.9587 1336.36 22.0725V29.6846H1331.58ZM1336.36 18.7272H1338.75C1339.8 18.7272 1340.65 18.7158 1341.31 18.6931C1341.97 18.6703 1342.46 18.5224 1342.78 18.2493C1343.12 17.9535 1343.29 17.4301 1343.29 16.6791C1343.29 15.8371 1343.08 15.2568 1342.67 14.9382C1342.29 14.5968 1341.71 14.4034 1340.93 14.3579C1340.18 14.3124 1339.25 14.2896 1338.13 14.2896H1336.36V18.7272Z" fill="black"/>
<path d="M1355.99 25.8956H1366.23V29.6846H1351.31V10.4665L1365.86 10.4665V14.5286H1355.99V18.0445H1363.33V21.8676H1355.99V25.8956Z" fill="black"/>
<path d="M1377.38 30.026C1375.49 30.026 1373.82 29.6618 1372.39 28.9336C1370.96 28.1827 1369.85 27.0789 1369.08 25.6225C1368.33 24.1661 1367.98 22.3569 1368.02 20.195C1368.09 18.0104 1368.56 16.1671 1369.42 14.6651C1370.31 13.1632 1371.5 12.0367 1373.01 11.2857C1374.51 10.512 1376.2 10.1251 1378.09 10.1251C1380.91 10.1251 1383.03 10.694 1384.44 11.8319C1385.87 12.9697 1386.84 14.631 1387.34 16.8156L1382.73 17.5325C1382.55 16.736 1382.2 16.1329 1381.68 15.7233C1381.18 15.2909 1380.6 14.9951 1379.94 14.8358C1379.3 14.6765 1378.68 14.5968 1378.09 14.5968C1376.18 14.5968 1374.8 15.0975 1373.96 16.0988C1373.12 17.0773 1372.71 18.3176 1372.73 19.8195C1372.73 21.6628 1373.24 23.051 1374.27 23.984C1375.32 24.9171 1376.81 25.3836 1378.74 25.3836C1379.31 25.3836 1379.9 25.3267 1380.52 25.2129C1381.13 25.0763 1381.7 24.8488 1382.22 24.5302C1382.75 24.2116 1383.14 23.7451 1383.42 23.1306H1380.31V19.7171H1387.72V29.6846L1384.54 29.6846L1383.52 27.2269H1383.45C1383.02 28.0006 1382.28 28.6605 1381.23 29.2067C1380.21 29.7529 1378.92 30.026 1377.38 30.026Z" fill="black"/>
<path d="M1389.79 29.6846L1395.32 10.4665H1403.14L1408.87 29.6846H1403.79L1402.52 24.8715H1396.14L1394.91 29.6846H1389.79ZM1399.32 12.4463L1397.06 21.2532H1401.6L1399.32 12.4463Z" fill="black"/>
<path d="M1767.64 10.4665H1772.62V29.6846H1763.48L1759.89 12.5487H1759.82V29.6846H1754.87V10.4665H1763.34L1767.57 27.6024H1767.64V10.4665Z" fill="black"/>
<path d="M1784.81 30.1625C1781.62 30.1625 1779.18 29.2636 1777.5 27.4658C1775.82 25.6453 1774.97 23.1989 1774.97 20.1267C1774.97 18.1014 1775.34 16.3491 1776.07 14.8699C1776.8 13.368 1777.89 12.2074 1779.34 11.3881C1780.8 10.5461 1782.62 10.1251 1784.81 10.1251C1784.87 10.1251 1797.03 10.1255 1797.09 10.1263C1800.19 10.1635 1802.76 11.0733 1804.38 12.8559C1806.05 14.6537 1806.88 17.0773 1806.88 20.1267C1806.88 22.1066 1806.5 23.8589 1805.75 25.3836C1805.02 26.8855 1803.93 28.0575 1802.47 28.8995C1801.08 29.7154 1799.16 30.136 1797.09 30.1613C1797.03 30.1621 1784.87 30.1625 1784.81 30.1625ZM1784.74 25.5542C1784.83 25.5542 1797 25.5528 1797.09 25.55C1798.16 25.5162 1799.22 25.2787 1799.91 24.8374C1800.69 24.3368 1801.26 23.6768 1801.62 22.8576C1802.01 22.0156 1802.2 21.1053 1802.2 20.1267C1802.2 19.1254 1802.01 18.2038 1801.62 17.3618C1801.26 16.5198 1800.69 15.8485 1799.91 15.3478C1799.22 14.8855 1798.16 14.6367 1797.09 14.6012C1797 14.5983 1784.83 14.5968 1784.74 14.5968C1783.08 14.5968 1781.8 15.1202 1780.91 16.1671C1780.05 17.2139 1779.62 18.5338 1779.62 20.1267C1779.62 21.0825 1779.8 21.9814 1780.16 22.8234C1780.55 23.6427 1781.12 24.3026 1781.87 24.8033C1782.62 25.3039 1783.58 25.5542 1784.74 25.5542ZM1799.75 8.86212H1797.63V8.28182L1798.96 4.9707H1802.89V5.72168L1799.75 8.86212Z" fill="black"/>
<path d="M1809.65 29.6846V10.4665H1817.94C1818.4 10.4665 1818.95 10.4892 1819.61 10.5347C1820.27 10.5575 1820.96 10.6485 1821.66 10.8078C1822.37 10.9444 1823.03 11.1947 1823.64 11.5588C1824.26 11.9229 1824.76 12.4236 1825.14 13.0608C1825.53 13.6979 1825.72 14.5172 1825.72 15.5185C1825.72 16.2467 1825.58 16.918 1825.28 17.5325C1824.98 18.1469 1824.45 18.6589 1823.68 19.0685C1822.92 19.4554 1821.82 19.6944 1820.36 19.7854V19.9219C1822.03 19.9674 1823.31 20.195 1824.22 20.6046C1825.13 21.0143 1825.77 21.549 1826.13 22.209C1826.5 22.8462 1826.68 23.5858 1826.68 24.4278C1826.68 25.4746 1826.47 26.3394 1826.07 27.0221C1825.66 27.682 1825.11 28.194 1824.43 28.5581C1823.77 28.9223 1823.04 29.184 1822.24 29.3433C1821.47 29.5025 1820.69 29.605 1819.92 29.6505C1819.17 29.6732 1818.51 29.6846 1817.94 29.6846H1809.65ZM1814.32 18.0104H1817.33C1817.9 18.0104 1818.46 17.9876 1819.03 17.9421C1819.6 17.8738 1820.08 17.7145 1820.47 17.4642C1820.85 17.1911 1821.05 16.736 1821.05 16.0988C1821.05 15.4844 1820.87 15.052 1820.5 14.8016C1820.16 14.5513 1819.7 14.4034 1819.14 14.3579C1818.57 14.3124 1817.96 14.2896 1817.33 14.2896H1814.32V18.0104ZM1814.36 25.8956H1817.5C1818.23 25.8956 1818.91 25.8728 1819.55 25.8273C1820.21 25.7591 1820.74 25.577 1821.15 25.2812C1821.56 24.9626 1821.76 24.4392 1821.76 23.7109C1821.76 22.9827 1821.56 22.4707 1821.15 22.1749C1820.76 21.879 1820.24 21.7083 1819.58 21.6628C1818.94 21.5946 1818.25 21.5604 1817.5 21.5604H1814.36V25.8956Z" fill="black"/>
<path d="M1829.58 29.6846V10.4665H1837.4C1839.9 10.4665 1841.88 10.9102 1843.34 11.7977C1844.79 12.6853 1845.52 14.1758 1845.52 16.2695C1845.52 17.999 1845.13 19.3416 1844.36 20.2974C1843.61 21.2532 1842.59 21.7311 1841.29 21.7311C1841.93 21.7311 1842.4 21.879 1842.72 22.1749C1843.06 22.4479 1843.3 22.812 1843.44 23.2672C1843.6 23.6996 1843.72 24.1433 1843.81 24.5985C1843.91 25.0536 1844.03 25.4632 1844.19 25.8273C1844.35 26.1687 1844.6 26.3962 1844.94 26.51C1845.31 26.6011 1845.82 26.51 1846.48 26.2369V28.8312C1845.84 29.3774 1845.13 29.7301 1844.36 29.8894C1843.59 30.0715 1842.85 30.026 1842.14 29.7529C1841.46 29.5025 1840.89 29.0133 1840.44 28.2851C1839.98 27.5341 1839.75 26.5214 1839.75 25.247C1839.75 24.7009 1839.71 24.2116 1839.62 23.7792C1839.55 23.3241 1839.34 22.9486 1839 22.6527C1838.66 22.3569 1838.13 22.1635 1837.4 22.0725C1836.67 21.9587 1835.66 21.9587 1834.36 22.0725V29.6846H1829.58ZM1834.36 18.7272H1836.75C1837.8 18.7272 1838.65 18.7158 1839.31 18.6931C1839.97 18.6703 1840.46 18.5224 1840.78 18.2493C1841.12 17.9535 1841.29 17.4301 1841.29 16.6791C1841.29 15.8371 1841.08 15.2568 1840.67 14.9382C1840.29 14.5968 1839.71 14.4034 1838.93 14.3579C1838.18 14.3124 1837.25 14.2896 1836.13 14.2896H1834.36V18.7272Z" fill="black"/>
<path d="M1853.99 25.8956H1864.23V29.6846H1849.31V10.4665L1863.86 10.4665V14.5286H1853.99V18.0445H1861.33V21.8676H1853.99V25.8956Z" fill="black"/>
<path d="M1875.38 30.026C1873.49 30.026 1871.82 29.6618 1870.39 28.9336C1868.96 28.1827 1867.85 27.0789 1867.08 25.6225C1866.33 24.1661 1865.98 22.3569 1866.02 20.195C1866.09 18.0104 1866.56 16.1671 1867.42 14.6651C1868.31 13.1632 1869.5 12.0367 1871.01 11.2857C1872.51 10.512 1874.2 10.1251 1876.09 10.1251C1878.91 10.1251 1881.03 10.694 1882.44 11.8319C1883.87 12.9697 1884.84 14.631 1885.34 16.8156L1880.73 17.5325C1880.55 16.736 1880.2 16.1329 1879.68 15.7233C1879.18 15.2909 1878.6 14.9951 1877.94 14.8358C1877.3 14.6765 1876.68 14.5968 1876.09 14.5968C1874.18 14.5968 1872.8 15.0975 1871.96 16.0988C1871.12 17.0773 1870.71 18.3176 1870.73 19.8195C1870.73 21.6628 1871.24 23.051 1872.27 23.984C1873.32 24.9171 1874.81 25.3836 1876.74 25.3836C1877.31 25.3836 1877.9 25.3267 1878.52 25.2129C1879.13 25.0763 1879.7 24.8488 1880.22 24.5302C1880.75 24.2116 1881.14 23.7451 1881.42 23.1306H1878.31V19.7171H1885.72V29.6846L1882.54 29.6846L1881.52 27.2269H1881.45C1881.02 28.0006 1880.28 28.6605 1879.23 29.2067C1878.21 29.7529 1876.92 30.026 1875.38 30.026Z" fill="black"/>
<path d="M1887.79 29.6846L1893.32 10.4665H1901.14L1906.87 29.6846H1901.79L1900.52 24.8715H1894.14L1892.91 29.6846H1887.79ZM1897.32 12.4463L1895.06 21.2532H1899.6L1897.32 12.4463Z" fill="black"/>
<path d="M1020.64 10.4665H1025.62V29.6846H1016.48L1012.89 12.5487H1012.82V29.6846H1007.87V10.4665H1016.34L1020.57 27.6024H1020.64V10.4665Z" fill="black"/>
<path d="M1037.81 30.1625C1034.62 30.1625 1032.18 29.2636 1030.5 27.4658C1028.82 25.6453 1027.97 23.1989 1027.97 20.1267C1027.97 18.1014 1028.34 16.3491 1029.07 14.8699C1029.8 13.368 1030.89 12.2074 1032.34 11.3881C1033.8 10.5461 1035.62 10.1251 1037.81 10.1251C1037.87 10.1251 1050.03 10.1255 1050.09 10.1263C1053.19 10.1635 1055.76 11.0733 1057.38 12.8559C1059.05 14.6537 1059.88 17.0773 1059.88 20.1267C1059.88 22.1066 1059.5 23.8589 1058.75 25.3836C1058.02 26.8855 1056.93 28.0575 1055.47 28.8995C1054.08 29.7154 1052.16 30.136 1050.09 30.1613C1050.03 30.1621 1037.87 30.1625 1037.81 30.1625ZM1037.74 25.5542C1037.83 25.5542 1050 25.5528 1050.09 25.55C1051.16 25.5162 1052.22 25.2787 1052.91 24.8374C1053.69 24.3368 1054.26 23.6768 1054.62 22.8576C1055.01 22.0156 1055.2 21.1053 1055.2 20.1267C1055.2 19.1254 1055.01 18.2038 1054.62 17.3618C1054.26 16.5198 1053.69 15.8485 1052.91 15.3478C1052.22 14.8855 1051.16 14.6367 1050.09 14.6012C1050 14.5983 1037.83 14.5968 1037.74 14.5968C1036.08 14.5968 1034.8 15.1202 1033.91 16.1671C1033.05 17.2139 1032.62 18.5338 1032.62 20.1267C1032.62 21.0825 1032.8 21.9814 1033.16 22.8234C1033.55 23.6427 1034.12 24.3026 1034.87 24.8033C1035.62 25.3039 1036.58 25.5542 1037.74 25.5542ZM1052.75 8.86212H1050.63V8.28182L1051.96 4.9707H1055.89V5.72168L1052.75 8.86212Z" fill="black"/>
<path d="M1062.65 29.6846V10.4665H1070.94C1071.4 10.4665 1071.95 10.4892 1072.61 10.5347C1073.27 10.5575 1073.96 10.6485 1074.66 10.8078C1075.37 10.9444 1076.03 11.1947 1076.64 11.5588C1077.26 11.9229 1077.76 12.4236 1078.14 13.0608C1078.53 13.6979 1078.72 14.5172 1078.72 15.5185C1078.72 16.2467 1078.58 16.918 1078.28 17.5325C1077.98 18.1469 1077.45 18.6589 1076.68 19.0685C1075.92 19.4554 1074.82 19.6944 1073.36 19.7854V19.9219C1075.03 19.9674 1076.31 20.195 1077.22 20.6046C1078.13 21.0143 1078.77 21.549 1079.13 22.209C1079.5 22.8462 1079.68 23.5858 1079.68 24.4278C1079.68 25.4746 1079.47 26.3394 1079.07 27.0221C1078.66 27.682 1078.11 28.194 1077.43 28.5581C1076.77 28.9223 1076.04 29.184 1075.24 29.3433C1074.47 29.5025 1073.69 29.605 1072.92 29.6505C1072.17 29.6732 1071.51 29.6846 1070.94 29.6846H1062.65ZM1067.32 18.0104H1070.33C1070.9 18.0104 1071.46 17.9876 1072.03 17.9421C1072.6 17.8738 1073.08 17.7145 1073.47 17.4642C1073.85 17.1911 1074.05 16.736 1074.05 16.0988C1074.05 15.4844 1073.87 15.052 1073.5 14.8016C1073.16 14.5513 1072.7 14.4034 1072.14 14.3579C1071.57 14.3124 1070.96 14.2896 1070.33 14.2896H1067.32V18.0104ZM1067.36 25.8956H1070.5C1071.23 25.8956 1071.91 25.8728 1072.55 25.8273C1073.21 25.7591 1073.74 25.577 1074.15 25.2812C1074.56 24.9626 1074.76 24.4392 1074.76 23.7109C1074.76 22.9827 1074.56 22.4707 1074.15 22.1749C1073.76 21.879 1073.24 21.7083 1072.58 21.6628C1071.94 21.5946 1071.25 21.5604 1070.5 21.5604H1067.36V25.8956Z" fill="black"/>
<path d="M1082.58 29.6846V10.4665H1090.4C1092.9 10.4665 1094.88 10.9102 1096.34 11.7977C1097.79 12.6853 1098.52 14.1758 1098.52 16.2695C1098.52 17.999 1098.13 19.3416 1097.36 20.2974C1096.61 21.2532 1095.59 21.7311 1094.29 21.7311C1094.93 21.7311 1095.4 21.879 1095.72 22.1749C1096.06 22.4479 1096.3 22.812 1096.44 23.2672C1096.6 23.6996 1096.72 24.1433 1096.81 24.5985C1096.91 25.0536 1097.03 25.4632 1097.19 25.8273C1097.35 26.1687 1097.6 26.3962 1097.94 26.51C1098.31 26.6011 1098.82 26.51 1099.48 26.2369V28.8312C1098.84 29.3774 1098.13 29.7301 1097.36 29.8894C1096.59 30.0715 1095.85 30.026 1095.14 29.7529C1094.46 29.5025 1093.89 29.0133 1093.44 28.2851C1092.98 27.5341 1092.75 26.5214 1092.75 25.247C1092.75 24.7009 1092.71 24.2116 1092.62 23.7792C1092.55 23.3241 1092.34 22.9486 1092 22.6527C1091.66 22.3569 1091.13 22.1635 1090.4 22.0725C1089.67 21.9587 1088.66 21.9587 1087.36 22.0725V29.6846H1082.58ZM1087.36 18.7272H1089.75C1090.8 18.7272 1091.65 18.7158 1092.31 18.6931C1092.97 18.6703 1093.46 18.5224 1093.78 18.2493C1094.12 17.9535 1094.29 17.4301 1094.29 16.6791C1094.29 15.8371 1094.08 15.2568 1093.67 14.9382C1093.29 14.5968 1092.71 14.4034 1091.93 14.3579C1091.18 14.3124 1090.25 14.2896 1089.13 14.2896H1087.36V18.7272Z" fill="black"/>
<path d="M1106.99 25.8956H1117.23V29.6846H1102.31V10.4665L1116.86 10.4665V14.5286H1106.99V18.0445H1114.33V21.8676H1106.99V25.8956Z" fill="black"/>
<path d="M1128.38 30.026C1126.49 30.026 1124.82 29.6618 1123.39 28.9336C1121.96 28.1827 1120.85 27.0789 1120.08 25.6225C1119.33 24.1661 1118.98 22.3569 1119.02 20.195C1119.09 18.0104 1119.56 16.1671 1120.42 14.6651C1121.31 13.1632 1122.5 12.0367 1124.01 11.2857C1125.51 10.512 1127.2 10.1251 1129.09 10.1251C1131.91 10.1251 1134.03 10.694 1135.44 11.8319C1136.87 12.9697 1137.84 14.631 1138.34 16.8156L1133.73 17.5325C1133.55 16.736 1133.2 16.1329 1132.68 15.7233C1132.18 15.2909 1131.6 14.9951 1130.94 14.8358C1130.3 14.6765 1129.68 14.5968 1129.09 14.5968C1127.18 14.5968 1125.8 15.0975 1124.96 16.0988C1124.12 17.0773 1123.71 18.3176 1123.73 19.8195C1123.73 21.6628 1124.24 23.051 1125.27 23.984C1126.32 24.9171 1127.81 25.3836 1129.74 25.3836C1130.31 25.3836 1130.9 25.3267 1131.52 25.2129C1132.13 25.0763 1132.7 24.8488 1133.22 24.5302C1133.75 24.2116 1134.14 23.7451 1134.42 23.1306H1131.31V19.7171H1138.72V29.6846L1135.54 29.6846L1134.52 27.2269H1134.45C1134.02 28.0006 1133.28 28.6605 1132.23 29.2067C1131.21 29.7529 1129.92 30.026 1128.38 30.026Z" fill="black"/>
<path d="M1140.79 29.6846L1146.32 10.4665H1154.14L1159.87 29.6846H1154.79L1153.52 24.8715H1147.14L1145.91 29.6846H1140.79ZM1150.32 12.4463L1148.06 21.2532H1152.6L1150.32 12.4463Z" fill="black"/>
<path d="M1518.64 10.4665H1523.62V29.6846H1514.48L1510.89 12.5487H1510.82V29.6846H1505.87V10.4665H1514.34L1518.57 27.6024H1518.64V10.4665Z" fill="black"/>
<path d="M1535.81 30.1625C1532.62 30.1625 1530.18 29.2636 1528.5 27.4658C1526.82 25.6453 1525.97 23.1989 1525.97 20.1267C1525.97 18.1014 1526.34 16.3491 1527.07 14.8699C1527.8 13.368 1528.89 12.2074 1530.34 11.3881C1531.8 10.5461 1533.62 10.1251 1535.81 10.1251C1535.87 10.1251 1548.03 10.1255 1548.09 10.1263C1551.19 10.1635 1553.76 11.0733 1555.38 12.8559C1557.05 14.6537 1557.88 17.0773 1557.88 20.1267C1557.88 22.1066 1557.5 23.8589 1556.75 25.3836C1556.02 26.8855 1554.93 28.0575 1553.47 28.8995C1552.08 29.7154 1550.16 30.136 1548.09 30.1613C1548.03 30.1621 1535.87 30.1625 1535.81 30.1625ZM1535.74 25.5542C1535.83 25.5542 1548 25.5528 1548.09 25.55C1549.16 25.5162 1550.22 25.2787 1550.91 24.8374C1551.69 24.3368 1552.26 23.6768 1552.62 22.8576C1553.01 22.0156 1553.2 21.1053 1553.2 20.1267C1553.2 19.1254 1553.01 18.2038 1552.62 17.3618C1552.26 16.5198 1551.69 15.8485 1550.91 15.3478C1550.22 14.8855 1549.16 14.6367 1548.09 14.6012C1548 14.5983 1535.83 14.5968 1535.74 14.5968C1534.08 14.5968 1532.8 15.1202 1531.91 16.1671C1531.05 17.2139 1530.62 18.5338 1530.62 20.1267C1530.62 21.0825 1530.8 21.9814 1531.16 22.8234C1531.55 23.6427 1532.12 24.3026 1532.87 24.8033C1533.62 25.3039 1534.58 25.5542 1535.74 25.5542ZM1550.75 8.86212H1548.63V8.28182L1549.96 4.9707H1553.89V5.72168L1550.75 8.86212Z" fill="black"/>
<path d="M1560.65 29.6846V10.4665H1568.94C1569.4 10.4665 1569.95 10.4892 1570.61 10.5347C1571.27 10.5575 1571.96 10.6485 1572.66 10.8078C1573.37 10.9444 1574.03 11.1947 1574.64 11.5588C1575.26 11.9229 1575.76 12.4236 1576.14 13.0608C1576.53 13.6979 1576.72 14.5172 1576.72 15.5185C1576.72 16.2467 1576.58 16.918 1576.28 17.5325C1575.98 18.1469 1575.45 18.6589 1574.68 19.0685C1573.92 19.4554 1572.82 19.6944 1571.36 19.7854V19.9219C1573.03 19.9674 1574.31 20.195 1575.22 20.6046C1576.13 21.0143 1576.77 21.549 1577.13 22.209C1577.5 22.8462 1577.68 23.5858 1577.68 24.4278C1577.68 25.4746 1577.47 26.3394 1577.07 27.0221C1576.66 27.682 1576.11 28.194 1575.43 28.5581C1574.77 28.9223 1574.04 29.184 1573.24 29.3433C1572.47 29.5025 1571.69 29.605 1570.92 29.6505C1570.17 29.6732 1569.51 29.6846 1568.94 29.6846H1560.65ZM1565.32 18.0104H1568.33C1568.9 18.0104 1569.46 17.9876 1570.03 17.9421C1570.6 17.8738 1571.08 17.7145 1571.47 17.4642C1571.85 17.1911 1572.05 16.736 1572.05 16.0988C1572.05 15.4844 1571.87 15.052 1571.5 14.8016C1571.16 14.5513 1570.7 14.4034 1570.14 14.3579C1569.57 14.3124 1568.96 14.2896 1568.33 14.2896H1565.32V18.0104ZM1565.36 25.8956H1568.5C1569.23 25.8956 1569.91 25.8728 1570.55 25.8273C1571.21 25.7591 1571.74 25.577 1572.15 25.2812C1572.56 24.9626 1572.76 24.4392 1572.76 23.7109C1572.76 22.9827 1572.56 22.4707 1572.15 22.1749C1571.76 21.879 1571.24 21.7083 1570.58 21.6628C1569.94 21.5946 1569.25 21.5604 1568.5 21.5604H1565.36V25.8956Z" fill="black"/>
<path d="M1580.58 29.6846V10.4665H1588.4C1590.9 10.4665 1592.88 10.9102 1594.34 11.7977C1595.79 12.6853 1596.52 14.1758 1596.52 16.2695C1596.52 17.999 1596.13 19.3416 1595.36 20.2974C1594.61 21.2532 1593.59 21.7311 1592.29 21.7311C1592.93 21.7311 1593.4 21.879 1593.72 22.1749C1594.06 22.4479 1594.3 22.812 1594.44 23.2672C1594.6 23.6996 1594.72 24.1433 1594.81 24.5985C1594.91 25.0536 1595.03 25.4632 1595.19 25.8273C1595.35 26.1687 1595.6 26.3962 1595.94 26.51C1596.31 26.6011 1596.82 26.51 1597.48 26.2369V28.8312C1596.84 29.3774 1596.13 29.7301 1595.36 29.8894C1594.59 30.0715 1593.85 30.026 1593.14 29.7529C1592.46 29.5025 1591.89 29.0133 1591.44 28.2851C1590.98 27.5341 1590.75 26.5214 1590.75 25.247C1590.75 24.7009 1590.71 24.2116 1590.62 23.7792C1590.55 23.3241 1590.34 22.9486 1590 22.6527C1589.66 22.3569 1589.13 22.1635 1588.4 22.0725C1587.67 21.9587 1586.66 21.9587 1585.36 22.0725V29.6846H1580.58ZM1585.36 18.7272H1587.75C1588.8 18.7272 1589.65 18.7158 1590.31 18.6931C1590.97 18.6703 1591.46 18.5224 1591.78 18.2493C1592.12 17.9535 1592.29 17.4301 1592.29 16.6791C1592.29 15.8371 1592.08 15.2568 1591.67 14.9382C1591.29 14.5968 1590.71 14.4034 1589.93 14.3579C1589.18 14.3124 1588.25 14.2896 1587.13 14.2896H1585.36V18.7272Z" fill="black"/>
<path d="M1604.99 25.8956H1615.23V29.6846H1600.31V10.4665L1614.86 10.4665V14.5286H1604.99V18.0445H1612.33V21.8676H1604.99V25.8956Z" fill="black"/>
<path d="M1626.38 30.026C1624.49 30.026 1622.82 29.6618 1621.39 28.9336C1619.96 28.1827 1618.85 27.0789 1618.08 25.6225C1617.33 24.1661 1616.98 22.3569 1617.02 20.195C1617.09 18.0104 1617.56 16.1671 1618.42 14.6651C1619.31 13.1632 1620.5 12.0367 1622.01 11.2857C1623.51 10.512 1625.2 10.1251 1627.09 10.1251C1629.91 10.1251 1632.03 10.694 1633.44 11.8319C1634.87 12.9697 1635.84 14.631 1636.34 16.8156L1631.73 17.5325C1631.55 16.736 1631.2 16.1329 1630.68 15.7233C1630.18 15.2909 1629.6 14.9951 1628.94 14.8358C1628.3 14.6765 1627.68 14.5968 1627.09 14.5968C1625.18 14.5968 1623.8 15.0975 1622.96 16.0988C1622.12 17.0773 1621.71 18.3176 1621.73 19.8195C1621.73 21.6628 1622.24 23.051 1623.27 23.984C1624.32 24.9171 1625.81 25.3836 1627.74 25.3836C1628.31 25.3836 1628.9 25.3267 1629.52 25.2129C1630.13 25.0763 1630.7 24.8488 1631.22 24.5302C1631.75 24.2116 1632.14 23.7451 1632.42 23.1306H1629.31V19.7171H1636.72V29.6846L1633.54 29.6846L1632.52 27.2269H1632.45C1632.02 28.0006 1631.28 28.6605 1630.23 29.2067C1629.21 29.7529 1627.92 30.026 1626.38 30.026Z" fill="black"/>
<path d="M1638.79 29.6846L1644.32 10.4665H1652.14L1657.87 29.6846H1652.79L1651.52 24.8715H1645.14L1643.91 29.6846H1638.79ZM1648.32 12.4463L1646.06 21.2532H1650.6L1648.32 12.4463Z" fill="black"/>
<path d="M771.64 10.4665H776.623V29.6846H767.475L763.891 12.5487H763.823V29.6846H758.873V10.4665H767.339L771.571 27.6024H771.64V10.4665Z" fill="black"/>
<path d="M788.806 30.1625C785.62 30.1625 783.185 29.2636 781.501 27.4658C779.817 25.6453 778.975 23.1989 778.975 20.1267C778.975 18.1014 779.339 16.3491 780.067 14.8699C780.795 13.368 781.888 12.2074 783.344 11.3881C784.8 10.5461 786.621 10.1251 788.806 10.1251C788.872 10.1251 801.026 10.1255 801.092 10.1263C804.19 10.1635 806.758 11.0733 808.384 12.8559C810.046 14.6537 810.876 17.0773 810.876 20.1267C810.876 22.1066 810.501 23.8589 809.75 25.3836C809.022 26.8855 807.929 28.0575 806.473 28.8995C805.084 29.7154 803.157 30.136 801.092 30.1613C801.026 30.1621 788.872 30.1625 788.806 30.1625ZM788.737 25.5542C788.826 25.5542 801.004 25.5528 801.092 25.55C802.164 25.5162 803.219 25.2787 803.913 24.8374C804.686 24.3368 805.255 23.6768 805.619 22.8576C806.006 22.0156 806.2 21.1053 806.2 20.1267C806.2 19.1254 806.006 18.2038 805.619 17.3618C805.255 16.5198 804.686 15.8485 803.913 15.3478C803.219 14.8855 802.164 14.6367 801.092 14.6012C801.004 14.5983 788.826 14.5968 788.737 14.5968C787.076 14.5968 785.802 15.1202 784.914 16.1671C784.049 17.2139 783.617 18.5338 783.617 20.1267C783.617 21.0825 783.799 21.9814 784.163 22.8234C784.55 23.6427 785.119 24.3026 785.87 24.8033C786.621 25.3039 787.577 25.5542 788.737 25.5542ZM803.749 8.86212H801.632V8.28182L802.964 4.9707H806.889V5.72168L803.749 8.86212Z" fill="black"/>
<path d="M813.646 29.6846V10.4665H821.941C822.396 10.4665 822.954 10.4892 823.614 10.5347C824.273 10.5575 824.956 10.6485 825.662 10.8078C826.367 10.9444 827.027 11.1947 827.642 11.5588C828.256 11.9229 828.757 12.4236 829.143 13.0608C829.53 13.6979 829.724 14.5172 829.724 15.5185C829.724 16.2467 829.576 16.918 829.28 17.5325C828.984 18.1469 828.449 18.6589 827.676 19.0685C826.925 19.4554 825.821 19.6944 824.365 19.7854V19.9219C826.026 19.9674 827.312 20.195 828.222 20.6046C829.132 21.0143 829.769 21.549 830.133 22.209C830.497 22.8462 830.68 23.5858 830.68 24.4278C830.68 25.4746 830.475 26.3394 830.065 27.0221C829.655 27.682 829.109 28.194 828.427 28.5581C827.767 28.9223 827.038 29.184 826.242 29.3433C825.468 29.5025 824.694 29.605 823.921 29.6505C823.17 29.6732 822.51 29.6846 821.941 29.6846H813.646ZM818.323 18.0104H821.326C821.895 18.0104 822.464 17.9876 823.033 17.9421C823.602 17.8738 824.08 17.7145 824.467 17.4642C824.854 17.1911 825.047 16.736 825.047 16.0988C825.047 15.4844 824.865 15.052 824.501 14.8016C824.16 14.5513 823.705 14.4034 823.136 14.3579C822.567 14.3124 821.964 14.2896 821.326 14.2896H818.323V18.0104ZM818.357 25.8956H821.497C822.225 25.8956 822.908 25.8728 823.545 25.8273C824.205 25.7591 824.74 25.577 825.15 25.2812C825.559 24.9626 825.764 24.4392 825.764 23.7109C825.764 22.9827 825.559 22.4707 825.15 22.1749C824.763 21.879 824.239 21.7083 823.579 21.6628C822.942 21.5946 822.248 21.5604 821.497 21.5604H818.357V25.8956Z" fill="black"/>
<path d="M833.58 29.6846V10.4665H841.397C843.901 10.4665 845.881 10.9102 847.337 11.7977C848.793 12.6853 849.522 14.1758 849.522 16.2695C849.522 17.999 849.135 19.3416 848.361 20.2974C847.61 21.2532 846.586 21.7311 845.289 21.7311C845.926 21.7311 846.404 21.879 846.723 22.1749C847.064 22.4479 847.303 22.812 847.439 23.2672C847.599 23.6996 847.724 24.1433 847.815 24.5985C847.906 25.0536 848.031 25.4632 848.19 25.8273C848.35 26.1687 848.6 26.3962 848.941 26.51C849.305 26.6011 849.817 26.51 850.477 26.2369V28.8312C849.84 29.3774 849.135 29.7301 848.361 29.8894C847.587 30.0715 846.848 30.026 846.142 29.7529C845.46 29.5025 844.891 29.0133 844.435 28.2851C843.98 27.5341 843.753 26.5214 843.753 25.247C843.753 24.7009 843.707 24.2116 843.616 23.7792C843.548 23.3241 843.343 22.9486 843.002 22.6527C842.66 22.3569 842.126 22.1635 841.397 22.0725C840.669 21.9587 839.657 21.9587 838.359 22.0725V29.6846H833.58ZM838.359 18.7272H840.749C841.796 18.7272 842.649 18.7158 843.309 18.6931C843.969 18.6703 844.458 18.5224 844.777 18.2493C845.118 17.9535 845.289 17.4301 845.289 16.6791C845.289 15.8371 845.084 15.2568 844.674 14.9382C844.288 14.5968 843.707 14.4034 842.934 14.3579C842.183 14.3124 841.25 14.2896 840.134 14.2896H838.359V18.7272Z" fill="black"/>
<path d="M857.991 25.8956H868.232V29.6846H853.315V10.4665L867.857 10.4665V14.5286H857.991V18.0445H865.331V21.8676H857.991V25.8956Z" fill="black"/>
<path d="M879.375 30.026C877.486 30.026 875.825 29.6618 874.391 28.9336C872.958 28.1827 871.854 27.0789 871.08 25.6225C870.329 24.1661 869.976 22.3569 870.022 20.195C870.09 18.0104 870.557 16.1671 871.422 14.6651C872.309 13.1632 873.504 12.0367 875.006 11.2857C876.508 10.512 878.203 10.1251 880.092 10.1251C882.914 10.1251 885.03 10.694 886.441 11.8319C887.875 12.9697 888.842 14.631 889.343 16.8156L884.734 17.5325C884.552 16.736 884.199 16.1329 883.676 15.7233C883.175 15.2909 882.595 14.9951 881.935 14.8358C881.298 14.6765 880.684 14.5968 880.092 14.5968C878.18 14.5968 876.804 15.0975 875.962 16.0988C875.12 17.0773 874.71 18.3176 874.733 19.8195C874.733 21.6628 875.245 23.051 876.269 23.984C877.316 24.9171 878.806 25.3836 880.74 25.3836C881.309 25.3836 881.901 25.3267 882.515 25.2129C883.13 25.0763 883.699 24.8488 884.222 24.5302C884.746 24.2116 885.144 23.7451 885.417 23.1306H882.311V19.7171H889.718V29.6846L886.543 29.6846L885.519 27.2269H885.451C885.019 28.0006 884.279 28.6605 883.232 29.2067C882.208 29.7529 880.922 30.026 879.375 30.026Z" fill="black"/>
<path d="M891.791 29.6846L897.321 10.4665H905.138L910.873 29.6846H905.787L904.524 24.8715H898.141L896.912 29.6846H891.791ZM901.315 12.4463L899.062 21.2532H903.602L901.315 12.4463Z" fill="black"/>
<path d="M522.64 10.4665H527.623V29.6846H518.475L514.891 12.5487H514.823V29.6846H509.873V10.4665H518.339L522.571 27.6024H522.64V10.4665Z" fill="black"/>
<path d="M539.806 30.1625C536.62 30.1625 534.185 29.2636 532.501 27.4658C530.817 25.6453 529.975 23.1989 529.975 20.1267C529.975 18.1014 530.339 16.3491 531.067 14.8699C531.795 13.368 532.888 12.2074 534.344 11.3881C535.8 10.5461 537.621 10.1251 539.806 10.1251C539.872 10.1251 552.026 10.1255 552.092 10.1263C555.19 10.1635 557.758 11.0733 559.384 12.8559C561.046 14.6537 561.876 17.0773 561.876 20.1267C561.876 22.1066 561.501 23.8589 560.75 25.3836C560.022 26.8855 558.929 28.0575 557.473 28.8995C556.084 29.7154 554.157 30.136 552.092 30.1613C552.026 30.1621 539.872 30.1625 539.806 30.1625ZM539.737 25.5542C539.826 25.5542 552.004 25.5528 552.092 25.55C553.164 25.5162 554.219 25.2787 554.913 24.8374C555.686 24.3368 556.255 23.6768 556.619 22.8576C557.006 22.0156 557.2 21.1053 557.2 20.1267C557.2 19.1254 557.006 18.2038 556.619 17.3618C556.255 16.5198 555.686 15.8485 554.913 15.3478C554.219 14.8855 553.164 14.6367 552.092 14.6012C552.004 14.5983 539.826 14.5968 539.737 14.5968C538.076 14.5968 536.802 15.1202 535.914 16.1671C535.049 17.2139 534.617 18.5338 534.617 20.1267C534.617 21.0825 534.799 21.9814 535.163 22.8234C535.55 23.6427 536.119 24.3026 536.87 24.8033C537.621 25.3039 538.577 25.5542 539.737 25.5542ZM554.749 8.86212H552.632V8.28182L553.964 4.9707H557.889V5.72168L554.749 8.86212Z" fill="black"/>
<path d="M564.646 29.6846V10.4665H572.941C573.396 10.4665 573.954 10.4892 574.614 10.5347C575.273 10.5575 575.956 10.6485 576.662 10.8078C577.367 10.9444 578.027 11.1947 578.642 11.5588C579.256 11.9229 579.757 12.4236 580.143 13.0608C580.53 13.6979 580.724 14.5172 580.724 15.5185C580.724 16.2467 580.576 16.918 580.28 17.5325C579.984 18.1469 579.449 18.6589 578.676 19.0685C577.925 19.4554 576.821 19.6944 575.365 19.7854V19.9219C577.026 19.9674 578.312 20.195 579.222 20.6046C580.132 21.0143 580.769 21.549 581.133 22.209C581.497 22.8462 581.68 23.5858 581.68 24.4278C581.68 25.4746 581.475 26.3394 581.065 27.0221C580.655 27.682 580.109 28.194 579.427 28.5581C578.767 28.9223 578.038 29.184 577.242 29.3433C576.468 29.5025 575.694 29.605 574.921 29.6505C574.17 29.6732 573.51 29.6846 572.941 29.6846H564.646ZM569.323 18.0104H572.326C572.895 18.0104 573.464 17.9876 574.033 17.9421C574.602 17.8738 575.08 17.7145 575.467 17.4642C575.854 17.1911 576.047 16.736 576.047 16.0988C576.047 15.4844 575.865 15.052 575.501 14.8016C575.16 14.5513 574.705 14.4034 574.136 14.3579C573.567 14.3124 572.964 14.2896 572.326 14.2896H569.323V18.0104ZM569.357 25.8956H572.497C573.225 25.8956 573.908 25.8728 574.545 25.8273C575.205 25.7591 575.74 25.577 576.15 25.2812C576.559 24.9626 576.764 24.4392 576.764 23.7109C576.764 22.9827 576.559 22.4707 576.15 22.1749C575.763 21.879 575.239 21.7083 574.579 21.6628C573.942 21.5946 573.248 21.5604 572.497 21.5604H569.357V25.8956Z" fill="black"/>
<path d="M584.58 29.6846V10.4665H592.397C594.901 10.4665 596.881 10.9102 598.337 11.7977C599.793 12.6853 600.522 14.1758 600.522 16.2695C600.522 17.999 600.135 19.3416 599.361 20.2974C598.61 21.2532 597.586 21.7311 596.289 21.7311C596.926 21.7311 597.404 21.879 597.723 22.1749C598.064 22.4479 598.303 22.812 598.439 23.2672C598.599 23.6996 598.724 24.1433 598.815 24.5985C598.906 25.0536 599.031 25.4632 599.19 25.8273C599.35 26.1687 599.6 26.3962 599.941 26.51C600.305 26.6011 600.817 26.51 601.477 26.2369V28.8312C600.84 29.3774 600.135 29.7301 599.361 29.8894C598.587 30.0715 597.848 30.026 597.142 29.7529C596.46 29.5025 595.891 29.0133 595.435 28.2851C594.98 27.5341 594.753 26.5214 594.753 25.247C594.753 24.7009 594.707 24.2116 594.616 23.7792C594.548 23.3241 594.343 22.9486 594.002 22.6527C593.66 22.3569 593.126 22.1635 592.397 22.0725C591.669 21.9587 590.657 21.9587 589.359 22.0725V29.6846H584.58ZM589.359 18.7272H591.749C592.796 18.7272 593.649 18.7158 594.309 18.6931C594.969 18.6703 595.458 18.5224 595.777 18.2493C596.118 17.9535 596.289 17.4301 596.289 16.6791C596.289 15.8371 596.084 15.2568 595.674 14.9382C595.288 14.5968 594.707 14.4034 593.934 14.3579C593.183 14.3124 592.25 14.2896 591.134 14.2896H589.359V18.7272Z" fill="black"/>
<path d="M608.991 25.8956H619.232V29.6846H604.315V10.4665L618.857 10.4665V14.5286H608.991V18.0445H616.331V21.8676H608.991V25.8956Z" fill="black"/>
<path d="M630.375 30.026C628.486 30.026 626.825 29.6618 625.391 28.9336C623.958 28.1827 622.854 27.0789 622.08 25.6225C621.329 24.1661 620.976 22.3569 621.022 20.195C621.09 18.0104 621.557 16.1671 622.422 14.6651C623.309 13.1632 624.504 12.0367 626.006 11.2857C627.508 10.512 629.203 10.1251 631.092 10.1251C633.914 10.1251 636.03 10.694 637.441 11.8319C638.875 12.9697 639.842 14.631 640.343 16.8156L635.734 17.5325C635.552 16.736 635.199 16.1329 634.676 15.7233C634.175 15.2909 633.595 14.9951 632.935 14.8358C632.298 14.6765 631.684 14.5968 631.092 14.5968C629.18 14.5968 627.804 15.0975 626.962 16.0988C626.12 17.0773 625.71 18.3176 625.733 19.8195C625.733 21.6628 626.245 23.051 627.269 23.984C628.316 24.9171 629.806 25.3836 631.74 25.3836C632.309 25.3836 632.901 25.3267 633.515 25.2129C634.13 25.0763 634.699 24.8488 635.222 24.5302C635.746 24.2116 636.144 23.7451 636.417 23.1306H633.311V19.7171H640.718V29.6846L637.543 29.6846L636.519 27.2269H636.451C636.019 28.0006 635.279 28.6605 634.232 29.2067C633.208 29.7529 631.922 30.026 630.375 30.026Z" fill="black"/>
<path d="M642.791 29.6846L648.321 10.4665H656.138L661.873 29.6846H656.787L655.524 24.8715H649.141L647.912 29.6846H642.791ZM652.315 12.4463L650.062 21.2532H654.602L652.315 12.4463Z" fill="black"/>
<path d="M273.64 10.4665H278.623V29.6846H269.475L265.891 12.5487H265.823V29.6846H260.873V10.4665H269.339L273.571 27.6024H273.64V10.4665Z" fill="black"/>
<path d="M290.806 30.1625C287.62 30.1625 285.185 29.2636 283.501 27.4658C281.817 25.6453 280.975 23.1989 280.975 20.1267C280.975 18.1014 281.339 16.3491 282.067 14.8699C282.795 13.368 283.888 12.2074 285.344 11.3881C286.8 10.5461 288.621 10.1251 290.806 10.1251C290.872 10.1251 303.026 10.1255 303.092 10.1263C306.19 10.1635 308.758 11.0733 310.384 12.8559C312.046 14.6537 312.876 17.0773 312.876 20.1267C312.876 22.1066 312.501 23.8589 311.75 25.3836C311.022 26.8855 309.929 28.0575 308.473 28.8995C307.084 29.7154 305.157 30.136 303.092 30.1613C303.026 30.1621 290.872 30.1625 290.806 30.1625ZM290.737 25.5542C290.826 25.5542 303.004 25.5528 303.092 25.55C304.164 25.5162 305.219 25.2787 305.913 24.8374C306.686 24.3368 307.255 23.6768 307.619 22.8576C308.006 22.0156 308.2 21.1053 308.2 20.1267C308.2 19.1254 308.006 18.2038 307.619 17.3618C307.255 16.5198 306.686 15.8485 305.913 15.3478C305.219 14.8855 304.164 14.6367 303.092 14.6012C303.004 14.5983 290.826 14.5968 290.737 14.5968C289.076 14.5968 287.802 15.1202 286.914 16.1671C286.049 17.2139 285.617 18.5338 285.617 20.1267C285.617 21.0825 285.799 21.9814 286.163 22.8234C286.55 23.6427 287.119 24.3026 287.87 24.8033C288.621 25.3039 289.577 25.5542 290.737 25.5542ZM305.749 8.86212H303.632V8.28182L304.964 4.9707H308.889V5.72168L305.749 8.86212Z" fill="black"/>
<path d="M315.646 29.6846V10.4665H323.941C324.396 10.4665 324.954 10.4892 325.614 10.5347C326.273 10.5575 326.956 10.6485 327.662 10.8078C328.367 10.9444 329.027 11.1947 329.642 11.5588C330.256 11.9229 330.757 12.4236 331.143 13.0608C331.53 13.6979 331.724 14.5172 331.724 15.5185C331.724 16.2467 331.576 16.918 331.28 17.5325C330.984 18.1469 330.449 18.6589 329.676 19.0685C328.925 19.4554 327.821 19.6944 326.365 19.7854V19.9219C328.026 19.9674 329.312 20.195 330.222 20.6046C331.132 21.0143 331.769 21.549 332.133 22.209C332.497 22.8462 332.68 23.5858 332.68 24.4278C332.68 25.4746 332.475 26.3394 332.065 27.0221C331.655 27.682 331.109 28.194 330.427 28.5581C329.767 28.9223 329.038 29.184 328.242 29.3433C327.468 29.5025 326.694 29.605 325.921 29.6505C325.17 29.6732 324.51 29.6846 323.941 29.6846H315.646ZM320.323 18.0104H323.326C323.895 18.0104 324.464 17.9876 325.033 17.9421C325.602 17.8738 326.08 17.7145 326.467 17.4642C326.854 17.1911 327.047 16.736 327.047 16.0988C327.047 15.4844 326.865 15.052 326.501 14.8016C326.16 14.5513 325.705 14.4034 325.136 14.3579C324.567 14.3124 323.964 14.2896 323.326 14.2896H320.323V18.0104ZM320.357 25.8956H323.497C324.225 25.8956 324.908 25.8728 325.545 25.8273C326.205 25.7591 326.74 25.577 327.15 25.2812C327.559 24.9626 327.764 24.4392 327.764 23.7109C327.764 22.9827 327.559 22.4707 327.15 22.1749C326.763 21.879 326.239 21.7083 325.579 21.6628C324.942 21.5946 324.248 21.5604 323.497 21.5604H320.357V25.8956Z" fill="black"/>
<path d="M335.58 29.6846V10.4665H343.397C345.901 10.4665 347.881 10.9102 349.337 11.7977C350.793 12.6853 351.522 14.1758 351.522 16.2695C351.522 17.999 351.135 19.3416 350.361 20.2974C349.61 21.2532 348.586 21.7311 347.289 21.7311C347.926 21.7311 348.404 21.879 348.723 22.1749C349.064 22.4479 349.303 22.812 349.439 23.2672C349.599 23.6996 349.724 24.1433 349.815 24.5985C349.906 25.0536 350.031 25.4632 350.19 25.8273C350.35 26.1687 350.6 26.3962 350.941 26.51C351.305 26.6011 351.817 26.51 352.477 26.2369V28.8312C351.84 29.3774 351.135 29.7301 350.361 29.8894C349.587 30.0715 348.848 30.026 348.142 29.7529C347.46 29.5025 346.891 29.0133 346.435 28.2851C345.98 27.5341 345.753 26.5214 345.753 25.247C345.753 24.7009 345.707 24.2116 345.616 23.7792C345.548 23.3241 345.343 22.9486 345.002 22.6527C344.66 22.3569 344.126 22.1635 343.397 22.0725C342.669 21.9587 341.657 21.9587 340.359 22.0725V29.6846H335.58ZM340.359 18.7272H342.749C343.796 18.7272 344.649 18.7158 345.309 18.6931C345.969 18.6703 346.458 18.5224 346.777 18.2493C347.118 17.9535 347.289 17.4301 347.289 16.6791C347.289 15.8371 347.084 15.2568 346.674 14.9382C346.288 14.5968 345.707 14.4034 344.934 14.3579C344.183 14.3124 343.25 14.2896 342.134 14.2896H340.359V18.7272Z" fill="black"/>
<path d="M359.991 25.8956H370.232V29.6846H355.315V10.4665L369.857 10.4665V14.5286H359.991V18.0445H367.331V21.8676H359.991V25.8956Z" fill="black"/>
<path d="M381.375 30.026C379.486 30.026 377.825 29.6618 376.391 28.9336C374.958 28.1827 373.854 27.0789 373.08 25.6225C372.329 24.1661 371.976 22.3569 372.022 20.195C372.09 18.0104 372.557 16.1671 373.422 14.6651C374.309 13.1632 375.504 12.0367 377.006 11.2857C378.508 10.512 380.203 10.1251 382.092 10.1251C384.914 10.1251 387.03 10.694 388.441 11.8319C389.875 12.9697 390.842 14.631 391.343 16.8156L386.734 17.5325C386.552 16.736 386.199 16.1329 385.676 15.7233C385.175 15.2909 384.595 14.9951 383.935 14.8358C383.298 14.6765 382.684 14.5968 382.092 14.5968C380.18 14.5968 378.804 15.0975 377.962 16.0988C377.12 17.0773 376.71 18.3176 376.733 19.8195C376.733 21.6628 377.245 23.051 378.269 23.984C379.316 24.9171 380.806 25.3836 382.74 25.3836C383.309 25.3836 383.901 25.3267 384.515 25.2129C385.13 25.0763 385.699 24.8488 386.222 24.5302C386.746 24.2116 387.144 23.7451 387.417 23.1306H384.311V19.7171H391.718V29.6846L388.543 29.6846L387.519 27.2269H387.451C387.019 28.0006 386.279 28.6605 385.232 29.2067C384.208 29.7529 382.922 30.026 381.375 30.026Z" fill="black"/>
<path d="M393.791 29.6846L399.321 10.4665H407.138L412.873 29.6846H407.787L406.524 24.8715H400.141L398.912 29.6846H393.791ZM403.315 12.4463L401.062 21.2532H405.602L403.315 12.4463Z" fill="black"/>
<path d="M24.6396 10.4665H29.6234V29.6846H20.4751L16.8909 12.5487H16.8227V29.6846H11.873V10.4665H20.3386L24.5713 27.6024H24.6396V10.4665Z" fill="black"/>
<path d="M41.8056 30.1625C38.6197 30.1625 36.1847 29.2636 34.5007 27.4658C32.8167 25.6453 31.9747 23.1989 31.9747 20.1267C31.9747 18.1014 32.3388 16.3491 33.067 14.8699C33.7952 13.368 34.8876 12.2074 36.344 11.3881C37.8004 10.5461 39.621 10.1251 41.8056 10.1251C41.8721 10.1251 54.0265 10.1255 54.0924 10.1263C57.1896 10.1635 59.7578 11.0733 61.3844 12.8559C63.0457 14.6537 63.8763 17.0773 63.8763 20.1267C63.8763 22.1066 63.5008 23.8589 62.7498 25.3836C62.0216 26.8855 60.9293 28.0575 59.4729 28.8995C58.0836 29.7154 56.1568 30.136 54.0924 30.1613C54.0264 30.1621 41.872 30.1625 41.8056 30.1625ZM41.7374 25.5542C41.8263 25.5542 54.0035 25.5528 54.0924 25.55C55.1638 25.5162 56.2193 25.2787 56.9127 24.8374C57.6865 24.3368 58.2554 23.6768 58.6195 22.8576C59.0064 22.0156 59.1998 21.1053 59.1998 20.1267C59.1998 19.1254 59.0064 18.2038 58.6195 17.3618C58.2554 16.5198 57.6865 15.8485 56.9127 15.3478C56.2193 14.8855 55.1638 14.6367 54.0924 14.6012C54.0035 14.5983 41.8263 14.5968 41.7374 14.5968C40.0761 14.5968 38.8017 15.1202 37.9142 16.1671C37.0495 17.2139 36.6171 18.5338 36.6171 20.1267C36.6171 21.0825 36.7991 21.9814 37.1632 22.8234C37.5501 23.6427 38.119 24.3026 38.87 24.8033C39.621 25.3039 40.5768 25.5542 41.7374 25.5542ZM56.7486 8.86212H54.6323V8.28182L55.9635 4.9707H59.8891V5.72168L56.7486 8.86212Z" fill="black"/>
<path d="M66.6461 29.6846V10.4665H74.9409C75.3961 10.4665 75.9536 10.4892 76.6135 10.5347C77.2735 10.5575 77.9562 10.6485 78.6617 10.8078C79.3671 10.9444 80.0271 11.1947 80.6415 11.5588C81.2559 11.9229 81.7566 12.4236 82.1435 13.0608C82.5303 13.6979 82.7238 14.5172 82.7238 15.5185C82.7238 16.2467 82.5758 16.918 82.28 17.5325C81.9842 18.1469 81.4494 18.6589 80.6756 19.0685C79.9247 19.4554 78.821 19.6944 77.3645 19.7854V19.9219C79.0258 19.9674 80.3115 20.195 81.2218 20.6046C82.1321 21.0143 82.7693 21.549 83.1334 22.209C83.4975 22.8462 83.6795 23.5858 83.6795 24.4278C83.6795 25.4746 83.4747 26.3394 83.0651 27.0221C82.6555 27.682 82.1093 28.194 81.4266 28.5581C80.7667 28.9223 80.0385 29.184 79.242 29.3433C78.4682 29.5025 77.6945 29.605 76.9208 29.6505C76.1698 29.6732 75.5098 29.6846 74.9409 29.6846H66.6461ZM71.3226 18.0104H74.3265C74.8954 18.0104 75.4643 17.9876 76.0332 17.9421C76.6022 17.8738 77.0801 17.7145 77.4669 17.4642C77.8538 17.1911 78.0472 16.736 78.0472 16.0988C78.0472 15.4844 77.8652 15.052 77.5011 14.8016C77.1597 14.5513 76.7046 14.4034 76.1357 14.3579C75.5667 14.3124 74.9637 14.2896 74.3265 14.2896H71.3226V18.0104ZM71.3567 25.8956H74.4972C75.2254 25.8956 75.9081 25.8728 76.5453 25.8273C77.2052 25.7591 77.74 25.577 78.1496 25.2812C78.5593 24.9626 78.7641 24.4392 78.7641 23.7109C78.7641 22.9827 78.5593 22.4707 78.1496 22.1749C77.7628 21.879 77.2394 21.7083 76.5794 21.6628C75.9422 21.5946 75.2481 21.5604 74.4972 21.5604H71.3567V25.8956Z" fill="black"/>
<path d="M86.5805 29.6846V10.4665H94.3975C96.9007 10.4665 98.8806 10.9102 100.337 11.7977C101.793 12.6853 102.522 14.1758 102.522 16.2695C102.522 17.999 102.135 19.3416 101.361 20.2974C100.61 21.2532 99.586 21.7311 98.2889 21.7311C98.9261 21.7311 99.404 21.879 99.7226 22.1749C100.064 22.4479 100.303 22.812 100.439 23.2672C100.599 23.6996 100.724 24.1433 100.815 24.5985C100.906 25.0536 101.031 25.4632 101.19 25.8273C101.35 26.1687 101.6 26.3962 101.941 26.51C102.305 26.6011 102.817 26.51 103.477 26.2369V28.8312C102.84 29.3774 102.135 29.7301 101.361 29.8894C100.587 30.0715 99.8477 30.026 99.1423 29.7529C98.4596 29.5025 97.8906 29.0133 97.4355 28.2851C96.9804 27.5341 96.7528 26.5214 96.7528 25.247C96.7528 24.7009 96.7073 24.2116 96.6163 23.7792C96.548 23.3241 96.3432 22.9486 96.0018 22.6527C95.6605 22.3569 95.1257 22.1635 94.3975 22.0725C93.6692 21.9587 92.6566 21.9587 91.3594 22.0725V29.6846H86.5805ZM91.3594 18.7272H93.7489C94.7957 18.7272 95.6491 18.7158 96.309 18.6931C96.969 18.6703 97.4583 18.5224 97.7769 18.2493C98.1182 17.9535 98.2889 17.4301 98.2889 16.6791C98.2889 15.8371 98.0841 15.2568 97.6744 14.9382C97.2876 14.5968 96.7073 14.4034 95.9336 14.3579C95.1826 14.3124 94.2495 14.2896 93.1345 14.2896H91.3594V18.7272Z" fill="black"/>
<path d="M110.991 25.8956H121.232V29.6846H106.315V10.4665L120.857 10.4665V14.5286H110.991V18.0445H118.331V21.8676H110.991V25.8956Z" fill="black"/>
<path d="M132.375 30.026C130.486 30.026 128.825 29.6618 127.391 28.9336C125.958 28.1827 124.854 27.0789 124.08 25.6225C123.329 24.1661 122.976 22.3569 123.022 20.195C123.09 18.0104 123.557 16.1671 124.422 14.6651C125.309 13.1632 126.504 12.0367 128.006 11.2857C129.508 10.512 131.203 10.1251 133.092 10.1251C135.914 10.1251 138.03 10.694 139.441 11.8319C140.875 12.9697 141.842 14.631 142.343 16.8156L137.734 17.5325C137.552 16.736 137.199 16.1329 136.676 15.7233C136.175 15.2909 135.595 14.9951 134.935 14.8358C134.298 14.6765 133.684 14.5968 133.092 14.5968C131.18 14.5968 129.804 15.0975 128.962 16.0988C128.12 17.0773 127.71 18.3176 127.733 19.8195C127.733 21.6628 128.245 23.051 129.269 23.984C130.316 24.9171 131.806 25.3836 133.74 25.3836C134.309 25.3836 134.901 25.3267 135.515 25.2129C136.13 25.0763 136.699 24.8488 137.222 24.5302C137.746 24.2116 138.144 23.7451 138.417 23.1306H135.311V19.7171H142.718V29.6846L139.543 29.6846L138.519 27.2269H138.451C138.019 28.0006 137.279 28.6605 136.232 29.2067C135.208 29.7529 133.922 30.026 132.375 30.026Z" fill="black"/>
<path d="M144.791 29.6846L150.321 10.4665H158.138L163.873 29.6846H158.787L157.524 24.8715H151.141L149.912 29.6846H144.791ZM154.315 12.4463L152.062 21.2532H156.602L154.315 12.4463Z" fill="black"/>
</g>
<defs>
<filter id="filter0_b_1021_224" x="171.068" y="3.24382" width="58.9489" height="29.5495" filterUnits="userSpaceOnUse" color-interpolation-filters="sRGB">
<feFlood flood-opacity="0" result="BackgroundImageFix"/>
<feGaussianBlur in="BackgroundImageFix" stdDeviation="6.4025"/>
<feComposite in2="SourceAlpha" operator="in" result="effect1_backgroundBlur_1021_224"/>
<feBlend mode="normal" in="SourceGraphic" in2="effect1_backgroundBlur_1021_224" result="shape"/>
</filter>
<filter id="filter1_b_1021_224" x="420.068" y="3.24382" width="58.9489" height="29.5495" filterUnits="userSpaceOnUse" color-interpolation-filters="sRGB">
<feFlood flood-opacity="0" result="BackgroundImageFix"/>
<feGaussianBlur in="BackgroundImageFix" stdDeviation="6.4025"/>
<feComposite in2="SourceAlpha" operator="in" result="effect1_backgroundBlur_1021_224"/>
<feBlend mode="normal" in="SourceGraphic" in2="effect1_backgroundBlur_1021_224" result="shape"/>
</filter>
<filter id="filter2_b_1021_224" x="669.068" y="3.24382" width="58.9489" height="29.5495" filterUnits="userSpaceOnUse" color-interpolation-filters="sRGB">
<feFlood flood-opacity="0" result="BackgroundImageFix"/>
<feGaussianBlur in="BackgroundImageFix" stdDeviation="6.4025"/>
<feComposite in2="SourceAlpha" operator="in" result="effect1_backgroundBlur_1021_224"/>
<feBlend mode="normal" in="SourceGraphic" in2="effect1_backgroundBlur_1021_224" result="shape"/>
</filter>
<filter id="filter3_b_1021_224" x="918.068" y="3.24382" width="58.9486" height="29.5495" filterUnits="userSpaceOnUse" color-interpolation-filters="sRGB">
<feFlood flood-opacity="0" result="BackgroundImageFix"/>
<feGaussianBlur in="BackgroundImageFix" stdDeviation="6.4025"/>
<feComposite in2="SourceAlpha" operator="in" result="effect1_backgroundBlur_1021_224"/>
<feBlend mode="normal" in="SourceGraphic" in2="effect1_backgroundBlur_1021_224" result="shape"/>
</filter>
<filter id="filter4_b_1021_224" x="1167.07" y="3.24382" width="58.9486" height="29.5495" filterUnits="userSpaceOnUse" color-interpolation-filters="sRGB">
<feFlood flood-opacity="0" result="BackgroundImageFix"/>
<feGaussianBlur in="BackgroundImageFix" stdDeviation="6.4025"/>
<feComposite in2="SourceAlpha" operator="in" result="effect1_backgroundBlur_1021_224"/>
<feBlend mode="normal" in="SourceGraphic" in2="effect1_backgroundBlur_1021_224" result="shape"/>
</filter>
<filter id="filter5_b_1021_224" x="1665.07" y="3.24577" width="58.9486" height="29.5495" filterUnits="userSpaceOnUse" color-interpolation-filters="sRGB">
<feFlood flood-opacity="0" result="BackgroundImageFix"/>
<feGaussianBlur in="BackgroundImageFix" stdDeviation="6.4025"/>
<feComposite in2="SourceAlpha" operator="in" result="effect1_backgroundBlur_1021_224"/>
<feBlend mode="normal" in="SourceGraphic" in2="effect1_backgroundBlur_1021_224" result="shape"/>
</filter>
<filter id="filter6_b_1021_224" x="1416.07" y="3.24382" width="58.9486" height="29.5495" filterUnits="userSpaceOnUse" color-interpolation-filters="sRGB">
<feFlood flood-opacity="0" result="BackgroundImageFix"/>
<feGaussianBlur in="BackgroundImageFix" stdDeviation="6.4025"/>
<feComposite in2="SourceAlpha" operator="in" result="effect1_backgroundBlur_1021_224"/>
<feBlend mode="normal" in="SourceGraphic" in2="effect1_backgroundBlur_1021_224" result="shape"/>
</filter>
<clipPath id="clip0_1021_224">
<rect width="1920" height="35" fill="white"/>
</clipPath>
</defs>
</svg>
